<svg width="58" height="60" viewBox="0 0 58 60" fill="none" xmlns="http://www.w3.org/2000/svg">
<path d="M51.9582 37.2363C52.0363 37.2363 52.1095 37.2461 52.1828 37.2559C52.6613 36.4258 53.0959 35.5518 53.4865 34.6387C53.4962 34.6191 53.5011 34.6045 53.5109 34.585C54.1017 33.1934 54.5461 31.748 54.8439 30.249C55.0783 29.0869 55.2199 27.8955 55.2736 26.6748H48.2472C48.1203 30.2441 47.0558 33.7598 45.0685 37.2314H51.9582V37.2363ZM5.40054 54.4482C5.40543 53.2178 6.10367 52.0166 7.23648 50.6738L0.664215 46.5186C0.249176 46.3379 0.258942 46.084 0.498199 45.7861L1.8898 44.5996C2.14371 44.4434 2.41226 44.375 2.70035 44.458L10.8156 45.8301L16.0939 39.9902L0.317535 29.3066C-0.0828553 29.0723 -0.117035 28.8086 0.293121 28.501L2.56851 26.6846L23.1447 32.4658L29.2238 25.9668C31.2648 24.2041 33.2423 23.4131 34.7658 23.7891C35.6056 23.9941 35.8986 24.248 36.1574 25.0342C36.6603 26.5772 35.8791 28.6475 34.0334 30.7813L27.5392 36.8555L33.3205 57.4316L31.5041 59.707C31.1964 60.1172 30.9328 60.083 30.6984 59.6875L20.0148 43.9062L14.175 49.1846L15.547 57.2998C15.6252 57.5879 15.5617 57.8564 15.4054 58.1104L14.2189 59.502C13.9211 59.7412 13.6671 59.751 13.4865 59.3359L9.33121 52.7637C7.97867 53.9014 6.7775 54.5996 5.54703 54.5996C5.42496 54.5947 5.40054 54.5557 5.40054 54.4482ZM50.7326 39.4775H43.6525C41.714 42.2852 39.1701 45.0635 36.0255 47.8076L35.3517 45.415C37.5294 43.4424 39.3752 41.4648 40.8937 39.4775H33.6818L33.3107 38.1592L34.297 37.2363H42.4611C44.6779 33.7451 45.8693 30.2246 46.0109 26.6797H41.7287C41.841 25.9229 41.8556 25.1709 41.7677 24.4385H45.9621C45.6691 20.9717 44.3849 17.4561 42.0851 13.8818H33.0959V18.3057C32.3976 18.4229 31.6994 18.623 30.9962 18.8965C30.9474 18.916 30.9035 18.9355 30.8546 18.9551V13.8867H21.8654C19.5656 17.4561 18.2814 20.9766 17.9884 24.4434H23.9455L21.8507 26.6846H21.8214L13.8478 24.4434H15.7521C16.0109 20.9473 17.173 17.4316 19.2482 13.8867H11.758C11.2843 14.7119 10.8546 15.5762 10.464 16.4795C10.4543 16.499 10.4494 16.5137 10.4396 16.5332C9.84878 17.9248 9.40445 19.3701 9.1066 20.8691C8.965 21.5772 8.85757 22.29 8.77945 23.0176L6.59195 22.4023C6.67007 21.7383 6.7775 21.0791 6.90445 20.4297C7.2316 18.7939 7.72476 17.2022 8.37906 15.6543C8.38882 15.6348 8.39371 15.6152 8.40347 15.5908C9.06753 14.0479 9.85367 12.5977 10.7668 11.2354C11.6798 9.87793 12.715 8.61816 13.8722 7.46582C15.0246 6.30859 16.2843 5.27344 17.6418 4.36035C19.0041 3.44727 20.4591 2.65625 21.9972 1.99707H22.0021C23.5646 1.32813 25.1759 0.830078 26.8312 0.498047C28.506 0.166016 30.215 0 31.9777 0C33.7355 0 35.4494 0.166016 37.1095 0.498047C38.7453 0.825195 40.3371 1.31836 41.8849 1.97266C41.9044 1.98242 41.9289 1.9873 41.9484 1.99707C43.4914 2.66113 44.9416 3.44727 46.3039 4.36035C47.6662 5.27344 48.9211 6.30859 50.0734 7.46582C51.2355 8.61816 52.2658 9.87793 53.1789 11.2354C54.092 12.5977 54.883 14.0527 55.5421 15.5908V15.5957C56.2111 17.1582 56.7091 18.7695 57.0412 20.4248C57.3732 22.085 57.5392 23.7988 57.5392 25.5566C57.5392 27.3145 57.3732 29.0283 57.0412 30.6885C56.714 32.3242 56.2209 33.916 55.5666 35.459C55.5617 35.4785 55.5519 35.4981 55.5421 35.5225C54.8781 37.0654 54.092 38.5156 53.1789 39.8779C52.2658 41.2354 51.2355 42.4951 50.0734 43.6475C48.9162 44.8047 47.6613 45.8398 46.3039 46.7529C44.9416 47.666 43.4865 48.457 41.9484 49.1162H41.9435C40.381 49.7852 38.7697 50.2832 37.1144 50.6152C37.0216 50.6348 36.9289 50.6494 36.841 50.6689L36.2306 48.5059C36.3771 48.4814 36.5285 48.4522 36.675 48.4229C38.1935 48.1201 39.6584 47.666 41.0646 47.0654C42.4953 46.4502 43.8283 45.7275 45.0636 44.9023C46.299 44.0723 47.4416 43.1299 48.4962 42.0752L48.5011 42.0703C49.3068 41.2647 50.0539 40.4004 50.7326 39.4775ZM13.2179 11.6455H20.6789C22.8029 8.58399 25.6154 5.50293 29.1212 2.40234C28.5011 2.47559 27.8859 2.57324 27.2755 2.69531C25.757 2.99805 24.297 3.45215 22.8859 4.05273C21.4552 4.66797 20.1222 5.39062 18.8869 6.21582C17.6515 7.0459 16.5089 7.98828 15.4543 9.04297L15.4494 9.04785C14.6437 9.8584 13.8966 10.7275 13.2179 11.6455ZM34.8244 2.40234C38.3302 5.50293 41.1427 8.5791 43.2668 11.6455H50.7326C50.0539 10.7275 49.3068 9.8584 48.4962 9.04785L48.4914 9.04297C47.4416 7.98828 46.2941 7.0459 45.0587 6.21582C43.8234 5.39062 42.4904 4.66797 41.0597 4.05273C41.0402 4.04297 41.0255 4.03809 41.006 4.02832C39.6144 3.4375 38.1691 2.99316 36.6701 2.69531C36.0646 2.57324 35.4494 2.47559 34.8244 2.40234ZM52.1877 13.8867H44.7023C46.7824 17.4268 47.9396 20.9473 48.1984 24.4434H55.2687C55.215 23.2227 55.0685 22.0313 54.839 20.8691C54.5363 19.3506 54.0822 17.8906 53.4816 16.4795C53.091 15.5762 52.6662 14.7119 52.1877 13.8867ZM33.0959 3.85742V11.6455H40.5128C38.5646 9.07715 36.0939 6.47949 33.0959 3.85742ZM30.8546 11.6455V3.85742C27.8566 6.47949 25.3859 9.07715 23.4377 11.6455H30.8546Z" fill="#A18552"/>
</svg>
