<svg width="30" height="33" viewBox="0 0 30 33" fill="none" xmlns="http://www.w3.org/2000/svg">
<path d="M20.7654 -1.81962e-05C18.8376 0.130099 16.7743 1.27726 15.497 2.82539C14.379 4.18764 13.4417 6.1872 13.7975 8.26377C13.4788 8.16551 13.1894 8.15489 12.8415 8.03009C11.8935 7.69284 10.8101 7.32904 9.4638 7.32904C6.78975 7.32904 4.05197 8.91966 2.32593 11.5778C-0.186135 15.4388 0.318401 22.2341 4.13164 28.0416C4.80347 29.0613 5.58683 30.1739 6.55341 31.0582C7.52 31.9425 8.6884 32.617 10.0586 32.6302C11.2297 32.6435 12.0449 32.2532 12.7778 31.9292C13.5107 31.6052 14.1932 31.3184 15.4758 31.3131C15.4837 31.3131 15.489 31.3131 15.497 31.3131C16.7743 31.3025 17.4355 31.584 18.1525 31.908C18.8694 32.2319 19.6767 32.6409 20.8504 32.6302C22.2472 32.6196 23.4342 31.8548 24.4193 30.9095C25.4045 29.9642 26.2144 28.8037 26.8836 27.7867C27.8422 26.3262 28.2273 25.5296 28.9655 23.8991C29.0425 23.7291 29.0451 23.5326 28.9708 23.36C28.8991 23.1874 28.7583 23.052 28.5831 22.9856C26.1666 22.0721 24.7884 19.9345 24.5893 17.6747C24.3901 15.4149 25.3461 13.0887 27.7546 11.769C27.9325 11.6734 28.0573 11.5061 28.0998 11.3096C28.1396 11.1131 28.0918 10.9059 27.967 10.7493C26.2383 8.60101 23.8059 7.32904 21.424 7.32904C19.9051 7.32904 18.7898 7.68753 17.8763 8.03009C17.7249 8.08851 17.6134 8.08319 17.4727 8.1363C18.3994 7.6477 19.2173 6.97056 19.8307 6.18189C20.946 4.7506 21.8064 2.71386 21.4877 0.573561C21.4346 0.22304 21.1186 -0.0265728 20.7654 -1.81962e-05ZM20.0431 1.6145C19.998 2.98737 19.528 4.33103 18.7473 5.33214C17.9294 6.3837 16.5539 7.1113 15.2208 7.32904C15.2447 6.00928 15.7652 4.64172 16.5592 3.67513C17.393 2.66606 18.7738 1.93847 20.0431 1.6145ZM9.4638 8.68864C10.0586 8.68864 11.4395 8.97277 12.3742 9.3047C13.3089 9.63664 14.2941 10.027 15.4545 10.027C16.5884 10.027 17.4859 9.63398 18.3649 9.3047C19.2438 8.97543 20.1201 8.68864 21.424 8.68864C23.1261 8.68864 24.9664 9.57291 26.4162 11.1104C24.0954 12.7488 23.0093 15.3034 23.2297 17.7809C23.4501 20.285 24.9584 22.6617 27.4359 23.8991C27.4324 23.9068 27.4288 23.9145 27.4253 23.9222C26.8948 25.0777 26.5411 25.8482 25.7577 27.0432C25.1071 28.0336 24.3344 29.1171 23.4846 29.9323C22.6349 30.7475 21.7347 31.2627 20.8292 31.2706C19.9555 31.2786 19.4589 31.0184 18.7048 30.6758C17.9506 30.3333 16.9761 29.9403 15.4758 29.9535C13.9781 29.9615 12.9902 30.3386 12.2255 30.6758C11.4607 31.0131 10.9588 31.2786 10.0799 31.2706C9.15045 31.2627 8.28743 30.8113 7.46689 30.0598C6.64636 29.3083 5.90548 28.2833 5.25755 27.2981C1.68862 21.8597 1.40183 15.4707 3.45184 12.3213C4.95483 10.0084 8.86897 8.68864 9.4638 8.68864Z" fill="white"/>
<path d="M9.4638 8.68864C10.0586 8.68864 11.4395 8.97277 12.3742 9.3047C13.3089 9.63664 14.2941 10.027 15.4545 10.027C16.5884 10.027 17.4859 9.63398 18.3649 9.3047C19.2438 8.97543 20.1201 8.68864 21.424 8.68864C23.1261 8.68864 24.9664 9.57291 26.4162 11.1104C24.0954 12.7488 23.0093 15.3034 23.2297 17.7809C23.4501 20.285 24.9584 22.6617 27.4359 23.8991L27.4253 23.9222C26.8948 25.0777 26.5411 25.8482 25.7577 27.0432C25.1071 28.0336 24.3344 29.1171 23.4846 29.9323C22.6349 30.7475 21.7347 31.2627 20.8292 31.2706C19.9555 31.2786 19.4589 31.0184 18.7048 30.6758C17.9506 30.3333 16.9761 29.9403 15.4758 29.9535C13.9781 29.9615 12.9902 30.3386 12.2255 30.6758C11.4607 31.0131 10.9588 31.2786 10.0799 31.2706C9.15045 31.2627 8.28743 30.8113 7.46689 30.0598C6.64636 29.3083 5.90548 28.2833 5.25755 27.2981C1.68862 21.8597 1.40183 15.4707 3.45184 12.3213C4.95483 10.0084 8.86897 8.68864 9.4638 8.68864Z" fill="white"/>
<path d="M20.0431 1.6145C19.998 2.98737 19.528 4.33103 18.7473 5.33214C17.9294 6.3837 16.5539 7.1113 15.2208 7.32904C15.2447 6.00928 15.7652 4.64172 16.5592 3.67513C17.393 2.66606 18.7738 1.93847 20.0431 1.6145Z" fill="white"/>
</svg>
