<svg width="169" height="50" viewBox="0 0 169 50" fill="none" xmlns="http://www.w3.org/2000/svg">
<path d="M7.03919 0.774414C5.35902 0.774414 3.74766 1.44186 2.5596 2.62992C1.37155 3.81798 0.704102 5.42933 0.704102 7.1095V42.3044C0.704102 43.9846 1.37155 45.5959 2.5596 46.784C3.74766 47.972 5.35902 48.6395 7.03919 48.6395H161.897C163.577 48.6395 165.188 47.972 166.376 46.784C167.564 45.5959 168.232 43.9846 168.232 42.3044V7.1095C168.232 5.42933 167.564 3.81798 166.376 2.62992C165.188 1.44186 163.577 0.774414 161.897 0.774414H7.03919Z" fill="#0A0B09" stroke="#B0B2B7" stroke-width="1.4078"/>
<path d="M34.2886 23.7115C34.3052 22.5632 34.6133 21.4378 35.1838 20.441C35.7543 19.4443 36.5687 18.6087 37.5505 18.0128C36.9216 17.1253 36.0954 16.3959 35.1368 15.8819C34.1782 15.368 33.1134 15.0834 32.0263 15.0508C29.7006 14.8086 27.4481 16.4304 26.2627 16.4304C25.0549 16.4304 23.2318 15.0747 21.2679 15.1155C20.0006 15.1541 18.7648 15.519 17.6799 16.175C16.595 16.8311 15.6978 17.756 15.075 18.8603C12.3988 23.4553 14.395 30.2099 16.96 33.9251C18.2425 35.744 19.7432 37.7768 21.7043 37.705C23.6245 37.6248 24.3425 36.4901 26.6597 36.4901C28.9559 36.4901 29.6302 37.705 31.6307 37.6586C33.6917 37.6248 34.9897 35.8313 36.2285 33.9955C37.1497 32.7005 37.8592 31.2673 38.3304 29.7496C37.1372 29.2528 36.1173 28.4148 35.3985 27.3406C34.6797 26.2665 34.2927 25.004 34.2886 23.7115ZM30.5072 12.6083C31.6297 11.2748 32.1837 9.55397 32.0502 7.81612C30.3373 7.99319 28.753 8.80594 27.61 10.0939C27.0538 10.7201 26.6275 11.4504 26.3556 12.2426C26.0837 13.0347 25.9718 13.873 26.0262 14.7087C26.8831 14.7184 27.731 14.5345 28.5069 14.1708C29.2828 13.8072 29.9666 13.273 30.5072 12.6083ZM58.5604 33.0987H52.0085L50.4346 37.7064H47.6584L53.8668 20.6609H56.7486L62.957 37.7064H60.1329L58.5604 33.0987ZM52.6871 30.973H57.8819L55.3197 23.4962H55.2493L52.6871 30.973ZM76.3592 31.4924C76.3592 35.3554 74.2756 37.836 71.1292 37.836C70.3345 37.8785 69.5437 37.6973 68.8467 37.3131C68.1497 36.9289 67.5744 36.357 67.186 35.6623H67.1268V41.8172H64.5534V25.2784H67.0438V27.3465H67.0917C67.4974 26.655 68.0822 26.0859 68.7844 25.6992C69.4866 25.3124 70.2801 25.1223 71.0813 25.1489C74.263 25.1489 76.3592 27.6421 76.3592 31.4924ZM73.7153 31.4924C73.7153 28.9767 72.4047 27.3225 70.4028 27.3225C68.4375 27.3225 67.1156 29.0119 67.1156 31.4924C67.1156 33.9983 68.4389 35.6736 70.4028 35.6736C72.4047 35.6736 73.7153 34.0321 73.7153 31.4924ZM90.1556 31.4924C90.1556 35.3554 88.0692 37.836 84.9242 37.836C84.1295 37.8785 83.3387 37.6973 82.6417 37.3131C81.9447 36.9289 81.3694 36.357 80.981 35.6623H80.9204V41.8172H78.3484V25.2784H80.8388V27.3465H80.8852C81.2911 26.6548 81.8761 26.0856 82.5786 25.6988C83.281 25.312 84.0749 25.122 84.8763 25.1489C88.058 25.1489 90.1556 27.6421 90.1556 31.4924ZM87.5089 31.4924C87.5089 28.9767 86.1997 27.3225 84.1978 27.3225C82.2325 27.3225 80.9106 29.0119 80.9106 31.4924C80.9106 33.9983 82.2325 35.6736 84.1978 35.6736C86.1983 35.6736 87.5089 34.0321 87.5089 31.4924ZM99.2711 32.9565C99.4625 34.6459 101.118 35.7581 103.382 35.7581C105.55 35.7581 107.11 34.6459 107.11 33.1227C107.11 31.7993 106.169 31.0082 103.942 30.4647L101.714 29.9326C98.5559 29.1766 97.0904 27.7125 97.0904 25.3376C97.0904 22.3967 99.6751 20.3765 103.347 20.3765C106.979 20.3765 109.469 22.3967 109.552 25.3376H106.956C106.801 23.6369 105.382 22.6106 103.31 22.6106C101.238 22.6106 99.8187 23.6482 99.8187 25.1602C99.8187 26.3652 100.725 27.0748 102.94 27.6182L104.835 28.0785C108.361 28.9063 109.827 30.3113 109.827 32.8045C109.827 35.9932 107.265 37.9894 103.19 37.9894C99.3781 37.9894 96.8046 36.0396 96.6385 32.9565H99.2711ZM115.379 22.3375V25.2798H117.762V27.2986H115.379V34.1504C115.379 35.2147 115.858 35.7102 116.904 35.7102C117.187 35.7046 117.47 35.6849 117.75 35.6511V37.6586C117.279 37.746 116.8 37.7856 116.321 37.7768C113.784 37.7768 112.794 36.8322 112.794 34.4221V27.2986H110.973V25.2784H112.794V22.3375H115.379ZM119.142 31.4924C119.142 27.583 121.465 25.1264 125.087 25.1264C128.721 25.1264 131.032 27.583 131.032 31.4924C131.032 35.4146 128.733 37.8599 125.087 37.8599C121.442 37.8599 119.142 35.4146 119.142 31.4924ZM128.411 31.4924C128.411 28.8106 127.172 27.2268 125.087 27.2268C123.004 27.2268 121.765 28.8233 121.765 31.4924C121.765 34.1856 123.004 35.7581 125.087 35.7581C127.171 35.7581 128.411 34.1856 128.411 31.4924ZM133.154 25.2784H135.608V27.3943H135.667C135.836 26.731 136.228 26.1459 136.777 25.7371C137.326 25.3283 137.998 25.1206 138.682 25.1489C138.978 25.1489 139.274 25.1799 139.564 25.2446V27.6294C139.189 27.5158 138.799 27.4635 138.408 27.4746C138.034 27.4593 137.662 27.5246 137.316 27.666C136.97 27.8074 136.659 28.0215 136.403 28.2939C135.888 28.843 135.641 29.5891 135.727 30.3352V37.7064H133.154V25.2784ZM151.424 34.056C151.078 36.3113 148.862 37.8599 146.028 37.8599C142.382 37.8599 140.118 35.4385 140.118 31.553C140.118 27.6534 142.395 25.1264 145.918 25.1264C149.387 25.1264 151.568 27.4873 151.568 31.2559V32.1288H142.716V32.2836C142.633 33.2085 142.955 34.125 143.6 34.7979C143.92 35.1317 144.307 35.3939 144.736 35.5674C145.165 35.7409 145.625 35.8217 146.087 35.8045C146.694 35.8621 147.302 35.7233 147.823 35.4084C148.345 35.0936 148.751 34.6194 148.982 34.056H151.424ZM142.728 30.3465H148.993C149.016 29.9347 148.953 29.5228 148.808 29.1367C148.663 28.7506 148.439 28.3989 148.151 28.1039C147.861 27.8073 147.514 27.5735 147.13 27.4168C146.746 27.2601 146.334 27.1839 145.92 27.193C145.075 27.1877 144.263 27.5178 143.662 28.1109C143.062 28.7022 142.726 29.5074 142.728 30.3465ZM51.8213 8.1385C52.3671 8.09948 52.9148 8.18259 53.4245 8.38179C53.9342 8.58099 54.3931 8.89127 54.7678 9.29008C55.1441 9.69045 55.4272 10.169 55.5971 10.6915C55.767 11.214 55.8193 11.7675 55.7505 12.3126C55.7505 14.9959 54.3089 16.5388 51.8213 16.5388H48.8044V8.13709L51.8213 8.1385ZM50.101 15.3506H51.6763C52.0664 15.3738 52.4568 15.3093 52.8188 15.1619C53.1808 15.0146 53.5052 14.788 53.7683 14.4989C54.3018 13.9133 54.5454 13.1165 54.4299 12.3295C54.4827 11.9431 54.4497 11.5498 54.3334 11.1776C54.2171 10.8053 54.0203 10.4633 53.757 10.1756C53.4948 9.88858 53.1721 9.66342 52.8123 9.51637C52.4525 9.36931 52.0644 9.30404 51.6763 9.32527H50.101V15.3506ZM57.216 13.3657C57.1625 12.8098 57.2649 12.25 57.5115 11.749C57.7582 11.248 58.1394 10.8256 58.6125 10.5289C59.0847 10.2338 59.6303 10.0772 60.1871 10.0772C60.7439 10.0772 61.2896 10.2338 61.7617 10.5289C62.2351 10.8254 62.6166 11.2478 62.8635 11.7488C63.1104 12.2498 63.213 12.8097 63.1597 13.3657C63.2143 13.9226 63.1125 14.4838 62.8658 14.9861C62.6191 15.4885 62.2373 15.9121 61.7631 16.2094C61.2907 16.5051 60.7445 16.662 60.1871 16.662C59.6297 16.662 59.0836 16.5051 58.6111 16.2094C58.1372 15.9119 57.7556 15.4882 57.5092 14.9859C57.2627 14.4836 57.1612 13.9225 57.216 13.3657ZM61.88 13.3657C61.88 11.9916 61.2662 11.1878 60.1906 11.1878C59.108 11.1878 58.5013 11.9916 58.5013 13.3657C58.5013 14.7509 59.108 15.5477 60.1906 15.5477C61.2662 15.5477 61.88 14.7453 61.88 13.3657ZM71.0602 16.5388H69.7707L68.4671 11.8692H68.3685L67.0734 16.5388H65.7937L64.0578 10.1995H65.3192L66.4483 15.0367H66.5412L67.8364 10.1995H69.0288L70.324 15.0367H70.4225L71.5473 10.1995H72.7904L71.0602 16.5388ZM74.2517 10.1995H75.4483V11.2061H75.5427C75.6992 10.8455 75.9645 10.5429 76.3015 10.3405C76.6384 10.1381 77.0302 10.046 77.4221 10.077C78.0443 10.0306 78.6525 10.2699 79.0762 10.7288C79.5014 11.1864 79.6956 11.8143 79.6041 12.4351V16.5388H78.3596V12.749C78.3596 11.7298 77.9204 11.223 76.9997 11.223C76.5788 11.2033 76.1691 11.3694 75.8805 11.6791C75.5919 11.9888 75.4511 12.4083 75.4948 12.8293V16.5388H74.2517V10.1995ZM81.5863 7.72461H82.8294V16.5374H81.5863V7.72461ZM84.5582 13.3657C84.5049 12.8097 84.6074 12.2498 84.8543 11.7488C85.1012 11.2478 85.4827 10.8254 85.9561 10.5289C86.4283 10.2338 86.9739 10.0772 87.5307 10.0772C88.0876 10.0772 88.6332 10.2338 89.1054 10.5289C89.5787 10.8254 89.9602 11.2478 90.2071 11.7488C90.454 12.2498 90.5566 12.8097 90.5033 13.3657C90.5579 13.9226 90.4562 14.4838 90.2095 14.9861C89.9628 15.4885 89.5809 15.9121 89.1068 16.2094C88.6343 16.5051 88.0881 16.662 87.5307 16.662C86.9733 16.662 86.4272 16.5051 85.9547 16.2094C85.4806 15.9121 85.0987 15.4885 84.852 14.9861C84.6053 14.4838 84.5036 13.9226 84.5582 13.3657ZM89.2236 13.3657C89.2236 11.9916 88.6098 11.1878 87.5329 11.1878C86.4517 11.1878 85.8435 11.9916 85.8435 13.3657C85.8435 14.7509 86.4517 15.5477 87.5329 15.5477C88.6098 15.5477 89.2236 14.7453 89.2236 13.3657ZM91.8126 14.7453C91.8126 13.605 92.6572 12.9461 94.1565 12.8532L95.8628 12.7547V12.2056C95.8628 11.5369 95.4236 11.1582 94.5732 11.1582C93.8792 11.1582 93.3977 11.4144 93.2598 11.8621H92.0561C92.1828 10.7739 93.2006 10.0742 94.631 10.0742C96.2105 10.0742 97.1016 10.8668 97.1016 12.2056V16.5374H95.905V15.6463H95.8065C95.6076 15.9653 95.3274 16.2257 94.9947 16.4006C94.6619 16.5756 94.2885 16.6587 93.913 16.6416C93.378 16.6979 92.8445 16.5233 92.4447 16.1629C92.246 15.9836 92.087 15.7647 91.9779 15.5204C91.8688 15.276 91.812 15.0115 91.8111 14.7439L91.8126 14.7453ZM95.8628 14.2047V13.674L94.3241 13.7725C93.4569 13.8316 93.0627 14.1287 93.0627 14.6876C93.0627 15.2577 93.5554 15.5886 94.2311 15.5886C94.6324 15.6308 95.0322 15.5055 95.3391 15.2451C95.6474 14.9832 95.836 14.6087 95.8628 14.2033V14.2047ZM98.7361 13.3657C98.7361 11.3624 99.7596 10.0939 101.352 10.0939C101.746 10.0761 102.138 10.1713 102.48 10.3683C102.823 10.5653 103.102 10.856 103.285 11.2061H103.378V7.72461H104.622V16.5374H103.43V15.5379H103.331C103.134 15.8855 102.845 16.1724 102.496 16.3672C102.147 16.5621 101.751 16.6575 101.352 16.643C99.7497 16.643 98.7361 15.3746 98.7361 13.3657ZM100.021 13.3657C100.021 14.7101 100.651 15.5196 101.705 15.5196C102.753 15.5196 103.402 14.6988 103.402 13.3713C103.402 12.0508 102.747 11.2174 101.705 11.2174C100.658 11.2174 100.021 12.0339 100.021 13.3657ZM109.766 13.3657C109.713 12.8095 109.816 12.2496 110.063 11.7485C110.31 11.2475 110.692 10.8252 111.166 10.5289C111.638 10.234 112.183 10.0777 112.739 10.0777C113.296 10.0777 113.841 10.234 114.313 10.5289C114.787 10.8254 115.168 11.2478 115.415 11.7488C115.662 12.2498 115.765 12.8097 115.711 13.3657C115.766 13.9226 115.664 14.4838 115.417 14.9861C115.171 15.4885 114.789 15.9121 114.315 16.2094C113.842 16.5051 113.296 16.662 112.739 16.662C112.181 16.662 111.635 16.5051 111.163 16.2094C110.689 15.9119 110.307 15.4882 110.061 14.9859C109.814 14.4836 109.711 13.9225 109.766 13.3657ZM114.432 13.3657C114.432 11.9916 113.818 11.1878 112.742 11.1878C111.66 11.1878 111.053 11.9916 111.053 13.3657C111.053 14.7509 111.66 15.5477 112.742 15.5477C113.818 15.5477 114.432 14.7453 114.432 13.3657ZM117.38 10.1995H118.576V11.2061H118.67C118.827 10.8453 119.093 10.5425 119.43 10.3401C119.767 10.1376 120.159 10.0457 120.551 10.077C121.171 10.0306 121.78 10.2699 122.205 10.7288C122.629 11.1864 122.824 11.8143 122.732 12.4351V16.5388H121.489V12.749C121.489 11.7298 121.048 11.223 120.129 11.223C119.707 11.2033 119.298 11.3694 119.01 11.6791C118.72 11.9888 118.579 12.4083 118.624 12.8293V16.5388H117.38V10.1995ZM129.76 8.62138V10.2277H131.125V11.2821H129.76V14.5412C129.76 15.2056 130.031 15.4971 130.651 15.4971C130.81 15.4971 130.968 15.4858 131.125 15.4675V16.5093C130.901 16.5501 130.675 16.5712 130.45 16.574C129.066 16.574 128.515 16.0841 128.515 14.8621V11.2821H127.516V10.2277H128.515V8.62138H129.76ZM132.824 7.72461H134.058V11.2174H134.156C134.494 10.4712 135.263 10.0165 136.076 10.0827C136.382 10.0659 136.687 10.117 136.971 10.2324C137.254 10.3477 137.508 10.5245 137.715 10.75C138.135 11.2075 138.33 11.8297 138.247 12.4464V16.5388H137.003V12.7547C137.003 11.7411 136.534 11.2286 135.654 11.2286C135.44 11.2111 135.225 11.2408 135.024 11.3154C134.823 11.3901 134.641 11.508 134.49 11.6608C134.184 11.9705 134.03 12.4013 134.068 12.8363V16.5388H132.824V7.72461ZM145.499 14.8269C145.332 15.4051 144.967 15.9059 144.467 16.2414C143.968 16.5769 143.366 16.7256 142.768 16.6613C142.352 16.672 141.94 16.5919 141.558 16.4265C141.177 16.2612 140.836 16.0146 140.56 15.704C140.283 15.3918 140.076 15.0231 139.954 14.6233C139.833 14.2235 139.799 13.8021 139.856 13.3882C139.801 12.9732 139.836 12.5512 139.957 12.1506C140.078 11.7499 140.284 11.3799 140.56 11.0653C140.835 10.752 141.174 10.5015 141.554 10.331C141.934 10.1604 142.347 10.0738 142.764 10.077C144.516 10.077 145.575 11.2821 145.575 13.2727V13.7092H141.125V13.7795C141.085 14.2497 141.245 14.7143 141.564 15.0606C141.884 15.407 142.334 15.6012 142.803 15.5956C143.411 15.6688 144.004 15.3647 144.302 14.8269H145.499ZM141.125 12.7842H144.306C144.323 12.5717 144.294 12.3582 144.223 12.1573C144.152 11.9563 144.04 11.7724 143.894 11.6172C143.748 11.4626 143.572 11.3404 143.376 11.2584C143.18 11.1764 142.969 11.1365 142.756 11.1413C142.541 11.1388 142.327 11.1796 142.128 11.2614C141.929 11.3431 141.748 11.4641 141.596 11.6172C141.29 11.9269 141.118 12.3464 141.125 12.7842Z" fill="white"/>
</svg>
