<svg width="41" height="60" viewBox="0 0 41 60" fill="none" xmlns="http://www.w3.org/2000/svg">
<path d="M5.5127 12.3242H33.8184H35.1855C36.7041 12.3242 38.0811 12.9443 39.082 13.9453C40.083 14.9463 40.7031 16.3232 40.7031 17.8418V51.543C40.7031 53.0615 40.083 54.4385 39.082 55.4395C38.0908 56.4258 36.7334 57.0459 35.2344 57.0557V58.0371C35.2344 59.1211 34.3506 60.0049 33.2666 60.0049C32.1826 60.0049 31.2988 59.1211 31.2988 58.0371V57.0605H9.4043V58.0371C9.4043 59.1211 8.52051 60.0049 7.43652 60.0049C6.35254 60.0049 5.46875 59.1211 5.46875 58.0371V57.0557C3.96973 57.041 2.60742 56.4258 1.62109 55.4395C0.620117 54.4336 0 53.0566 0 51.5381V17.8369C0 16.3184 0.620117 14.9414 1.62109 13.9404C2.61719 12.9443 3.99902 12.3242 5.5127 12.3242ZM8.6084 0H32.2607C32.5342 0 32.7588 0.224609 32.7588 0.498047V3.70117C32.7588 3.97461 32.5342 4.19922 32.2607 4.19922H28.7109V10.7422H26.6211V4.19434H14.4775V10.7422H12.3877V4.19434H8.6084C8.33496 4.19434 8.11035 3.96973 8.11035 3.69629V0.498047C8.11523 0.224609 8.33984 0 8.6084 0ZM24.209 22.4121V24.9072C24.209 25.1465 24.1113 25.3662 23.9551 25.5225C23.7939 25.6787 23.5791 25.7812 23.3398 25.7812H17.9199C17.6807 25.7812 17.4609 25.6836 17.3047 25.5273C17.1484 25.3711 17.0508 25.1514 17.0508 24.9121V22.4121H12.5391C11.2939 22.4121 10.2979 21.9287 9.52148 21.1523C8.67188 20.3027 8.11035 19.1064 7.77344 17.8418L6.77246 14.0479H5.5127C4.47266 14.0479 3.52539 14.4727 2.83691 15.1611C2.14844 15.8496 1.72363 16.7969 1.72363 17.8369V51.5381C1.72363 52.5781 2.14844 53.5254 2.83691 54.2139C3.52539 54.9023 4.47266 55.3271 5.5127 55.3271H35.1855C36.2256 55.3271 37.1729 54.9023 37.8613 54.2139C38.5498 53.5254 38.9746 52.5781 38.9746 51.5381V17.8369C38.9746 16.7969 38.5498 15.8496 37.8613 15.1611C37.1729 14.4727 36.2256 14.0479 35.1855 14.0479H34.5166L33.7158 17.8027C33.4424 19.082 32.8809 20.2783 32.0312 21.1279C31.2354 21.9238 30.2051 22.417 28.9453 22.417H24.209V22.4121ZM8.95508 49.0283C8.48145 49.0283 8.0957 48.6426 8.0957 48.1689C8.0957 47.6953 8.48145 47.3096 8.95508 47.3096H31.875C32.3486 47.3096 32.7344 47.6953 32.7344 48.1689C32.7344 48.6426 32.3486 49.0283 31.875 49.0283H8.95508ZM8.95508 40.708C8.48145 40.708 8.0957 40.3223 8.0957 39.8486C8.0957 39.375 8.48145 38.9893 8.95508 38.9893H31.875C32.3486 38.9893 32.7344 39.375 32.7344 39.8486C32.7344 40.3223 32.3486 40.708 31.875 40.708H8.95508ZM8.95508 32.3877C8.48145 32.3877 8.0957 32.002 8.0957 31.5283C8.0957 31.0547 8.48145 30.6689 8.95508 30.6689H31.875C32.3486 30.6689 32.7344 31.0547 32.7344 31.5283C32.7344 32.002 32.3486 32.3877 31.875 32.3877H8.95508ZM8.55469 14.0479L9.43848 17.4023C9.70215 18.3984 10.1221 19.3164 10.7422 19.9316C11.2061 20.3955 11.8018 20.6885 12.5391 20.6885H28.9502C29.7119 20.6885 30.3369 20.3857 30.8203 19.9023C31.4258 19.2969 31.8359 18.4082 32.041 17.4414L32.7637 14.043H8.55469V14.0479Z" fill="#A18552"/>
</svg>
