<svg width="21" height="21" viewBox="0 0 21 21" fill="none" xmlns="http://www.w3.org/2000/svg">
<g clip-path="url(#clip0_0_2222)">
<path d="M20.343 12.0297C20.343 14.2705 19.684 16.2696 18.3659 18.0271C18.2341 18.2028 18.0583 18.3017 17.8386 18.3237C17.6189 18.3456 17.4212 18.2907 17.2455 18.1589C17.0697 18.0271 16.9709 17.8623 16.9489 17.6646C16.9269 17.4669 16.9818 17.2802 17.1137 17.1044C18.256 15.6105 18.8272 13.919 18.8272 12.0297C18.8272 10.5358 18.4537 9.15176 17.7068 7.87759C16.9599 6.6034 15.9383 5.59285 14.6422 4.84592C13.346 4.09898 11.951 3.72552 10.4572 3.72552C8.9633 3.72552 7.56829 4.09898 6.27215 4.84592C4.976 5.59285 3.95446 6.6034 3.20752 7.87759C2.46059 9.15176 2.08712 10.5358 2.08712 12.0297C2.08712 13.919 2.65831 15.6105 3.80068 17.1044C3.93249 17.2802 3.98741 17.4669 3.96544 17.6646C3.94347 17.8623 3.84461 18.0271 3.66886 18.1589C3.49312 18.2907 3.2954 18.3456 3.07571 18.3237C2.85603 18.3017 2.68028 18.2028 2.54846 18.0271C1.23035 16.2696 0.571289 14.2705 0.571289 12.0297C0.571289 10.2722 1.01066 8.6355 1.88941 7.11967C2.76815 5.60383 3.96544 4.40654 5.48128 3.5278C6.99711 2.64905 8.65574 2.20968 10.4572 2.20968C12.2586 2.20968 13.9172 2.64905 15.4331 3.5278C16.9489 4.40654 18.1462 5.60383 19.0249 7.11967C19.9037 8.6355 20.343 10.2722 20.343 12.0297ZM15.3342 7.41624C15.5099 7.54806 15.5978 7.7238 15.5978 7.94349C15.5978 8.16318 15.5099 8.33893 15.3342 8.47074L12.8298 11.0411C13.0495 11.4365 13.1593 11.8539 13.1593 12.2933C13.1593 13.0402 12.8957 13.6773 12.3684 14.2045C11.8412 14.7318 11.2041 14.9954 10.4572 14.9954C9.71023 14.9954 9.07314 14.7318 8.5459 14.2045C8.01865 13.6773 7.75503 13.0402 7.75503 12.2933C7.75503 11.5463 8.01865 10.9093 8.5459 10.382C9.07314 9.85476 9.71023 9.59114 10.4572 9.59114C10.8965 9.59114 11.3139 9.70098 11.7094 9.92067L14.2797 7.41624C14.4115 7.24049 14.5873 7.15262 14.807 7.15262C15.0266 7.15262 15.2024 7.24049 15.3342 7.41624ZM11.6435 12.2933C11.6435 11.9857 11.5226 11.7221 11.281 11.5024C11.0393 11.2827 10.7647 11.1729 10.4572 11.1729C10.1496 11.1729 9.875 11.2827 9.63334 11.5024C9.39169 11.7221 9.27086 11.9857 9.27086 12.2933C9.27086 12.6008 9.39169 12.8754 9.63334 13.1171C9.875 13.3588 10.1496 13.4796 10.4572 13.4796C10.7647 13.4796 11.0393 13.3588 11.281 13.1171C11.5226 12.8754 11.6435 12.6008 11.6435 12.2933Z" fill="black"/>
</g>
<defs>
<clipPath id="clip0_0_2222">
<rect width="19.7718" height="19.7718" fill="white" transform="matrix(1 0 0 -1 0.571289 20.1362)"/>
</clipPath>
</defs>
</svg>
