<svg width="21" height="21" viewBox="0 0 21 21" fill="none" xmlns="http://www.w3.org/2000/svg">
<path d="M3.66023 2.20975C3.04511 2.20975 2.51786 2.42943 2.07849 2.8688C1.63912 3.30818 1.41943 3.84641 1.41943 4.4835C1.41943 5.12059 1.63912 5.65882 2.07849 6.09819C2.51786 6.53756 3.04511 6.75725 3.66023 6.75725C4.27535 6.75725 4.8026 6.53756 5.24197 6.09819C5.68134 5.65882 5.90103 5.12059 5.90103 4.4835C5.90103 3.84641 5.68134 3.30818 5.24197 2.8688C4.8026 2.42943 4.27535 2.20975 3.66023 2.20975ZM3.66023 3.46196C3.92386 3.46196 4.16551 3.56081 4.3852 3.75853C4.60488 3.95625 4.71473 4.1979 4.71473 4.4835C4.71473 4.76909 4.60488 5.01074 4.3852 5.20846C4.16551 5.40618 3.92386 5.50504 3.66023 5.50504C3.39661 5.50504 3.15495 5.40618 2.93527 5.20846C2.71558 5.01074 2.60574 4.76909 2.60574 4.4835C2.60574 4.1979 2.71558 3.95625 2.93527 3.75853C3.15495 3.56081 3.39661 3.46196 3.66023 3.46196ZM3.66023 13.7433C3.04511 13.7433 2.51786 13.963 2.07849 14.4023C1.63912 14.8417 1.41943 15.3799 1.41943 16.017C1.41943 16.6541 1.63912 17.1923 2.07849 17.6317C2.51786 18.0711 3.04511 18.2908 3.66023 18.2908C4.27535 18.2908 4.8026 18.0711 5.24197 17.6317C5.68134 17.1923 5.90103 16.6541 5.90103 16.017C5.90103 15.3799 5.68134 14.8417 5.24197 14.4023C4.8026 13.963 4.27535 13.7433 3.66023 13.7433ZM3.66023 14.9955C3.92386 14.9955 4.16551 15.0943 4.3852 15.2921C4.60488 15.4898 4.71473 15.7314 4.71473 16.017C4.71473 16.3026 4.60488 16.5443 4.3852 16.742C4.16551 16.9397 3.92386 17.0386 3.66023 17.0386C3.39661 17.0386 3.15495 16.9397 2.93527 16.742C2.71558 16.5443 2.60574 16.3026 2.60574 16.017C2.60574 15.7314 2.71558 15.4898 2.93527 15.2921C3.15495 15.0943 3.39661 14.9955 3.66023 14.9955ZM10.2508 2.20975C9.6357 2.20975 9.10845 2.42943 8.66908 2.8688C8.2297 3.30818 8.01002 3.84641 8.01002 4.4835C8.01002 5.12059 8.2297 5.65882 8.66908 6.09819C9.10845 6.53756 9.6357 6.75725 10.2508 6.75725C10.8659 6.75725 11.3932 6.53756 11.8326 6.09819C12.2719 5.65882 12.4916 5.12059 12.4916 4.4835C12.4916 3.84641 12.2719 3.30818 11.8326 2.8688C11.3932 2.42943 10.8659 2.20975 10.2508 2.20975ZM10.2508 3.46196C10.5144 3.46196 10.7561 3.56081 10.9758 3.75853C11.1955 3.95625 11.3053 4.1979 11.3053 4.4835C11.3053 4.76909 11.1955 5.01074 10.9758 5.20846C10.7561 5.40618 10.5144 5.50504 10.2508 5.50504C9.98719 5.50504 9.74554 5.40618 9.52585 5.20846C9.30617 5.01074 9.19632 4.76909 9.19632 4.4835C9.19632 4.1979 9.30617 3.95625 9.52585 3.75853C9.74554 3.56081 9.98719 3.46196 10.2508 3.46196ZM10.2508 13.7433C9.6357 13.7433 9.10845 13.963 8.66908 14.4023C8.2297 14.8417 8.01002 15.3799 8.01002 16.017C8.01002 16.6541 8.2297 17.1923 8.66908 17.6317C9.10845 18.0711 9.6357 18.2908 10.2508 18.2908C10.8659 18.2908 11.3932 18.0711 11.8326 17.6317C12.2719 17.1923 12.4916 16.6541 12.4916 16.017C12.4916 15.3799 12.2719 14.8417 11.8326 14.4023C11.3932 13.963 10.8659 13.7433 10.2508 13.7433ZM10.2508 14.9955C10.5144 14.9955 10.7561 15.0943 10.9758 15.2921C11.1955 15.4898 11.3053 15.7314 11.3053 16.017C11.3053 16.3026 11.1955 16.5443 10.9758 16.742C10.7561 16.9397 10.5144 17.0386 10.2508 17.0386C9.98719 17.0386 9.74554 16.9397 9.52585 16.742C9.30617 16.5443 9.19632 16.3026 9.19632 16.017C9.19632 15.7314 9.30617 15.4898 9.52585 15.2921C9.74554 15.0943 9.98719 14.9955 10.2508 14.9955ZM16.8414 2.20975C16.2263 2.20975 15.699 2.42943 15.2597 2.8688C14.8203 3.30818 14.6006 3.84641 14.6006 4.4835C14.6006 5.12059 14.8203 5.65882 15.2597 6.09819C15.699 6.53756 16.2263 6.75725 16.8414 6.75725C17.4565 6.75725 17.9838 6.53756 18.4231 6.09819C18.8625 5.65882 19.0822 5.12059 19.0822 4.4835C19.0822 3.84641 18.8625 3.30818 18.4231 2.8688C17.9838 2.42943 17.4565 2.20975 16.8414 2.20975ZM16.8414 3.46196C17.105 3.46196 17.3467 3.56081 17.5664 3.75853C17.7861 3.95625 17.8959 4.1979 17.8959 4.4835C17.8959 4.76909 17.7861 5.01074 17.5664 5.20846C17.3467 5.40618 17.105 5.50504 16.8414 5.50504C16.5778 5.50504 16.3361 5.40618 16.1164 5.20846C15.8968 5.01074 15.7869 4.76909 15.7869 4.4835C15.7869 4.1979 15.8968 3.95625 16.1164 3.75853C16.3361 3.56081 16.5778 3.46196 16.8414 3.46196ZM16.8414 13.7433C16.2263 13.7433 15.699 13.963 15.2597 14.4023C14.8203 14.8417 14.6006 15.3799 14.6006 16.017C14.6006 16.6541 14.8203 17.1923 15.2597 17.6317C15.699 18.0711 16.2263 18.2908 16.8414 18.2908C17.4565 18.2908 17.9838 18.0711 18.4231 17.6317C18.8625 17.1923 19.0822 16.6541 19.0822 16.017C19.0822 15.3799 18.8625 14.8417 18.4231 14.4023C17.9838 13.963 17.4565 13.7433 16.8414 13.7433ZM16.8414 14.9955C17.105 14.9955 17.3467 15.0943 17.5664 15.2921C17.7861 15.4898 17.8959 15.7314 17.8959 16.017C17.8959 16.3026 17.7861 16.5443 17.5664 16.742C17.3467 16.9397 17.105 17.0386 16.8414 17.0386C16.5778 17.0386 16.3361 16.9397 16.1164 16.742C15.8968 16.5443 15.7869 16.3026 15.7869 16.017C15.7869 15.7314 15.8968 15.4898 16.1164 15.2921C16.3361 15.0943 16.5778 14.9955 16.8414 14.9955ZM3.06708 6.09819V14.3364C3.06708 14.5122 3.122 14.6659 3.23184 14.7978C3.34169 14.9296 3.48448 14.9955 3.66023 14.9955C3.83598 14.9955 3.97878 14.9296 4.08862 14.7978C4.19846 14.6659 4.25339 14.5341 4.25339 14.4023V6.09819C4.25339 5.96638 4.19846 5.83457 4.08862 5.70275C3.97878 5.57094 3.83598 5.50504 3.66023 5.50504C3.48448 5.50504 3.34169 5.57094 3.23184 5.70275C3.122 5.83457 3.06708 5.96638 3.06708 6.09819ZM9.65766 6.09819V14.3364C9.65766 14.5122 9.71259 14.6659 9.82243 14.7978C9.93227 14.9296 10.0751 14.9955 10.2508 14.9955C10.4266 14.9955 10.5694 14.9296 10.6792 14.7978C10.789 14.6659 10.844 14.5341 10.844 14.4023V6.09819C10.844 5.96638 10.789 5.83457 10.6792 5.70275C10.5694 5.57094 10.4266 5.50504 10.2508 5.50504C10.0751 5.50504 9.93227 5.57094 9.82243 5.70275C9.71259 5.83457 9.65766 5.96638 9.65766 6.09819ZM16.2482 6.09819V9.39348C16.2482 9.48136 16.2263 9.54726 16.1823 9.5912C16.1384 9.63514 16.0945 9.65711 16.0505 9.65711H3.66023C3.48448 9.65711 3.34169 9.71203 3.23184 9.82187C3.122 9.93171 3.06708 10.0745 3.06708 10.2503C3.06708 10.426 3.122 10.5688 3.23184 10.6786C3.34169 10.7885 3.48448 10.8434 3.66023 10.8434H16.0505C16.446 10.8434 16.7755 10.7116 17.0391 10.448C17.3027 10.1844 17.4346 9.83285 17.4346 9.39348V6.1641C17.4346 5.98835 17.3796 5.83457 17.2698 5.70275C17.1599 5.57094 17.0172 5.50504 16.8414 5.50504C16.6657 5.50504 16.5229 5.57094 16.413 5.70275C16.3032 5.83457 16.2482 5.96638 16.2482 6.09819Z" fill="black"/>
</svg>
