<svg width="21" height="21" viewBox="0 0 21 21" fill="none" xmlns="http://www.w3.org/2000/svg">
<g clip-path="url(#clip0_0_2225)">
<path d="M12.4115 4.0552C12.4115 3.87945 12.3566 3.73666 12.2468 3.62681C12.1369 3.51697 11.9941 3.46205 11.8184 3.46205H5.62322C5.44747 3.46205 5.30468 3.51697 5.19484 3.62681C5.08499 3.73666 5.03007 3.87945 5.03007 4.0552V8.99814C5.03007 9.17389 5.08499 9.32767 5.19484 9.45948C5.30468 9.59129 5.44747 9.6572 5.62322 9.6572H11.8184C11.9941 9.6572 12.1369 9.59129 12.2468 9.45948C12.3566 9.32767 12.4115 9.17389 12.4115 8.99814V4.0552ZM11.1593 8.40499H6.21638V4.71426H11.1593V8.40499ZM19.5294 4.71426L17.0249 3.52796C16.8931 3.44008 16.7393 3.41811 16.5636 3.46205C16.3878 3.50599 16.267 3.60485 16.2011 3.75863C16.1352 3.91241 16.1242 4.07717 16.1682 4.25292C16.2121 4.42867 16.3219 4.53851 16.4977 4.58245L17.4204 5.1097L17.3545 5.30741C17.3545 5.70285 17.4753 6.05435 17.7169 6.36191C17.9586 6.66947 18.2552 6.88915 18.6067 7.02097V14.5342C18.6067 14.71 18.5408 14.8638 18.409 14.9956C18.2771 15.1274 18.1343 15.1933 17.9806 15.1933C17.8268 15.1933 17.684 15.1274 17.5522 14.9956C17.4204 14.8638 17.3545 14.71 17.3545 14.5342V9.59129C17.3545 8.8883 17.1018 8.25121 16.5965 7.68002C16.0913 7.10884 15.5311 6.75734 14.9159 6.62553V2.80299C14.9159 2.14393 14.6743 1.57275 14.191 1.08944C13.7077 0.606129 13.1365 0.364473 12.4774 0.364473H5.03007C4.37101 0.364473 3.78884 0.606129 3.28357 1.08944C2.77829 1.57275 2.52565 2.14393 2.52565 2.80299V16.6432L1.66887 17.1046C1.40525 17.2364 1.27344 17.4121 1.27344 17.6318V19.4772C1.27344 19.6529 1.33934 19.8067 1.47116 19.9385C1.60297 20.0703 1.75675 20.1362 1.9325 20.1362H15.5091C15.6848 20.1362 15.8276 20.0703 15.9375 19.9385C16.0473 19.8067 16.1023 19.6529 16.1023 19.4772V17.6318C16.1023 17.4121 15.9924 17.2364 15.7727 17.1046L14.9159 16.6432V7.87774C15.2235 8.00955 15.4981 8.24022 15.7398 8.56975C15.9814 8.89928 16.1023 9.2398 16.1023 9.59129V14.5342C16.1023 15.0615 16.289 15.5118 16.6625 15.8853C17.0359 16.2588 17.4753 16.4455 17.9806 16.4455C18.4858 16.4455 18.9252 16.2588 19.2987 15.8853C19.6722 15.5118 19.8589 15.0615 19.8589 14.5342V5.30741C19.8589 5.04379 19.749 4.84607 19.5294 4.71426ZM14.9159 18.884H2.52565V18.0272L3.44833 17.5659C3.66802 17.478 3.77786 17.3023 3.77786 17.0387V2.80299C3.77786 2.49543 3.89869 2.22082 4.14034 1.97917C4.382 1.73751 4.67857 1.61669 5.03007 1.61669H12.4774C12.785 1.61669 13.0596 1.73751 13.3013 1.97917C13.5429 2.22082 13.6637 2.49543 13.6637 2.80299V17.0387C13.6637 17.3023 13.7736 17.478 13.9933 17.5659L14.9159 18.0272V18.884Z" fill="black"/>
</g>
<defs>
<clipPath id="clip0_0_2225">
<rect width="19.7718" height="19.7718" fill="white" transform="matrix(1 0 0 -1 0.680176 20.1362)"/>
</clipPath>
</defs>
</svg>
