<svg width="62" height="60" viewBox="0 0 62 60" fill="none" xmlns="http://www.w3.org/2000/svg">
<g clip-path="url(#clip0_710_3866)">
<path d="M34.6861 2.01832C34.6861 0.909242 35.7802 0 37.144 0C38.5079 0 39.602 0.899251 39.602 2.01832V10.841C39.602 11.95 38.5079 12.8593 37.144 12.8593C35.7802 12.8593 34.6861 11.96 34.6861 10.841V2.01832ZM6.69942 28.5612C6.55953 28.5612 6.43464 27.9467 6.43464 27.1973C6.43464 26.448 6.54455 25.8385 6.69942 25.8385H13.4138C13.5537 25.8385 13.6786 26.453 13.6786 27.1973C13.6786 27.9467 13.5687 28.5612 13.4138 28.5612H6.69942ZM17.3955 28.5612C17.2556 28.5612 17.1307 27.9467 17.1307 27.1973C17.1307 26.448 17.2406 25.8385 17.3955 25.8385H24.1099C24.2498 25.8385 24.3747 26.453 24.3747 27.1973C24.3747 27.9467 24.2648 28.5612 24.1099 28.5612H17.3955ZM28.0966 28.5612C27.9567 28.5612 27.8318 27.9467 27.8318 27.1973C27.8318 26.448 27.9417 25.8385 28.0966 25.8385H34.811C34.9509 25.8385 35.0758 26.448 35.0758 27.1923C34.4013 27.612 33.7569 28.0666 33.1374 28.5612H28.0966ZM6.7144 36.3697C6.57452 36.3697 6.44963 35.7552 6.44963 35.0058C6.44963 34.2565 6.55953 33.642 6.7144 33.642H13.4288C13.5687 33.642 13.6936 34.2565 13.6936 35.0058C13.6936 35.7602 13.5837 36.3697 13.4288 36.3697H6.7144ZM17.4105 36.3697C17.2706 36.3697 17.1457 35.7552 17.1457 35.0058C17.1457 34.2565 17.2556 33.642 17.4105 33.642H24.1249C24.2648 33.642 24.3897 34.2565 24.3897 35.0058C24.3897 35.7602 24.2798 36.3697 24.1249 36.3697H17.4105ZM6.7244 44.1782C6.58451 44.1782 6.45962 43.5637 6.45962 42.8143C6.45962 42.0599 6.56953 41.4505 6.7244 41.4505H13.4388C13.5787 41.4505 13.7036 42.0649 13.7036 42.8143C13.7036 43.5637 13.5937 44.1782 13.4388 44.1782H6.7244ZM17.4255 44.1782C17.2856 44.1782 17.1607 43.5637 17.1607 42.8143C17.1607 42.0599 17.2706 41.4505 17.4255 41.4505H24.1399C24.2798 41.4505 24.4047 42.0649 24.4047 42.8143C24.4047 43.5637 24.2948 44.1782 24.1399 44.1782H17.4255ZM12.5945 2.01832C12.5945 0.904246 13.6886 0 15.0525 0C16.4163 0 17.5104 0.899251 17.5104 2.01832V10.841C17.5104 11.95 16.4113 12.8593 15.0525 12.8593C13.6886 12.8593 12.5945 11.96 12.5945 10.841V2.01832ZM2.70774 19.2889H49.5537V9.13239C49.5537 8.78268 49.4138 8.47794 49.189 8.25812C48.9642 8.03331 48.6445 7.89342 48.3147 7.89342H43.8235C43.0691 7.89342 42.4596 7.27893 42.4596 6.52956C42.4596 5.78018 43.0691 5.1657 43.8235 5.1657H48.3147C49.4138 5.1657 50.403 5.61032 51.1224 6.32973C51.8468 7.05412 52.2864 8.0383 52.2864 9.13739V25.2639C51.3922 24.9542 50.4679 24.7044 49.5237 24.5196V22.0017H49.5537H2.70774V48.3097C2.70774 48.6595 2.84763 48.9642 3.07244 49.184C3.29725 49.4088 3.61699 49.5487 3.94671 49.5487H26.2082C26.4629 50.4929 26.7827 51.4172 27.1624 52.3014H3.97169C2.8776 52.3014 1.88343 51.8568 1.16403 51.1374C0.444629 50.418 0 49.4338 0 48.3347V9.14238C0 8.04829 0.444629 7.05412 1.16403 6.33472C1.88843 5.61032 2.87261 5.17069 3.97169 5.17069H8.76769C9.51707 5.17069 10.1316 5.78518 10.1316 6.53455C10.1316 7.28393 9.51707 7.89842 8.76769 7.89842H3.97169C3.62198 7.89842 3.31724 8.0383 3.09742 8.26311C2.87261 8.48793 2.73272 8.80766 2.73272 9.13739V19.2939L2.70774 19.2889ZM21.4471 7.89342C20.6978 7.89342 20.0833 7.27893 20.0833 6.52956C20.0833 5.78018 20.6978 5.1657 21.4471 5.1657H30.5895C31.3439 5.1657 31.9534 5.78018 31.9534 6.52956C31.9534 7.28393 31.3389 7.89342 30.5895 7.89342H21.4471Z" fill="#A18552"/>
<path fill-rule="evenodd" clip-rule="evenodd" d="M45.5068 28.2417C49.8931 28.2417 53.8648 30.0202 56.7374 32.8928C59.605 35.7704 61.3835 39.7421 61.3835 44.1235C61.3835 48.5048 59.605 52.4815 56.7374 55.3541C53.8598 58.2267 49.8881 60.0052 45.5068 60.0052C41.1254 60.0052 37.1487 58.2267 34.2761 55.3541C31.4035 52.4765 29.625 48.5048 29.625 44.1235C29.625 39.7421 31.4035 35.7654 34.2761 32.8928C37.1487 30.0202 41.1204 28.2417 45.5068 28.2417ZM38.5126 45.8121C38.4377 45.7321 38.3727 45.6472 38.3178 45.5573C38.2578 45.4673 38.2128 45.3724 38.1679 45.2725C38.028 44.9428 37.993 44.5931 38.053 44.2534C38.1129 43.9186 38.2628 43.5989 38.5026 43.3391L38.5925 43.2492C39.187 42.6847 40.0863 42.5798 40.7907 43.0044C40.8906 43.0643 40.9855 43.1343 41.0755 43.2192L41.0854 43.2292C41.585 43.7088 42.4293 44.4932 42.9839 44.9827L43.4585 45.4074L49.2836 39.2975C49.3636 39.2126 49.4535 39.1376 49.5534 39.0727C49.6533 39.0027 49.7532 38.9478 49.8581 38.9028C49.9631 38.8579 50.078 38.8179 50.1929 38.7929C50.3078 38.7679 50.4277 38.7529 50.5426 38.7529H50.5476C50.6625 38.7529 50.7774 38.7579 50.8923 38.7779C51.0072 38.7979 51.1171 38.8279 51.237 38.8728C51.3469 38.9128 51.4518 38.9678 51.5517 39.0277C51.6467 39.0877 51.7366 39.1576 51.8265 39.2425L51.8665 39.2825C51.9464 39.3624 52.0213 39.4524 52.0863 39.5473C52.1512 39.6422 52.2112 39.7471 52.2561 39.852C52.3061 39.9569 52.3411 40.0718 52.3661 40.1867C52.391 40.3017 52.406 40.4166 52.411 40.5365V40.5964C52.411 40.7013 52.401 40.8062 52.381 40.9061C52.3611 41.0161 52.3311 41.131 52.2911 41.2359C52.2511 41.3458 52.1962 41.4507 52.1362 41.5506C52.0763 41.6505 52.0014 41.7405 51.9214 41.8254L44.8773 49.2042C44.7924 49.2942 44.7074 49.3691 44.6125 49.434C44.5176 49.504 44.4127 49.5589 44.3078 49.6089C44.2029 49.6589 44.0879 49.6938 43.973 49.7238C43.8581 49.7538 43.7432 49.7688 43.6233 49.7738H43.5934C43.4835 49.7738 43.3735 49.7688 43.2736 49.7538L43.2486 49.7488C43.1437 49.7288 43.0388 49.7038 42.9389 49.6688C42.829 49.6289 42.7241 49.5789 42.6242 49.519L42.6092 49.509C42.5143 49.449 42.4243 49.3841 42.3394 49.3141L42.3244 49.2992C41.9148 48.9195 41.4701 48.5348 41.0255 48.1451C40.2412 47.4707 39.1621 46.4965 38.5126 45.8121Z" fill="#6BBE66"/>
</g>
<defs>
<clipPath id="clip0_710_3866">
<rect width="61.3888" height="60" fill="white"/>
</clipPath>
</defs>
</svg>
