<svg width="60" height="60" viewBox="0 0 60 60" fill="none" xmlns="http://www.w3.org/2000/svg">
<path d="M56.1601 29.46L45.8401 25.98L40.7401 16.62C39.3601 14.1 36.7201 12.54 33.9001 12.54H15.3001C12.4201 12.54 9.84006 14.1 8.46006 16.62L3.12006 26.4V26.46C3.06006 26.52 3.06006 26.58 3.06006 26.64V41.34C3.06006 42 3.60006 42.54 4.26006 42.54H9.18006C9.72006 45.3 12.1801 47.34 15.0601 47.34C17.9401 47.34 20.4001 45.3 20.9401 42.54H39.1801C39.7201 45.3 42.1801 47.34 45.0601 47.34C47.9401 47.34 50.4001 45.3 50.9401 42.54H55.8001C56.4601 42.54 57.0001 42 57.0001 41.34V30.6C57.0001 30.06 56.7001 29.64 56.1601 29.46ZM22.8001 15H33.9001C35.8801 15 37.6801 16.08 38.6401 17.82L42.9601 25.8H22.8001V15ZM10.5601 17.82C11.5201 16.08 13.3201 15 15.3001 15H20.4001V25.8H6.24006L10.5601 17.82ZM9.12006 40.2H5.40006V37.8H10.2001C9.66006 38.52 9.30006 39.3 9.12006 40.2ZM15.0001 45C13.0201 45 11.4001 43.38 11.4001 41.4C11.4001 39.42 13.0201 37.8 15.0001 37.8C16.9801 37.8 18.6001 39.42 18.6001 41.4C18.6001 43.38 16.9801 45 15.0001 45ZM45.0001 45C43.0201 45 41.4001 43.38 41.4001 41.4C41.4001 39.42 43.0201 37.8 45.0001 37.8C46.9801 37.8 48.6001 39.42 48.6001 41.4C48.6001 43.38 46.9801 45 45.0001 45ZM54.6001 40.2H50.8801C50.3401 37.44 47.8801 35.4 45.0001 35.4C42.1201 35.4 39.6601 37.44 39.1201 40.2H20.8801C20.3401 37.44 17.8801 35.4 15.0001 35.4H5.40006V28.2H44.8201L54.6001 31.44V40.2Z" fill="#A18552"/>
</svg>
