<svg width="58" height="60" viewBox="0 0 58 60" fill="none" xmlns="http://www.w3.org/2000/svg">
<path d="M32.4849 4.89325C38.3299 5.68673 43.5667 8.39536 47.5423 12.3698C52.3091 17.1366 55.258 23.7235 55.258 30.9973C55.258 38.2735 52.3103 44.8604 47.5423 49.6284C46.6165 50.553 45.6238 51.4082 44.5723 52.187L47.765 56.6795C48.4307 57.6382 48.1928 58.9556 47.2329 59.6225C46.273 60.2882 44.9544 60.0503 44.2887 59.0904L40.9741 54.4279C37.3595 56.2927 33.2584 57.3452 28.9113 57.3452C24.4926 57.3452 20.3283 56.2575 16.6715 54.3342L13.555 58.9884C12.9057 59.9589 11.5906 60.2191 10.6201 59.5686C9.64851 58.9193 9.38949 57.6054 10.04 56.6349L13.0955 52.0698C12.1017 51.3231 11.1617 50.5073 10.2826 49.6284C5.51466 44.8604 2.56577 38.2723 2.56577 30.9973C2.56577 23.7224 5.51466 17.1366 10.2826 12.3686C14.5536 8.09883 20.2849 5.29058 26.6609 4.74674C28.589 4.58265 30.5733 4.63422 32.4849 4.89325ZM56.457 16.9631C58.4847 12.1248 58.2432 7.05687 55.3424 3.66142C51.8614 -0.413831 45.5686 -0.88031 39.7235 1.98537C45.9366 6.24698 51.5754 11.2188 56.457 16.9631ZM1.35269 17.1213C-0.714825 12.1917 -0.469865 7.02874 2.48607 3.56882C6.03271 -0.582607 12.445 -1.05846 18.4003 1.86113C12.0712 6.20478 6.32456 11.2681 1.35269 17.1213ZM32.9162 29.0142L40.8452 28.8759C42.0137 28.856 42.9772 29.7854 42.9971 30.954C43.0182 32.1225 42.0876 33.0859 40.919 33.107L32.772 33.2489C31.9973 34.5756 30.558 35.4676 28.9113 35.4676C26.4441 35.4676 24.4434 33.4657 24.4434 30.9985C24.4434 29.2967 25.3963 27.8164 26.7969 27.0627V16.8248C26.7969 15.6563 27.7427 14.7092 28.9113 14.7092C30.0798 14.7092 31.028 15.6563 31.028 16.8248V27.0627C31.8437 27.5028 32.5032 28.1845 32.9162 29.0142ZM44.5512 15.3597C40.5498 11.3583 35.0201 8.88293 28.9125 8.88293C22.806 8.88293 17.2763 11.3583 13.2749 15.3597C9.27228 19.3611 6.7969 24.8909 6.7969 30.9985C6.7969 37.1061 9.27228 42.6347 13.2749 46.6373C17.2763 50.6387 22.8049 53.1141 28.9113 53.1141C35.0201 53.1141 40.5486 50.6387 44.5501 46.6373C48.5515 42.6347 51.0292 37.1061 51.0292 30.9973C51.0292 24.8909 48.5526 19.3623 44.5512 15.3597Z" fill="#A18552"/>
</svg>
