<svg width="19" height="18" viewBox="0 0 19 18" fill="none" xmlns="http://www.w3.org/2000/svg">
<path d="M3.51998 1.67982C2.95998 1.67982 2.47998 1.87982 2.07998 2.27982C1.67998 2.67982 1.47998 3.16982 1.47998 3.74982C1.47998 4.32982 1.67998 4.81982 2.07998 5.21982C2.47998 5.61982 2.95998 5.81982 3.51998 5.81982C4.07998 5.81982 4.55998 5.61982 4.95998 5.21982C5.35998 4.81982 5.55998 4.32982 5.55998 3.74982C5.55998 3.16982 5.35998 2.67982 4.95998 2.27982C4.55998 1.87982 4.07998 1.67982 3.51998 1.67982ZM3.51998 2.81982C3.75998 2.81982 3.97998 2.90982 4.17998 3.08982C4.37998 3.26982 4.47998 3.48982 4.47998 3.74982C4.47998 4.00982 4.37998 4.22982 4.17998 4.40982C3.97998 4.58982 3.75998 4.67982 3.51998 4.67982C3.27998 4.67982 3.05998 4.58982 2.85998 4.40982C2.65998 4.22982 2.55998 4.00982 2.55998 3.74982C2.55998 3.48982 2.65998 3.26982 2.85998 3.08982C3.05998 2.90982 3.27998 2.81982 3.51998 2.81982ZM3.51998 12.1798C2.95998 12.1798 2.47998 12.3798 2.07998 12.7798C1.67998 13.1798 1.47998 13.6698 1.47998 14.2498C1.47998 14.8298 1.67998 15.3198 2.07998 15.7198C2.47998 16.1198 2.95998 16.3198 3.51998 16.3198C4.07998 16.3198 4.55998 16.1198 4.95998 15.7198C5.35998 15.3198 5.55998 14.8298 5.55998 14.2498C5.55998 13.6698 5.35998 13.1798 4.95998 12.7798C4.55998 12.3798 4.07998 12.1798 3.51998 12.1798ZM3.51998 13.3198C3.75998 13.3198 3.97998 13.4098 4.17998 13.5898C4.37998 13.7698 4.47998 13.9898 4.47998 14.2498C4.47998 14.5098 4.37998 14.7298 4.17998 14.9098C3.97998 15.0898 3.75998 15.1798 3.51998 15.1798C3.27998 15.1798 3.05998 15.0898 2.85998 14.9098C2.65998 14.7298 2.55998 14.5098 2.55998 14.2498C2.55998 13.9898 2.65998 13.7698 2.85998 13.5898C3.05998 13.4098 3.27998 13.3198 3.51998 13.3198ZM9.51998 1.67982C8.95998 1.67982 8.47998 1.87982 8.07998 2.27982C7.67998 2.67982 7.47998 3.16982 7.47998 3.74982C7.47998 4.32982 7.67998 4.81982 8.07998 5.21982C8.47998 5.61982 8.95998 5.81982 9.51998 5.81982C10.08 5.81982 10.56 5.61982 10.96 5.21982C11.36 4.81982 11.56 4.32982 11.56 3.74982C11.56 3.16982 11.36 2.67982 10.96 2.27982C10.56 1.87982 10.08 1.67982 9.51998 1.67982ZM9.51998 2.81982C9.75998 2.81982 9.97998 2.90982 10.18 3.08982C10.38 3.26982 10.48 3.48982 10.48 3.74982C10.48 4.00982 10.38 4.22982 10.18 4.40982C9.97998 4.58982 9.75998 4.67982 9.51998 4.67982C9.27998 4.67982 9.05998 4.58982 8.85998 4.40982C8.65998 4.22982 8.55998 4.00982 8.55998 3.74982C8.55998 3.48982 8.65998 3.26982 8.85998 3.08982C9.05998 2.90982 9.27998 2.81982 9.51998 2.81982ZM9.51998 12.1798C8.95998 12.1798 8.47998 12.3798 8.07998 12.7798C7.67998 13.1798 7.47998 13.6698 7.47998 14.2498C7.47998 14.8298 7.67998 15.3198 8.07998 15.7198C8.47998 16.1198 8.95998 16.3198 9.51998 16.3198C10.08 16.3198 10.56 16.1198 10.96 15.7198C11.36 15.3198 11.56 14.8298 11.56 14.2498C11.56 13.6698 11.36 13.1798 10.96 12.7798C10.56 12.3798 10.08 12.1798 9.51998 12.1798ZM9.51998 13.3198C9.75998 13.3198 9.97998 13.4098 10.18 13.5898C10.38 13.7698 10.48 13.9898 10.48 14.2498C10.48 14.5098 10.38 14.7298 10.18 14.9098C9.97998 15.0898 9.75998 15.1798 9.51998 15.1798C9.27998 15.1798 9.05998 15.0898 8.85998 14.9098C8.65998 14.7298 8.55998 14.5098 8.55998 14.2498C8.55998 13.9898 8.65998 13.7698 8.85998 13.5898C9.05998 13.4098 9.27998 13.3198 9.51998 13.3198ZM15.52 1.67982C14.96 1.67982 14.48 1.87982 14.08 2.27982C13.68 2.67982 13.48 3.16982 13.48 3.74982C13.48 4.32982 13.68 4.81982 14.08 5.21982C14.48 5.61982 14.96 5.81982 15.52 5.81982C16.08 5.81982 16.56 5.61982 16.96 5.21982C17.36 4.81982 17.56 4.32982 17.56 3.74982C17.56 3.16982 17.36 2.67982 16.96 2.27982C16.56 1.87982 16.08 1.67982 15.52 1.67982ZM15.52 2.81982C15.76 2.81982 15.98 2.90982 16.18 3.08982C16.38 3.26982 16.48 3.48982 16.48 3.74982C16.48 4.00982 16.38 4.22982 16.18 4.40982C15.98 4.58982 15.76 4.67982 15.52 4.67982C15.28 4.67982 15.06 4.58982 14.86 4.40982C14.66 4.22982 14.56 4.00982 14.56 3.74982C14.56 3.48982 14.66 3.26982 14.86 3.08982C15.06 2.90982 15.28 2.81982 15.52 2.81982ZM15.52 12.1798C14.96 12.1798 14.48 12.3798 14.08 12.7798C13.68 13.1798 13.48 13.6698 13.48 14.2498C13.48 14.8298 13.68 15.3198 14.08 15.7198C14.48 16.1198 14.96 16.3198 15.52 16.3198C16.08 16.3198 16.56 16.1198 16.96 15.7198C17.36 15.3198 17.56 14.8298 17.56 14.2498C17.56 13.6698 17.36 13.1798 16.96 12.7798C16.56 12.3798 16.08 12.1798 15.52 12.1798ZM15.52 13.3198C15.76 13.3198 15.98 13.4098 16.18 13.5898C16.38 13.7698 16.48 13.9898 16.48 14.2498C16.48 14.5098 16.38 14.7298 16.18 14.9098C15.98 15.0898 15.76 15.1798 15.52 15.1798C15.28 15.1798 15.06 15.0898 14.86 14.9098C14.66 14.7298 14.56 14.5098 14.56 14.2498C14.56 13.9898 14.66 13.7698 14.86 13.5898C15.06 13.4098 15.28 13.3198 15.52 13.3198ZM2.97998 5.21982V12.7198C2.97998 12.8798 3.02998 13.0198 3.12998 13.1398C3.22998 13.2598 3.35998 13.3198 3.51998 13.3198C3.67998 13.3198 3.80998 13.2598 3.90998 13.1398C4.00998 13.0198 4.05998 12.8998 4.05998 12.7798V5.21982C4.05998 5.09982 4.00998 4.97982 3.90998 4.85982C3.80998 4.73982 3.67998 4.67982 3.51998 4.67982C3.35998 4.67982 3.22998 4.73982 3.12998 4.85982C3.02998 4.97982 2.97998 5.09982 2.97998 5.21982ZM8.97998 5.21982V12.7198C8.97998 12.8798 9.02998 13.0198 9.12998 13.1398C9.22998 13.2598 9.35998 13.3198 9.51998 13.3198C9.67998 13.3198 9.80998 13.2598 9.90998 13.1398C10.01 13.0198 10.06 12.8998 10.06 12.7798V5.21982C10.06 5.09982 10.01 4.97982 9.90998 4.85982C9.80998 4.73982 9.67998 4.67982 9.51998 4.67982C9.35998 4.67982 9.22998 4.73982 9.12998 4.85982C9.02998 4.97982 8.97998 5.09982 8.97998 5.21982ZM14.98 5.21982V8.21982C14.98 8.29982 14.96 8.35982 14.92 8.39982C14.88 8.43982 14.84 8.45982 14.8 8.45982H3.51998C3.35998 8.45982 3.22998 8.50982 3.12998 8.60982C3.02998 8.70982 2.97998 8.83982 2.97998 8.99982C2.97998 9.15982 3.02998 9.28982 3.12998 9.38982C3.22998 9.48982 3.35998 9.53982 3.51998 9.53982H14.8C15.16 9.53982 15.46 9.41982 15.7 9.17982C15.94 8.93982 16.06 8.61982 16.06 8.21982V5.27982C16.06 5.11982 16.01 4.97982 15.91 4.85982C15.81 4.73982 15.68 4.67982 15.52 4.67982C15.36 4.67982 15.23 4.73982 15.13 4.85982C15.03 4.97982 14.98 5.09982 14.98 5.21982Z" fill="white"/>
</svg>
