<svg width="60" height="60" viewBox="0 0 60 60" fill="none" xmlns="http://www.w3.org/2000/svg">
<path d="M16.791 33.1953C16.6514 33.0449 16.5264 32.8838 16.4189 32.7163C16.311 32.5479 16.2168 32.3677 16.1392 32.1807C15.8799 31.563 15.8096 30.896 15.9189 30.2598C16.0283 29.6279 16.3154 29.0239 16.7705 28.5273L16.9365 28.3564C18.0562 27.2896 19.7544 27.0908 21.0864 27.8921C21.2769 28.0059 21.4585 28.1411 21.6279 28.2959L21.6445 28.311C22.5874 29.2153 24.1826 30.6943 25.23 31.6265L26.1289 32.4326L37.1309 20.8921C37.2856 20.7324 37.4561 20.5894 37.6362 20.4644C37.8208 20.3369 38.0146 20.229 38.2148 20.1416C38.417 20.0532 38.6309 19.9839 38.8496 19.936C39.0679 19.8877 39.2905 19.8604 39.5117 19.8555H39.5244C39.7446 19.853 39.9604 19.8687 40.1792 19.9058C40.3926 19.9419 40.6069 20 40.8301 20.0859C41.0356 20.1646 41.2329 20.2632 41.4194 20.3809C41.5977 20.4937 41.7715 20.6279 41.9351 20.7822L42.0142 20.854C42.1685 21.0068 42.3076 21.1729 42.4292 21.3491C42.5542 21.5293 42.6611 21.7231 42.7476 21.9243C42.8369 22.1265 42.9062 22.3403 42.9546 22.5586C43.0034 22.7729 43.0298 22.9956 43.0352 23.2227V23.335C43.0332 23.5298 43.0146 23.7275 42.9795 23.9229C42.9409 24.1353 42.8828 24.3442 42.8057 24.5435C42.7275 24.7476 42.6274 24.9463 42.5093 25.1343C42.3931 25.3184 42.2563 25.4951 42.103 25.6567L28.8125 39.6021C28.6562 39.769 28.4888 39.9155 28.3135 40.0405C28.1333 40.1694 27.939 40.2803 27.7358 40.373C27.5322 40.4648 27.3203 40.5376 27.1069 40.5879C26.8945 40.6387 26.6729 40.6689 26.4478 40.6792L26.3867 40.6807C26.1802 40.6851 25.9766 40.6729 25.7808 40.6426L25.731 40.6328C25.5283 40.5986 25.3311 40.5479 25.1426 40.4814C24.937 40.4082 24.7358 40.314 24.5439 40.2007L24.5132 40.1812C24.332 40.0718 24.1631 39.9482 24.0093 39.813L23.9785 39.7837C23.207 39.0679 22.3687 38.3394 21.521 37.603C20.0527 36.3271 18.0161 34.4868 16.7954 33.1987L16.791 33.1953ZM30 0C38.2812 0 45.7852 3.36084 51.2173 8.78271C56.6392 14.2148 59.9995 21.7188 59.9995 30C59.9995 38.2817 56.6387 45.7856 51.2173 51.2178C45.7856 56.6396 38.2812 60 30 60C21.7183 60 14.2144 56.6396 8.78223 51.2178C3.36035 45.7856 0 38.2812 0 29.9995C0 21.7188 3.36035 14.2148 8.78223 8.78271C14.2148 3.36084 21.7183 0 30 0ZM47.314 12.686C42.8838 8.25537 36.7627 5.51562 30 5.51562C23.2368 5.51562 17.1157 8.25537 12.6855 12.686C8.25537 17.1162 5.51562 23.2373 5.51562 29.9995C5.51562 36.7627 8.25537 42.8838 12.6855 47.314C17.1157 51.7441 23.2368 54.4844 30 54.4844C36.7627 54.4844 42.8838 51.7446 47.314 47.314C51.7441 42.8833 54.4839 36.7627 54.4839 29.9995C54.4839 23.2373 51.7446 17.1162 47.314 12.686Z" fill="#A18552"/>
</svg>
