<svg width="35" height="35" viewBox="0 0 35 35" fill="none" xmlns="http://www.w3.org/2000/svg">
<rect x="0.5" y="0.5" width="34" height="34" rx="7.5" fill="black" stroke="#6E6E6E"/>
<g clip-path="url(#clip0_1067_4100)">
<path d="M21.6465 11.3654L22.9117 10.0994C23.1755 9.83568 23.5332 9.6875 23.9062 9.6875C24.2793 9.6875 24.637 9.83568 24.9008 10.0994C25.1645 10.3632 25.3127 10.7209 25.3127 11.0939C25.3127 11.4669 25.1645 11.8247 24.9008 12.0884L14.124 22.8652C13.7275 23.2615 13.2385 23.5527 12.7012 23.7127L10.6875 24.3127L11.2875 22.2989C11.4475 21.7617 11.7387 21.2727 12.135 20.8762L21.6473 11.3654H21.6465ZM21.6465 11.3654L23.625 13.3439" stroke="white" stroke-width="1.5" stroke-linecap="round" stroke-linejoin="round"/>
</g>
<defs>
<clipPath id="clip0_1067_4100">
<rect width="18" height="18" fill="white" transform="translate(9 8)"/>
</clipPath>
</defs>
</svg>
