<svg width="16" height="20" viewBox="0 0 16 20" fill="none" xmlns="http://www.w3.org/2000/svg">
<path d="M7.712 17.976C6.66667 17.976 5.73333 17.8053 4.912 17.464C4.10133 17.1227 3.41333 16.648 2.848 16.04C2.28267 15.432 1.85067 14.7227 1.552 13.912C1.264 13.1013 1.12 12.2267 1.12 11.288C1.12 10.168 1.27467 9.13867 1.584 8.2C1.904 7.26133 2.368 6.44533 2.976 5.752C3.59467 5.05867 4.352 4.52 5.248 4.136C6.144 3.752 7.17867 3.56 8.352 3.56C9.35467 3.56 10.2453 3.73067 11.024 4.072C11.8027 4.40267 12.4587 4.872 12.992 5.48C13.5253 6.07733 13.9307 6.776 14.208 7.576C14.4853 8.36533 14.624 9.21867 14.624 10.136C14.624 10.5627 14.5867 11.0267 14.512 11.528C14.448 12.0293 14.3147 12.504 14.112 12.952C13.92 13.4 13.632 13.768 13.248 14.056C12.864 14.3333 12.3573 14.472 11.728 14.472C11.216 14.472 10.8 14.344 10.48 14.088C10.16 13.832 9.94667 13.5013 9.84 13.096C9.62667 13.4373 9.38667 13.704 9.12 13.896C8.864 14.0773 8.58667 14.2053 8.288 14.28C8 14.3547 7.69067 14.392 7.36 14.392C6.69867 14.3813 6.16533 14.216 5.76 13.896C5.35467 13.5653 5.06133 13.1547 4.88 12.664C4.69867 12.1627 4.608 11.6667 4.608 11.176C4.61867 10.6747 4.69333 10.1893 4.832 9.72C4.97067 9.25067 5.17867 8.82933 5.456 8.456C5.744 8.072 6.096 7.768 6.512 7.544C6.928 7.32 7.41333 7.21333 7.968 7.224C8.256 7.224 8.528 7.26133 8.784 7.336C9.04 7.41067 9.26933 7.53333 9.472 7.704C9.68533 7.87467 9.85067 8.09867 9.968 8.376L10.4 7.544L11.28 7.64C11.184 8.22667 11.0987 8.81867 11.024 9.416C10.9493 10.0027 10.8853 10.5893 10.832 11.176C10.8107 11.496 10.8053 11.8213 10.816 12.152C10.8373 12.4827 10.9173 12.76 11.056 12.984C11.2053 13.208 11.456 13.32 11.808 13.32C12.1493 13.32 12.4213 13.208 12.624 12.984C12.8267 12.76 12.976 12.4827 13.072 12.152C13.1787 11.8213 13.248 11.4907 13.28 11.16C13.312 10.8187 13.328 10.5307 13.328 10.296C13.328 9.53867 13.2213 8.83467 13.008 8.184C12.8053 7.52267 12.496 6.94667 12.08 6.456C11.664 5.95467 11.1467 5.56533 10.528 5.288C9.90933 5 9.184 4.856 8.352 4.856C7.392 4.856 6.54933 5.02133 5.824 5.352C5.10933 5.672 4.50667 6.12533 4.016 6.712C3.536 7.288 3.17333 7.96 2.928 8.728C2.68267 9.48533 2.56 10.296 2.56 11.16C2.56 12.1947 2.768 13.1227 3.184 13.944C3.61067 14.7653 4.21867 15.4107 5.008 15.88C5.808 16.3493 6.76267 16.584 7.872 16.584C8.128 16.584 8.336 16.5787 8.496 16.568C8.66667 16.5573 8.82667 16.5413 8.976 16.52C9.136 16.4987 9.328 16.4667 9.552 16.424L9.664 17.768C9.30133 17.8427 8.98133 17.896 8.704 17.928C8.42667 17.96 8.096 17.976 7.712 17.976ZM7.568 13.24C8.00533 13.24 8.368 13.1333 8.656 12.92C8.95467 12.7067 9.184 12.424 9.344 12.072C9.51467 11.7093 9.62133 11.3093 9.664 10.872C9.70667 10.4667 9.66933 10.0827 9.552 9.72C9.44533 9.34667 9.25867 9.04267 8.992 8.808C8.736 8.56267 8.38933 8.44 7.952 8.44C7.472 8.44 7.08267 8.57867 6.784 8.856C6.48533 9.13333 6.26667 9.48 6.128 9.896C5.98933 10.312 5.92 10.728 5.92 11.144C5.92 11.3147 5.94133 11.5227 5.984 11.768C6.02667 12.0027 6.10133 12.232 6.208 12.456C6.32533 12.68 6.49067 12.8667 6.704 13.016C6.928 13.1653 7.216 13.24 7.568 13.24Z" fill="white"/>
</svg>
