<svg width="11" height="13" viewBox="0 0 11 13" fill="none" xmlns="http://www.w3.org/2000/svg">
<path d="M8.91984 12.5898C8.67984 12.5898 8.45318 12.5232 8.23984 12.3898L5.63984 10.7498C5.55984 10.6965 5.47984 10.6965 5.39984 10.7498L2.79984 12.3898C2.55984 12.5498 2.29318 12.6098 1.99984 12.5698C1.70651 12.5298 1.45318 12.4165 1.23984 12.2298C0.973177 11.9898 0.839844 11.6832 0.839844 11.3098V1.86984C0.839844 1.52318 0.96651 1.22318 1.21984 0.969844C1.47318 0.716511 1.77318 0.589844 2.11984 0.589844H8.91984C9.26651 0.589844 9.56651 0.716511 9.81984 0.969844C10.0732 1.22318 10.1998 1.52318 10.1998 1.86984V11.3098C10.1998 11.6565 10.0732 11.9565 9.81984 12.2098C9.56651 12.4632 9.26651 12.5898 8.91984 12.5898ZM5.51984 9.66984C5.75984 9.66984 5.98651 9.73651 6.19984 9.86984L8.79984 11.5098C8.82651 11.5365 8.86651 11.5498 8.91984 11.5498C8.97318 11.5498 9.01984 11.5298 9.05984 11.4898C9.09984 11.4498 9.11984 11.3898 9.11984 11.3098V1.86984C9.11984 1.78984 9.09984 1.72984 9.05984 1.68984C9.01984 1.64984 8.97318 1.62984 8.91984 1.62984H2.11984C2.06651 1.62984 2.01984 1.64984 1.97984 1.68984C1.93984 1.72984 1.91984 1.78984 1.91984 1.86984V11.3098C1.91984 11.3898 1.95318 11.4565 2.01984 11.5098C2.08651 11.5632 2.15984 11.5632 2.23984 11.5098L4.83984 9.86984C5.05318 9.73651 5.27984 9.66984 5.51984 9.66984Z" fill="black"/>
</svg>
