<svg width="19" height="18" viewBox="0 0 19 18" fill="none" xmlns="http://www.w3.org/2000/svg">
<g clip-path="url(#clip0_0_330)">
<path d="M11.2001 3.36C11.2001 3.2 11.1501 3.07 11.0501 2.97C10.9501 2.87 10.8201 2.82 10.6601 2.82H5.02006C4.86006 2.82 4.73006 2.87 4.63006 2.97C4.53006 3.07 4.48006 3.2 4.48006 3.36V7.86C4.48006 8.02 4.53006 8.16 4.63006 8.28C4.73006 8.4 4.86006 8.46 5.02006 8.46H10.6601C10.8201 8.46 10.9501 8.4 11.0501 8.28C11.1501 8.16 11.2001 8.02 11.2001 7.86V3.36ZM10.0601 7.32H5.56006V3.96H10.0601V7.32ZM17.6801 3.96L15.4001 2.88C15.2801 2.8 15.1401 2.78 14.9801 2.82C14.8201 2.86 14.7101 2.95 14.6501 3.09C14.5901 3.23 14.5801 3.38 14.6201 3.54C14.6601 3.7 14.7601 3.8 14.9201 3.84L15.7601 4.32L15.7001 4.5C15.7001 4.86 15.8101 5.18 16.0301 5.46C16.2501 5.74 16.5201 5.94 16.8401 6.06V12.9C16.8401 13.06 16.7801 13.2 16.6601 13.32C16.5401 13.44 16.4101 13.5 16.2701 13.5C16.1301 13.5 16.0001 13.44 15.8801 13.32C15.7601 13.2 15.7001 13.06 15.7001 12.9V8.4C15.7001 7.76 15.4701 7.18 15.0101 6.66C14.5501 6.14 14.0401 5.82 13.4801 5.7V2.22C13.4801 1.62 13.2601 1.1 12.8201 0.66C12.3801 0.220001 11.8601 0 11.2601 0H4.48006C3.88006 0 3.35006 0.220001 2.89006 0.66C2.43006 1.1 2.20006 1.62 2.20006 2.22V14.82L1.42006 15.24C1.18006 15.36 1.06006 15.52 1.06006 15.72V17.4C1.06006 17.56 1.12006 17.7 1.24006 17.82C1.36006 17.94 1.50006 18 1.66006 18H14.0201C14.1801 18 14.3101 17.94 14.4101 17.82C14.5101 17.7 14.5601 17.56 14.5601 17.4V15.72C14.5601 15.52 14.4601 15.36 14.2601 15.24L13.4801 14.82V6.84C13.7601 6.96 14.0101 7.17 14.2301 7.47C14.4501 7.77 14.5601 8.08 14.5601 8.4V12.9C14.5601 13.38 14.7301 13.79 15.0701 14.13C15.4101 14.47 15.8101 14.64 16.2701 14.64C16.7301 14.64 17.1301 14.47 17.4701 14.13C17.8101 13.79 17.9801 13.38 17.9801 12.9V4.5C17.9801 4.26 17.8801 4.08 17.6801 3.96ZM13.4801 16.86H2.20006V16.08L3.04006 15.66C3.24006 15.58 3.34006 15.42 3.34006 15.18V2.22C3.34006 1.94 3.45006 1.69 3.67006 1.47C3.89006 1.25 4.16006 1.14 4.48006 1.14H11.2601C11.5401 1.14 11.7901 1.25 12.0101 1.47C12.2301 1.69 12.3401 1.94 12.3401 2.22V15.18C12.3401 15.42 12.4401 15.58 12.6401 15.66L13.4801 16.08V16.86Z" fill="white"/>
</g>
<defs>
<clipPath id="clip0_0_330">
<rect width="18" height="18" fill="white" transform="matrix(1 0 0 -1 0.52002 18)"/>
</clipPath>
</defs>
</svg>
