<svg width="60" height="60" viewBox="0 0 60 60" fill="none" xmlns="http://www.w3.org/2000/svg">
<path d="M57.8315 30.0271C57.7934 30.5872 57.7778 31.0452 57.7778 31.2644C57.7778 31.782 57.416 32.2141 56.9316 32.3225L55.5068 32.76C55.4008 32.7923 55.2939 32.8084 55.1889 32.8084V32.8113H54.9624C54.4575 32.8113 54.0327 32.4656 53.9126 31.9978L52.6645 28.1955L52.6616 28.1863L52.6601 28.1868L52.4335 27.4704L50.3197 31.2678C50.2284 31.4314 50.102 31.5623 49.954 31.6555L49.9555 31.6575L48.8539 32.3562C48.3485 32.6765 47.6791 32.5271 47.3583 32.0217C47.2772 31.8938 47.2265 31.7556 47.204 31.6155L46.1327 25.5993L44.5111 24.4504L40.7059 23.7712C40.8363 23.9777 40.9686 24.1818 41.0995 24.3835C41.7772 25.4294 42.4105 26.4065 42.6205 27.4133C42.9589 29.032 42.3548 30.3855 39.66 31.3523C39.7376 31.3992 39.8143 31.4505 39.8905 31.5086C40.9403 32.3118 41.1932 33.4964 38.9036 36.4871C38.3255 37.2425 37.8284 37.91 37.4109 38.4901C37.0828 38.9466 36.7767 39.3861 36.4949 39.8084L37.0101 43.5565C37.0794 44.0614 36.9583 44.5526 36.6331 45.0258C36.3919 45.3768 36.0354 45.7103 35.5579 46.0233C35.2425 46.2304 34.9729 46.4384 34.7522 46.6469C34.6648 46.7289 34.5857 46.8109 34.514 46.892L34.7508 47.9628C34.8641 48.476 34.5926 48.9843 34.1282 49.186L34.1287 49.1869L33.7317 49.3598C33.6531 49.6674 33.5398 49.9692 33.3943 50.2651C33.159 50.7407 32.8328 51.2055 32.4173 51.6586C31.9749 52.1425 31.4876 52.5087 30.9563 52.7568C30.4016 53.0161 29.8171 53.1455 29.2014 53.1455H27.2932C26.6946 53.1455 26.2087 52.6601 26.2087 52.061C26.2087 51.5712 26.1491 51.0517 26.0315 50.5009C25.9094 49.9311 25.7234 49.3207 25.4743 48.6693C25.1936 47.935 24.9792 47.2704 24.8317 46.6757C24.6745 46.0419 24.5959 45.493 24.5959 45.0282C24.5959 44.6132 24.6315 44.2416 24.7028 43.913C24.7873 43.5209 24.9235 43.1879 25.111 42.9129C25.1306 42.8841 25.1525 42.8021 25.1775 42.6659C25.2155 42.4564 25.2351 42.1688 25.2351 41.8011C25.2351 41.5213 25.1867 41.2269 25.0915 40.9183C24.9856 40.5765 24.822 40.2118 24.6023 39.8265C24.3278 39.3455 24.1208 38.9573 23.9816 38.6629C23.7814 38.2405 23.6813 37.9017 23.6813 37.6502C23.6813 35.8802 23.0744 35.49 22.2316 35.49C21.7253 35.49 21.1554 35.5672 20.5632 35.6478C19.8254 35.7478 19.0573 35.8519 18.3029 35.8519C17.734 35.8519 17.1725 35.5921 16.6246 35.0765C16.2208 34.6966 15.7985 34.1458 15.3634 33.4285C14.9689 32.7786 14.671 32.2537 14.4689 31.8582C14.1905 31.3132 14.0519 30.8958 14.0519 30.6165C14.0519 29.9021 14.0514 29.8411 14.0509 29.7839C14.0221 26.7751 13.9957 23.9299 16.8976 21.8332C18.1007 20.1227 19.1842 19.0133 20.4875 18.3073C21.8444 17.5719 23.3542 17.3146 25.3957 17.3146C25.9944 17.3146 26.4802 17.8004 26.4802 18.3991V19.9367L27.781 20.506L27.7995 20.4176C27.9236 19.8332 28.4983 19.4596 29.0828 19.5832L29.0872 19.5841V19.5832C29.4895 19.6701 29.8557 19.7731 30.1887 19.8942C30.5452 20.0241 30.8533 20.172 31.1155 20.341C31.2527 20.4299 31.4993 20.5085 31.7952 20.5602C32.1262 20.6178 32.4812 20.6296 32.781 20.57C32.9402 20.5383 33.0594 20.5007 33.094 20.4596L33.0945 20.4567C33.094 20.4567 33.0935 20.4567 33.094 20.4557L33.1009 20.4211C33.1282 20.2594 33.1516 20.0959 33.1717 19.9308L31.884 20.0456C31.4212 20.0856 31.0012 19.8278 30.8142 19.4308L30.8123 19.4313C30.3875 18.5377 29.49 18.0792 28.3635 17.5045C27.1526 16.8864 25.7268 16.1583 24.1911 14.6964C19.0089 16.5348 17.3532 16.7877 16.9381 15.632C16.694 14.9542 17.0446 14.4117 17.5167 13.6813C17.9425 13.0226 18.5485 12.086 18.5485 11.2061C18.5485 10.735 18.8498 10.3336 19.2702 10.1842L23.6325 8.19147H23.6315C23.1613 8.10846 22.5788 8.00495 22.0959 5.65776C21.9972 5.17582 22.2365 4.70316 22.6511 4.48539L22.6506 4.48441C22.9909 4.30521 23.3903 4.06058 23.8488 3.75003C24.3137 3.43509 24.8698 3.03079 25.5183 2.53567L25.5593 2.50442C23.3415 2.84963 21.2092 3.45852 19.1647 4.33207L19.1652 4.33353C17.4591 5.06742 15.8688 5.92681 14.3966 6.91412C12.922 7.90387 11.5558 9.02742 10.2989 10.2887L10.2945 10.2931C9.03328 11.5499 7.90973 12.9161 6.92047 14.3907C5.93267 15.8624 5.07328 17.4528 4.33939 19.1593C4.33158 19.1769 4.32377 19.194 4.31546 19.2111C3.60355 20.8791 3.07034 22.6086 2.71145 24.3996C2.34963 26.2077 2.16896 28.0749 2.16896 30.0002C2.16896 31.9256 2.35012 33.7932 2.71194 35.6014C2.73147 35.6985 2.75149 35.7962 2.77248 35.8943L7.78766 38.2923C8.16266 38.472 8.38728 38.8397 8.40095 39.2283C8.45466 40.662 8.07282 41.722 7.68024 42.8094C7.38824 43.618 7.0899 44.4452 7.04205 45.4188C7.03717 45.5219 7.01812 45.6205 6.98687 45.7138C7.95905 47.1483 9.05916 48.4799 10.2901 49.707L10.2945 49.7113C11.5509 50.9726 12.9176 52.0961 14.3922 53.0854C15.8639 54.0727 17.4542 54.9326 19.1608 55.6665C19.1784 55.6738 19.1955 55.6816 19.2126 55.6904C20.8796 56.3979 22.6096 56.9311 24.4006 57.2895C26.2087 57.6514 28.0759 57.832 30.0012 57.832C31.926 57.832 33.7937 57.6514 35.6014 57.2895C37.4114 56.9272 39.1585 56.3862 40.8416 55.6679L40.8407 55.6665C42.5472 54.9326 44.1376 54.0727 45.6097 53.0854C47.0839 52.0961 48.4501 50.9721 49.7074 49.7109L49.7118 49.707C50.9726 48.4506 52.0966 47.0839 53.0854 45.6093C54.0732 44.1376 54.9326 42.5472 55.6665 40.8407C55.6743 40.8231 55.6816 40.806 55.6904 40.7889C56.3984 39.1219 56.9316 37.3924 57.29 35.6019C57.6489 33.8015 57.8301 31.9431 57.8315 30.0271ZM18.3092 2.34426C21.966 0.781256 25.8669 0 30.0002 0C32.0657 0 34.0745 0.194826 36.0237 0.584966C37.949 0.970711 39.8206 1.54933 41.6366 2.32082C41.6561 2.32814 41.6761 2.33596 41.6957 2.34426C43.5072 3.12356 45.2133 4.0474 46.8114 5.12016C48.4057 6.1895 49.8808 7.4024 51.2353 8.7613L51.2397 8.7657C52.5986 10.1202 53.8115 11.5953 54.8808 13.1896C55.9526 14.7872 56.8774 16.4938 57.6567 18.3053L57.6548 18.3058L57.6567 18.3092C58.4399 20.1423 59.0264 22.0319 59.416 23.9763C59.8062 25.9255 60.001 27.9343 60.001 30.0002C60.001 32.0662 59.8062 34.075 59.416 36.0242C59.0308 37.95 58.4512 39.8216 57.6797 41.6376C57.6723 41.6571 57.665 41.6761 57.6567 41.6957C56.8774 43.5072 55.9531 45.2133 54.8808 46.8114C53.8115 48.4057 52.5986 49.8808 51.2397 51.2353L51.2353 51.2397C49.8813 52.5986 48.4057 53.8115 46.8114 54.8808C45.2137 55.9531 43.5072 56.8774 41.6957 57.6567L41.6952 57.6553L41.6913 57.6567C39.8582 58.4399 37.9686 59.0268 36.0242 59.416C34.0745 59.8062 32.0662 60.001 30.0002 60.001C27.9343 60.001 25.9255 59.8062 23.9763 59.416C22.051 59.0308 20.1799 58.4521 18.3639 57.6802C18.3439 57.6728 18.3244 57.6655 18.3048 57.6567C16.4933 56.8774 14.7872 55.9536 13.1886 54.8808C11.5948 53.8115 10.1192 52.5986 8.76472 51.2397L8.76033 51.2353C7.40192 49.8813 6.18902 48.4057 5.11967 46.8114C4.0474 45.2137 3.12307 43.5072 2.34377 41.6957L2.34523 41.6947L2.34377 41.6913C1.56056 39.8582 0.973641 37.9691 0.584477 36.0242C0.195314 34.0745 0 32.0662 0 29.9998C0 27.9338 0.195314 25.925 0.585454 23.9758C0.970711 22.0505 1.54982 20.1789 2.3218 18.3625C2.32912 18.3429 2.33644 18.3239 2.34475 18.3043C3.12405 16.4928 4.04788 14.7863 5.12065 13.1886C6.18999 11.5948 7.40289 10.1192 8.7613 8.76472L8.7657 8.76033C10.1202 7.40143 11.5958 6.18853 13.1896 5.11918C14.7877 4.04691 16.4943 3.12258 18.3058 2.34328L18.3063 2.34475L18.3092 2.34426ZM4.72709 40.8719C4.96293 41.4178 5.22075 41.9584 5.50004 42.4906C5.54887 42.3529 5.5977 42.2157 5.64702 42.0799C5.89946 41.3812 6.14653 40.6961 6.22124 39.9369L3.94534 38.8489C4.17289 39.5242 4.43314 40.1981 4.72709 40.868L4.72563 40.8685L4.72709 40.8719ZM42.3563 5.25151C41.3504 4.74564 40.3036 4.29837 39.2157 3.91165C35.1888 4.83891 34.0242 4.28275 32.7327 3.66507C32.0759 3.3511 31.3753 3.01565 29.8293 3.01565H28.9045C28.8113 3.01565 28.6164 3.09475 28.3196 3.25344C27.9231 3.46585 27.4255 3.79935 26.8264 4.25638C26.1858 4.74516 25.5959 5.17192 25.0554 5.53813C24.7404 5.75151 24.4523 5.93657 24.1906 6.09478C24.7072 6.21392 25.1018 6.53716 25.3767 8.95369H25.3747C25.4245 9.40437 25.1848 9.85604 24.7497 10.0548L20.651 11.9269C20.4513 13.1163 19.8039 14.1183 19.3249 14.859C19.3151 14.8746 19.3039 14.8864 19.2921 14.8947C19.8117 14.5841 21.0627 13.5353 24.0383 12.4571C24.4426 12.2818 24.9304 12.3663 25.2517 12.7042C26.7121 14.2316 28.1452 14.9625 29.342 15.5739C30.5964 16.214 31.637 16.7453 32.3792 17.8336L34.1297 17.6774C34.1927 17.6662 34.2581 17.6598 34.3245 17.6598C34.9231 17.6598 35.409 18.1452 35.409 18.7438C35.409 19.0812 35.3934 19.4284 35.3626 19.7814C35.3333 20.1066 35.2898 20.4435 35.2303 20.7897C35.2283 20.8024 35.2264 20.8156 35.2239 20.8283C35.1726 21.1242 35.0657 21.3884 34.9148 21.6227C34.5296 22.2219 33.9041 22.5558 33.2 22.696C32.6287 22.8098 31.9905 22.7946 31.4187 22.695C30.8528 22.5964 30.3191 22.4045 29.9426 22.1623C29.8635 22.1115 29.7722 22.0627 29.6687 22.0163L29.6184 22.2531H29.6174C29.6023 22.3229 29.5803 22.3928 29.5505 22.4606C29.3118 23.008 28.675 23.258 28.1272 23.0197L25.0358 21.6662C24.612 21.5192 24.3073 21.1159 24.3073 20.6418V19.5168C23.1682 19.59 22.2775 19.798 21.5085 20.215C20.5065 20.7575 19.6242 21.6935 18.5876 23.1843C18.5109 23.3078 18.4074 23.4177 18.2799 23.5046C16.1618 24.9587 16.1837 27.2951 16.2067 29.7688C16.2116 30.2693 16.2164 30.467 16.2164 30.6184C16.2164 30.6692 16.2736 30.6531 16.3883 30.8772C16.5695 31.2322 16.8419 31.7112 17.2067 32.3118C17.5338 32.8509 17.8346 33.2488 18.1042 33.5022C18.2326 33.6233 18.2985 33.6844 18.3 33.6844C18.9538 33.6844 19.6266 33.593 20.2726 33.5056C20.9601 33.4129 21.6218 33.323 22.2287 33.323C24.3332 33.323 25.8469 34.1038 25.8469 37.6512C25.8469 37.7166 25.8767 37.616 25.9358 37.741C26.0559 37.9949 26.2375 38.3348 26.4802 38.7606C26.7761 39.2796 27.0022 39.7879 27.156 40.2845C27.3191 40.8104 27.4016 41.3172 27.4016 41.8021C27.4016 42.2757 27.3674 42.6937 27.3015 43.056C27.2204 43.4974 27.0847 43.8568 26.8957 44.1332C26.8679 44.1742 26.842 44.2504 26.8176 44.3622C26.7805 44.5345 26.7619 44.7567 26.7619 45.0287C26.7619 45.3309 26.8181 45.7079 26.9299 46.1591C27.052 46.6498 27.2405 47.2294 27.4963 47.8988C27.7815 48.6454 27.9993 49.3632 28.1467 50.0522C28.2141 50.3676 28.2673 50.6762 28.3044 50.977H29.199C29.5066 50.977 29.7869 50.9184 30.0388 50.8007C30.3137 50.6718 30.5754 50.4726 30.8225 50.2021C31.0925 49.9067 31.3025 49.6083 31.4514 49.3075C31.5818 49.0453 31.6619 48.7851 31.6902 48.5273C31.7171 48.1371 31.9544 47.7748 32.3372 47.6078L32.447 47.5595L32.2952 46.8739C32.2356 46.6044 32.2791 46.3124 32.4392 46.0609C32.6609 45.7128 32.9378 45.3822 33.2674 45.0712C33.5877 44.7679 33.9563 44.4808 34.3699 44.2098C34.6131 44.0507 34.7718 43.9134 34.8518 43.7967C34.8523 43.7963 34.8528 43.7967 34.8533 43.7977L34.8597 43.8021L34.3035 39.7581C34.2508 39.4901 34.2981 39.2025 34.4593 38.9559C34.7723 38.4779 35.1707 37.9012 35.6551 37.2274C36.1248 36.575 36.6346 35.8895 37.1819 35.1741C38.3846 33.6023 38.6112 33.2547 38.5755 33.2278C38.5013 33.1707 38.3211 33.0965 38.1321 33.0193C37.3934 32.7171 36.5799 32.3831 36.1966 31.2922C36.1756 31.238 36.159 31.1809 36.1463 31.1223C36.0247 30.5378 36.4002 29.9646 36.9852 29.8435C39.9256 29.2288 40.6522 28.5764 40.5008 27.8533C40.3729 27.24 39.847 26.4289 39.2845 25.5608C38.7239 24.696 38.1317 23.7814 37.7332 22.7824C37.639 22.5861 37.6028 22.3596 37.6429 22.1286C37.7459 21.5392 38.307 21.1447 38.8963 21.2477L45.1127 22.3571L45.1122 22.3615C45.265 22.3884 45.4139 22.4479 45.5492 22.5436L47.662 24.0402C47.9301 24.195 48.1303 24.4631 48.1874 24.7922L48.9779 29.2302L51.7241 24.2966C51.8481 24.03 52.079 23.8142 52.3813 23.7189C52.9521 23.5388 53.561 23.8557 53.7412 24.4265L54.7251 27.5349H54.7236L55.6421 30.3328C55.6762 29.7361 55.7383 28.9602 55.8379 28.1843C55.9394 27.3948 56.0815 26.6067 56.2763 26.0022C56.4189 25.5588 56.6045 25.1823 56.8408 24.9021C56.6792 23.8713 56.4585 22.8566 56.1777 21.8591C55.8388 20.6559 55.4121 19.4826 54.8979 18.341C54.3774 17.1906 53.7919 16.0939 53.1411 15.0485C52.4833 13.9933 51.768 12.9996 50.9921 12.0646C50.2079 11.1241 49.3622 10.2437 48.4579 9.42342C47.56 8.60993 46.5927 7.84919 45.5565 7.14264C44.5306 6.43951 43.4628 5.80815 42.3563 5.25151ZM34.866 43.8446L34.8606 43.8031L34.8543 43.7987C34.8597 43.809 34.8709 43.8773 34.866 43.8446ZM18.967 14.9044C19.0085 15.0201 19.0963 15.0099 19.2741 14.9064L18.967 14.9044Z" fill="#A18552"/>
</svg>
