<svg width="34" height="34" viewBox="0 0 34 34" fill="none" xmlns="http://www.w3.org/2000/svg">
<path d="M30.8819 14.2212H29.7412V14.1625H16.995V19.8274H24.9989C23.8312 23.1252 20.6935 25.4924 16.995 25.4924C12.3022 25.4924 8.4975 21.6877 8.4975 16.995C8.4975 12.3022 12.3022 8.4975 16.995 8.4975C19.1611 8.4975 21.1318 9.31467 22.6323 10.6495L26.6382 6.64363C24.1088 4.28629 20.7253 2.83252 16.995 2.83252C9.17375 2.83252 2.83252 9.17375 2.83252 16.995C2.83252 24.8162 9.17375 31.1574 16.995 31.1574C24.8162 31.1574 31.1574 24.8162 31.1574 16.995C31.1574 16.0454 31.0597 15.1184 30.8819 14.2212Z" fill="#FFC107"/>
<path d="M4.46533 10.4031L9.1184 13.8155C10.3774 10.6983 13.4266 8.4975 16.9948 8.4975C19.161 8.4975 21.1317 9.31467 22.6322 10.6495L26.638 6.64363C24.1086 4.28629 20.7252 2.83252 16.9948 2.83252C11.555 2.83252 6.83754 5.90364 4.46533 10.4031Z" fill="#FF3D00"/>
<path d="M16.9953 31.1574C20.6535 31.1574 23.9774 29.7575 26.4905 27.4809L22.1073 23.7717C20.6853 24.8488 18.9179 25.4925 16.9953 25.4925C13.3117 25.4925 10.1839 23.1436 9.00558 19.8657L4.38721 23.424C6.73109 28.0105 11.4911 31.1574 16.9953 31.1574Z" fill="#4CAF50"/>
<path d="M30.8821 14.2214H29.7413V14.1626H16.9951V19.8276H24.999C24.4382 21.4116 23.4192 22.7776 22.1049 23.7725L22.107 23.7711L26.4903 27.4802C26.1802 27.7621 31.1576 24.0763 31.1576 16.9951C31.1576 16.0455 31.0598 15.1186 30.8821 14.2214Z" fill="#1976D2"/>
</svg>
