<svg width="66" height="60" viewBox="0 0 66 60" fill="none" xmlns="http://www.w3.org/2000/svg">
<path d="M35.3531 51.3601H47.0166C47.9536 50.4285 48.981 49.4597 50.0244 48.4748C52.2123 46.404 54.496 44.2427 56.8436 41.5385C59.5266 38.4456 59.8141 37.3756 60.6286 34.3465C60.7829 33.7769 60.9533 33.1381 61.1769 32.345L62.5716 27.4421L62.5876 27.3889C63.3329 25.2063 63.3914 23.7636 63.0827 22.9332C62.9868 22.6777 62.8644 22.5073 62.7207 22.4168C62.6089 22.3423 62.4598 22.3157 62.3054 22.3316C61.9435 22.3689 61.5335 22.5978 61.1609 23.0077L57.0193 32.872C56.982 32.9625 56.9288 33.0476 56.8703 33.1222C56.6254 33.564 56.2953 33.9952 55.8695 34.4051L48.5232 42.5978C48.1239 43.045 47.4372 43.0822 46.9953 42.683C46.5482 42.2837 46.5109 41.597 46.9102 41.1552L54.2618 32.9625C54.2937 32.9252 54.3257 32.8879 54.3629 32.856C55.1242 32.132 55.3637 31.3495 55.2306 30.7799C55.1881 30.6042 55.1135 30.4552 55.0071 30.354C54.9059 30.2635 54.7728 30.1996 54.6078 30.1837C53.953 30.1145 52.9842 30.5989 51.813 31.9883C51.7811 32.0256 51.7438 32.0628 51.7066 32.1001L48.8585 34.6127L48.8426 34.6287C45.7603 37.5459 44.4348 38.238 42.018 39.4996C41.5123 39.7658 40.9586 40.0532 40.2719 40.4259C40.0004 40.5749 39.7342 40.7559 39.4734 40.9529C39.1966 41.1658 38.9304 41.3841 38.6802 41.597C37.4026 42.6723 36.7318 43.5454 36.3486 44.5089C35.9493 45.5097 35.8056 46.7288 35.6086 48.4003C35.5288 49.0764 35.4702 49.7418 35.4223 50.4072C35.385 50.732 35.3691 51.0514 35.3531 51.3601ZM47.8364 16.3269C47.8152 16.6303 47.8045 16.8858 47.8045 17.0029C47.8045 17.2851 47.6075 17.5193 47.3467 17.5832L46.5748 17.8174C46.5162 17.8387 46.4577 17.8493 46.3991 17.8493H46.2714C45.9999 17.8493 45.7603 17.663 45.7018 17.4075L45.0257 15.342V15.3314L44.8979 14.9374L43.7534 17.0029C43.7055 17.0934 43.6363 17.1573 43.5564 17.2159L42.9602 17.5991C42.6834 17.7748 42.3214 17.6896 42.1457 17.4128C42.1085 17.3436 42.0765 17.2638 42.0552 17.1892L41.4697 13.9207L40.5913 13.2925L38.5258 12.9199C38.595 13.0264 38.6749 13.1435 38.7388 13.2499C39.1114 13.8195 39.4521 14.3466 39.5692 14.8949C39.7555 15.7732 39.4202 16.5079 37.9615 17.0402C37.9988 17.0668 38.052 17.0881 38.0893 17.1254C38.6589 17.5672 38.792 18.2007 37.5516 19.835C37.2376 20.2449 36.9661 20.6069 36.7372 20.9209C36.5615 21.1658 36.3965 21.4107 36.2368 21.6343L36.5189 23.6678C36.5562 23.9393 36.487 24.2055 36.3113 24.4717C36.1835 24.6686 35.9866 24.8443 35.7257 25.0093C35.55 25.1158 35.401 25.2329 35.2839 25.35C35.236 25.3979 35.1987 25.4405 35.1561 25.4884L35.2839 26.0633C35.3424 26.3455 35.1987 26.6223 34.9432 26.7288L34.7302 26.8246C34.693 26.9896 34.6238 27.16 34.5439 27.3143C34.4162 27.5699 34.2405 27.8254 34.0169 28.0703C33.772 28.3364 33.5059 28.5281 33.2237 28.6665C32.9203 28.8049 32.6062 28.8794 32.2762 28.8794H31.2381C30.9134 28.8794 30.6525 28.6133 30.6525 28.2939C30.6525 28.0277 30.6259 27.7455 30.5567 27.4421C30.4875 27.128 30.3917 26.798 30.2533 26.4413C30.0989 26.0421 29.9765 25.6801 29.9019 25.3553C29.8114 25.0146 29.7742 24.7112 29.7742 24.4557C29.7742 24.2321 29.7955 24.0245 29.8327 23.8488C29.8806 23.6359 29.9498 23.4549 30.0563 23.3005C30.0669 23.2792 30.0776 23.2419 30.0936 23.1621C30.1149 23.045 30.1202 22.8906 30.1202 22.6936C30.1202 22.5393 30.0936 22.3796 30.0403 22.2145C29.9818 22.0282 29.8913 21.8312 29.7742 21.6183C29.6251 21.3521 29.508 21.1499 29.4388 20.9795C29.3323 20.7559 29.2738 20.5696 29.2738 20.4312C29.2738 19.473 28.9384 19.2547 28.4806 19.2547C28.2038 19.2547 27.895 19.292 27.5703 19.3452C27.171 19.4038 26.7505 19.4517 26.3352 19.4517C26.0212 19.4517 25.7177 19.3133 25.4249 19.0311C25.212 18.8235 24.9725 18.5201 24.7382 18.1315C24.5253 17.7801 24.3656 17.4927 24.2485 17.2797C24.0994 16.987 24.0249 16.7634 24.0249 16.6037V16.1512C24.0036 14.5169 23.993 12.9678 25.574 11.8233C26.2288 10.8917 26.8197 10.2848 27.5224 9.90684C28.257 9.50759 29.0768 9.36918 30.1947 9.36918C30.5194 9.36918 30.7803 9.63535 30.7803 9.95475V10.7852L31.483 11.0993L31.4936 11.0514C31.5628 10.7373 31.8769 10.535 32.191 10.5989C32.4039 10.6468 32.6115 10.7053 32.7872 10.7639C32.9842 10.8331 33.1492 10.913 33.2876 11.0088C33.3675 11.0567 33.4952 11.0993 33.6602 11.1259C33.8359 11.1578 34.0329 11.1632 34.1979 11.1365C34.2884 11.1153 34.347 11.0993 34.3629 11.078V11.0567C34.3842 10.9662 34.3895 10.881 34.4002 10.7905L33.6975 10.8491C33.442 10.8704 33.2184 10.732 33.1226 10.5137C32.8884 10.024 32.4092 9.77908 31.7917 9.465C31.137 9.12963 30.3651 8.73037 29.5186 7.93718C26.6972 8.93798 25.7976 9.07107 25.574 8.44823C25.4356 8.07559 25.6326 7.78281 25.8881 7.38887C26.1223 7.02688 26.447 6.51584 26.447 6.03673C26.447 5.78121 26.6121 5.56827 26.841 5.47777L29.2099 4.3918C28.9544 4.34389 28.6403 4.29598 28.3794 3.01304C28.3315 2.74687 28.4593 2.49667 28.6829 2.37423C28.8692 2.27841 29.0821 2.14001 29.3376 1.97498C29.5932 1.80995 29.8966 1.58105 30.2479 1.3202L30.2692 1.29891C29.0662 1.48523 27.9003 1.81528 26.7931 2.29971C25.8615 2.69896 24.9991 3.17274 24.2006 3.69976C23.3967 4.23742 22.6515 4.84429 21.9701 5.53101C21.2833 6.21773 20.6765 6.95768 20.1388 7.76151C19.6012 8.56534 19.1327 9.42774 18.7388 10.354C18.7388 10.3647 18.7281 10.3753 18.7281 10.3859C18.3448 11.2962 18.052 12.2332 17.8551 13.2073C17.6688 14.2135 17.5676 15.2302 17.5676 16.2789C17.5676 17.3277 17.6634 18.3444 17.8604 19.3239C17.871 19.3718 17.8817 19.4304 17.8923 19.4783L20.6232 20.7825C20.8309 20.8784 20.948 21.0753 20.9586 21.2936C20.9906 22.0761 20.7829 22.6564 20.5647 23.2419C20.4103 23.6838 20.24 24.131 20.224 24.6633C20.224 24.7219 20.2133 24.7698 20.192 24.8177C20.7191 25.6002 21.3153 26.3242 21.9914 26.9896C22.6781 27.6763 23.418 28.2832 24.2219 28.8209C25.0257 29.3585 25.8881 29.827 26.8144 30.2209C26.825 30.2209 26.8356 30.2316 26.8463 30.2316C27.7566 30.6149 28.6988 30.9076 29.6677 31.1046C30.6472 31.3016 31.664 31.3974 32.7127 31.3974C33.7614 31.3974 34.7782 31.3016 35.7577 31.1046C36.7478 30.9076 37.6954 30.6149 38.6057 30.2262C39.5373 29.827 40.3997 29.3532 41.1982 28.8262C42.002 28.2885 42.742 27.6817 43.4287 26.9949C44.1154 26.3082 44.7223 25.5683 45.2599 24.7644C45.7976 23.9606 46.266 23.0982 46.66 22.1719C46.66 22.1613 46.6706 22.1507 46.6706 22.1453C47.0539 21.235 47.3467 20.2928 47.5437 19.3239C47.7406 18.3444 47.8364 17.3383 47.8364 16.2896V16.3269ZM26.3406 1.27229C28.3262 0.420548 30.4502 0 32.702 0C33.8253 0 34.9166 0.106468 35.9812 0.324727C37.03 0.53234 38.0467 0.851743 39.0369 1.26697C39.0475 1.26697 39.0582 1.27762 39.0688 1.27762C40.059 1.69816 40.9799 2.20921 41.8476 2.78414C42.7207 3.35906 43.5192 4.02981 44.2538 4.75912C44.9884 5.49374 45.6539 6.29758 46.2288 7.16529C46.8144 8.03833 47.3148 8.9646 47.7353 9.9441C48.1665 10.9449 48.4806 11.9723 48.6935 13.0264C48.9065 14.0857 49.0182 15.1823 49.0182 16.3056C49.0182 17.4288 48.9118 18.5201 48.6935 19.5848C48.4859 20.6335 48.1665 21.6503 47.7513 22.6404C47.7513 22.6511 47.7406 22.6617 47.7406 22.6723C47.3201 23.6625 46.809 24.5834 46.2341 25.4512C45.6592 26.3242 44.9884 27.1227 44.2591 27.8573C43.5245 28.592 42.7207 29.2574 41.853 29.8323C40.9799 30.4179 40.0536 30.9183 39.0741 31.3388C38.0733 31.77 37.0459 32.0841 35.9919 32.297C34.9325 32.51 33.8359 32.6218 32.7127 32.6218C31.5894 32.6218 30.4981 32.5153 29.4335 32.297C28.3848 32.0894 27.368 31.77 26.3778 31.3548C26.3672 31.3548 26.3565 31.3442 26.3459 31.3442C25.3557 30.9236 24.4348 30.4126 23.5671 29.8376C22.694 29.2627 21.8955 28.592 21.1609 27.8627C20.4263 27.128 19.7609 26.3242 19.1859 25.4565C18.6004 24.5834 18.1 23.6572 17.6794 22.6777C17.2482 21.6769 16.9341 20.6495 16.7212 19.5954C16.5083 18.5361 16.3965 17.4394 16.3965 16.3162C16.3965 15.193 16.5029 14.1017 16.7212 13.037C16.9288 11.9883 17.2482 10.9715 17.6634 9.98137C17.6634 9.97072 17.6741 9.96007 17.6741 9.94943C18.0946 8.95928 18.6057 8.03833 19.1806 7.17062C19.7555 6.29758 20.4263 5.49907 21.1556 4.76444C21.8902 4.02981 22.694 3.36439 23.5618 2.78946C24.4348 2.20389 25.3611 1.70349 26.3406 1.28294V1.27229ZM18.9517 22.2199C19.0795 22.5126 19.2179 22.8054 19.3722 23.0982C19.4042 23.0184 19.4202 22.9492 19.4521 22.8746C19.5905 22.4914 19.7289 22.1187 19.7662 21.7088L18.5312 21.1232C18.6536 21.4959 18.792 21.8579 18.9517 22.2199ZM39.4148 2.84802C38.8665 2.5712 38.2969 2.33165 37.7113 2.12404C35.5181 2.63508 34.8899 2.33165 34.1873 1.98563C33.8359 1.8206 33.4526 1.63428 32.6115 1.63428H32.1111C32.0632 1.63428 31.9568 1.67155 31.7864 1.76204C31.5735 1.87916 31.2967 2.05483 30.9719 2.31035C30.6206 2.57652 30.3065 2.81075 30.0137 3.00772C29.8487 3.12483 29.689 3.22065 29.5453 3.31115C29.8274 3.38036 30.0457 3.55603 30.1894 4.86558C30.2213 5.11046 30.0829 5.35534 29.8487 5.4618L27.6182 6.47857C27.5117 7.1227 27.1604 7.67101 26.8942 8.07559C26.8836 8.08624 26.8836 8.09689 26.8729 8.09689C27.1551 7.93186 27.8311 7.35161 29.4548 6.77668C29.6677 6.68086 29.9445 6.72877 30.1095 6.91509C30.9027 7.74554 31.6853 8.13947 32.3294 8.46952C33.0161 8.82087 33.5751 9.10833 33.985 9.70455L34.9325 9.61405C34.9698 9.60341 35.0017 9.60341 35.039 9.60341C35.3637 9.60341 35.6246 9.86958 35.6246 10.189C35.6246 10.3753 35.6139 10.5616 35.598 10.7586C35.5767 10.9343 35.5607 11.1206 35.5288 11.3069V11.3282C35.5021 11.4826 35.4383 11.6316 35.3637 11.7594C35.1561 12.0841 34.8154 12.2704 34.4321 12.345C34.1181 12.4035 33.7774 12.3929 33.4633 12.345C33.1598 12.297 32.8671 12.1906 32.6594 12.0522C32.6222 12.0202 32.5689 11.9936 32.5104 11.9723L32.4784 12.1001C32.4678 12.1373 32.4572 12.1799 32.4412 12.2172C32.3134 12.51 31.9621 12.6484 31.6693 12.5206L29.9871 11.786C29.7529 11.7061 29.5932 11.4826 29.5932 11.227V10.6095C28.9757 10.6468 28.4859 10.7639 28.0654 10.9928C27.517 11.2856 27.0379 11.7966 26.479 12.6058C26.4417 12.675 26.3832 12.7336 26.314 12.7815C25.1588 13.5747 25.1801 14.847 25.1907 16.1884C25.1907 16.4653 25.2014 16.5717 25.2014 16.6463C25.2014 16.6782 25.2333 16.6676 25.2972 16.7847C25.393 16.9816 25.5421 17.2372 25.739 17.5672C25.9147 17.86 26.0797 18.0783 26.2288 18.2113C26.298 18.2805 26.3352 18.3072 26.3352 18.3072C26.6866 18.3072 27.0592 18.2592 27.4106 18.2113C27.7832 18.1634 28.1452 18.1155 28.4753 18.1155C29.6198 18.1155 30.4449 18.5361 30.4449 20.4631C30.4449 20.5004 30.4662 20.4418 30.4928 20.511C30.562 20.6495 30.6578 20.8358 30.7856 21.07C30.94 21.3521 31.0677 21.629 31.1582 21.9005C31.2487 22.1826 31.2967 22.4594 31.2967 22.7203C31.2967 22.9758 31.2754 23.21 31.2381 23.407C31.2008 23.6518 31.121 23.8382 31.0145 23.9925C30.9932 24.0138 30.9826 24.0618 30.9772 24.1203C30.956 24.2161 30.9453 24.3332 30.9453 24.4823C30.9453 24.6473 30.9773 24.8549 31.0358 25.0998C31.105 25.366 31.2008 25.6747 31.3392 26.0474C31.4936 26.4466 31.6107 26.8406 31.6906 27.2238C31.7278 27.3995 31.7598 27.5645 31.7811 27.7242H32.2708C32.4359 27.7242 32.5956 27.6976 32.7286 27.6284C32.8777 27.5592 33.0214 27.4528 33.1598 27.3037C33.3089 27.1493 33.426 26.979 33.5005 26.8139C33.5697 26.6649 33.6177 26.5318 33.6283 26.3934C33.6389 26.1805 33.7774 25.9835 33.9796 25.893L34.0382 25.8611L33.9584 25.4884C33.9317 25.3394 33.9477 25.185 34.0382 25.0466C34.1553 24.8603 34.315 24.6739 34.4907 24.5089C34.6664 24.3439 34.8633 24.1842 35.0869 24.0405C35.2147 23.95 35.2999 23.8861 35.3531 23.8169L35.0496 21.613C35.0177 21.4639 35.0497 21.3096 35.1401 21.1711C35.3052 20.905 35.5341 20.5962 35.7843 20.2289C36.0398 19.8776 36.3113 19.5049 36.6147 19.111C37.2695 18.2593 37.3866 18.0623 37.3707 18.0516C37.3334 18.025 37.2322 17.9824 37.1258 17.9345C36.7265 17.7695 36.2847 17.5938 36.0664 16.9923L36.0345 16.9018C35.9653 16.5877 36.1729 16.2736 36.4923 16.2044C38.0893 15.869 38.4886 15.5177 38.4034 15.1184C38.3342 14.7831 38.052 14.3466 37.738 13.8728C37.4345 13.4043 37.1098 12.9039 36.8969 12.3662C36.849 12.2598 36.8277 12.132 36.849 12.0149C36.9075 11.6902 37.2109 11.4772 37.5357 11.5358L40.9107 12.1427C40.9906 12.1533 41.0757 12.1906 41.1449 12.2385L42.2895 13.053C42.4385 13.1435 42.545 13.2872 42.5716 13.4629L43.0028 15.8797L44.4987 13.1967C44.5679 13.0476 44.6956 12.9305 44.8607 12.8826C45.1747 12.7868 45.5048 12.9625 45.6059 13.2659L46.1436 14.9587L46.66 16.5025C46.6813 16.1778 46.7079 15.7573 46.7664 15.3367C46.825 14.9055 46.9049 14.4743 47.0007 14.1549C47.0805 13.91 47.1763 13.7024 47.3041 13.5587C47.2136 12.9997 47.0965 12.4408 46.9421 11.9031C46.7558 11.2483 46.5216 10.6095 46.2448 9.99201C45.9626 9.36385 45.6485 8.76763 45.2865 8.19803C44.9245 7.6231 44.5413 7.08012 44.1207 6.57439C43.6895 6.06335 43.2317 5.58424 42.742 5.13708C42.2522 4.69524 41.7252 4.28533 41.1662 3.8914C40.6073 3.50812 40.0323 3.16742 39.4255 2.86399L39.4148 2.84802ZM35.3478 23.8328V23.8116C35.3478 23.8222 35.3584 23.8488 35.3584 23.8435L35.3478 23.8328ZM26.7026 8.09689C26.7239 8.15544 26.7718 8.15544 26.8676 8.09689H26.7026ZM30.0616 51.3601H18.3927C17.4558 50.4285 16.4284 49.4597 15.385 48.4748C13.1971 46.404 10.9134 44.2427 8.56575 41.5385C5.88276 38.4456 5.5953 37.3756 4.78082 34.3465C4.62644 33.7769 4.45609 33.1381 4.23251 32.345L2.83778 27.4421L2.82181 27.3889C2.07653 25.2063 2.01797 23.7636 2.32673 22.9332C2.42255 22.6777 2.54499 22.5073 2.68872 22.4168C2.80051 22.3423 2.94957 22.3157 3.10395 22.3316C3.46594 22.3689 3.87584 22.5978 4.24848 23.0077L8.39008 32.872C8.42734 32.9625 8.48058 33.0476 8.53914 33.1222C8.78401 33.564 9.11406 33.9952 9.53993 34.4051L16.8862 42.5978C17.2855 43.045 17.9722 43.0822 18.414 42.683C18.8612 42.2837 18.8985 41.597 18.4992 41.1552L11.1582 32.9571C11.1263 32.9199 11.0944 32.8826 11.0571 32.8507C10.2959 32.1267 10.0563 31.3442 10.1894 30.7746C10.232 30.5989 10.3065 30.4498 10.413 30.3487C10.5141 30.2582 10.6472 30.1943 10.8122 30.1783C11.467 30.1091 12.4359 30.5936 13.607 31.983C13.6389 32.0202 13.6762 32.0575 13.7188 32.0948L16.5668 34.6074L16.5828 34.6234C19.665 37.5406 20.9906 38.2326 23.4074 39.4943C23.9131 39.7604 24.4667 40.0479 25.1535 40.4205C25.4249 40.5696 25.6911 40.7506 25.952 40.9476C26.2288 41.1605 26.495 41.3788 26.7452 41.5917C28.0228 42.667 28.6935 43.5401 29.0768 44.5036C29.4761 45.5044 29.6198 46.7234 29.8167 48.395C29.8966 49.0711 29.9552 49.7365 30.0031 50.4019C30.0297 50.732 30.0457 51.0514 30.0616 51.3601ZM15.6778 51.7328C15.5128 51.9244 15.4116 52.1746 15.4116 52.4461V58.9087C15.4116 59.5103 15.9014 59.9947 16.4976 59.9947H31.1795C31.7811 59.9947 32.2655 59.5049 32.2655 58.9087V52.3875C32.2655 51.6955 32.2229 50.9502 32.175 50.2582C32.1271 49.5502 32.0632 48.8475 31.9834 48.1501C31.7704 46.3242 31.6107 44.988 31.0997 43.7051C30.5727 42.3902 29.7263 41.2563 28.1558 39.9308C27.8684 39.6859 27.5756 39.441 27.2668 39.2121C26.9421 38.9673 26.5908 38.733 26.1968 38.5148C25.558 38.1688 24.9618 37.8547 24.4188 37.5672C22.183 36.3961 20.9586 35.7573 18.0787 33.0317C18.0574 33.0104 18.0308 32.9891 18.0095 32.9731L15.2306 30.519C13.5325 28.5334 11.8716 27.8733 10.594 28.0117H10.5886C9.96581 28.0756 9.43347 28.3205 9.00759 28.6931L6.20216 22.0069H6.19684C6.15425 21.9111 6.10102 21.8206 6.03182 21.7354C5.2546 20.8038 4.26977 20.2608 3.32753 20.165C2.6834 20.1011 2.06056 20.2396 1.51758 20.5909C1.00121 20.9263 0.575334 21.448 0.309165 22.1666C-0.159294 23.4176 -0.148648 25.3607 0.766977 28.049L2.15106 32.9199C2.35335 33.6226 2.52902 34.2986 2.69405 34.8949C3.59902 38.2752 3.91843 39.473 6.93679 42.9438C9.327 45.696 11.664 47.9106 13.9104 50.0293C14.496 50.6095 15.0816 51.1632 15.6778 51.7328ZM17.7539 53.5374C17.8977 53.5693 18.0467 53.5693 18.1958 53.5374H30.0882V57.8281H17.5836V53.5374H17.7539ZM49.7369 51.7328C49.9019 51.9244 50.0031 52.1746 50.0031 52.4461V58.9087C50.0031 59.5103 49.5133 59.9947 48.9171 59.9947H34.2405C33.639 59.9947 33.1545 59.5049 33.1545 58.9087V52.3875C33.1545 52.3503 33.1545 52.3077 33.1598 52.2704C33.1758 51.5731 33.2024 50.897 33.245 50.2582C33.2929 49.5502 33.3568 48.8475 33.4367 48.1501C33.6496 46.3242 33.8093 44.988 34.3203 43.7051C34.8474 42.3902 35.6938 41.2563 37.2642 39.9308C37.5516 39.6859 37.8444 39.441 38.1532 39.2121C38.4779 38.9673 38.8293 38.733 39.2232 38.5148C39.862 38.1688 40.4582 37.8547 41.0012 37.5672C43.237 36.3961 44.4614 35.7573 47.3414 33.0317C47.3627 33.0104 47.3893 32.9891 47.4106 32.9731L50.1894 30.519C51.8876 28.5334 53.5485 27.8733 54.8207 28.0117H54.8261C55.4489 28.0756 55.9812 28.3205 56.4071 28.6931L59.2125 22.0069H59.2179C59.2605 21.9111 59.3137 21.8206 59.3829 21.7354C60.1601 20.8038 61.1449 20.2608 62.0872 20.165C62.7313 20.1011 63.3541 20.2396 63.8971 20.5909C64.4135 20.9263 64.8394 21.448 65.1055 22.1666C65.574 23.4176 65.5634 25.3607 64.6477 28.049L63.2636 32.9199C63.0614 33.6226 62.8857 34.2986 62.7207 34.8949C61.8157 38.2752 61.4963 39.473 58.4779 42.9438C56.0877 45.696 53.7507 47.9106 51.5043 50.0293C50.9187 50.6095 50.3331 51.1632 49.7369 51.7328ZM47.6608 53.5374C47.517 53.5693 47.368 53.5693 47.2189 53.5374H35.3265V57.8281H47.8311V53.5374H47.6608Z" fill="#A18552"/>
</svg>
