<svg width="437" height="141" viewBox="0 0 437 141" fill="none" xmlns="http://www.w3.org/2000/svg">
<path d="M55.5156 17.8965C54.3451 21.2871 53.3561 25.1823 52.5488 29.582C51.7415 33.9414 51.3379 38.7448 51.3379 43.9922C51.3379 47.7057 51.459 51.4596 51.7012 55.2539C51.9434 59.0482 52.1452 63.125 52.3066 67.4844C53.2754 66.9596 54.123 66.6973 54.8496 66.6973C55.4147 66.6973 55.9193 66.8991 56.3633 67.3027C56.8073 67.666 57.0293 68.1504 57.0293 68.7559C57.0293 69.6439 56.6257 70.3099 55.8184 70.7539C55.0111 71.1576 53.8607 71.6823 52.3672 72.3281V77.5957C52.3672 86.7988 51.8223 95.235 50.7324 102.904C49.6829 110.614 47.9674 117.234 45.5859 122.764C43.2044 128.334 40.056 132.673 36.1406 135.781C32.2656 138.889 27.5228 140.443 21.9121 140.443C19.5306 140.443 17.1895 139.979 14.8887 139.051C12.5879 138.163 10.5293 136.79 8.71289 134.934C6.93685 133.077 5.48372 130.756 4.35352 127.971C3.26367 125.226 2.71875 121.997 2.71875 118.283C2.71875 114.206 3.46549 110.311 4.95898 106.598C6.49284 102.924 8.49089 99.4733 10.9531 96.2441C13.4557 92.9746 16.3014 89.9674 19.4902 87.2227C22.679 84.4375 25.9284 81.9147 29.2383 79.6543C32.5885 77.3939 35.8783 75.416 39.1074 73.7207C42.3366 72.0254 45.2227 70.6328 47.7656 69.543C47.6849 65.3854 47.5033 61.2279 47.2207 57.0703C46.9382 52.8724 46.7969 48.5736 46.7969 44.1738C46.7969 40.0566 47.0391 36.1009 47.5234 32.3066C48.0482 28.472 48.7546 24.8997 49.6426 21.5898C48.0684 22.4779 46.3327 23.3053 44.4355 24.0723C42.5788 24.8392 40.6211 25.5658 38.5625 26.252C36.5039 26.9382 34.3848 27.6042 32.2051 28.25C30.0658 28.8958 27.9466 29.5215 25.8477 30.127C22.6589 31.0553 19.7526 32.0846 17.1289 33.2148C14.5456 34.3047 12.3255 35.5762 10.4688 37.0293C8.61198 38.4824 7.15885 40.1374 6.10938 41.9941C5.10026 43.8509 4.5957 45.9902 4.5957 48.4121C4.5957 51.2376 5.14062 53.6393 6.23047 55.6172C7.32031 57.5951 8.73307 59.2096 10.4688 60.4609C12.2448 61.6719 14.2227 62.5599 16.4023 63.125C18.6224 63.6497 20.8223 63.9121 23.002 63.9121C23.6478 63.9121 24.1725 64.1341 24.5762 64.5781C25.0202 65.0221 25.2422 65.5671 25.2422 66.2129C25.2422 66.8587 25 67.4036 24.5156 67.8477C24.0716 68.2513 23.5671 68.4531 23.002 68.4531C20.2572 68.4531 17.5124 68.0697 14.7676 67.3027C12.0632 66.4954 9.62109 65.2845 7.44141 63.6699C5.26172 62.015 3.48568 59.9362 2.11328 57.4336C0.740885 54.931 0.0546875 51.9844 0.0546875 48.5938C0.0546875 45.6471 0.639974 43.0234 1.81055 40.7227C3.02148 38.3815 4.69661 36.3027 6.83594 34.4863C8.97526 32.6699 11.5586 31.0755 14.5859 29.7031C17.6133 28.3307 20.9635 27.1198 24.6367 26.0703C27.3008 25.3034 29.9447 24.4961 32.5684 23.6484C35.1921 22.8008 37.6745 21.9329 40.0156 21.0449C42.3971 20.1165 44.5768 19.168 46.5547 18.1992C48.5326 17.1901 50.2279 16.1406 51.6406 15.0508C53.2552 10.5299 54.9909 7.05859 56.8477 4.63672C58.7044 2.17448 60.4805 0.943359 62.1758 0.943359C62.5391 0.943359 62.9225 1.02409 63.3262 1.18555C63.7702 1.30664 64.1738 1.52865 64.5371 1.85156C64.9408 2.13411 65.2637 2.53776 65.5059 3.0625C65.748 3.58724 65.8691 4.23307 65.8691 5C65.8691 6.77604 64.9408 8.79427 63.084 11.0547C61.2272 13.3151 58.7044 15.5957 55.5156 17.8965ZM47.8262 74.3262C45.485 75.3353 42.8613 76.627 39.9551 78.2012C37.0488 79.7754 34.082 81.612 31.0547 83.7109C28.0677 85.8099 25.1413 88.1309 22.2754 90.6738C19.4499 93.2168 16.9069 95.9414 14.6465 98.8477C12.4264 101.794 10.6302 104.882 9.25781 108.111C7.92578 111.381 7.25977 114.751 7.25977 118.223C7.25977 121.169 7.68359 123.753 8.53125 125.973C9.37891 128.193 10.5091 130.049 11.9219 131.543C13.375 133.036 15.0098 134.146 16.8262 134.873C18.6829 135.64 20.5801 136.023 22.5176 136.023C25.8678 136.023 28.8145 135.236 31.3574 133.662C33.9004 132.128 36.1003 129.969 37.957 127.184C39.8542 124.439 41.4284 121.149 42.6797 117.314C43.931 113.52 44.9401 109.322 45.707 104.721C46.474 100.16 47.0189 95.3158 47.3418 90.1895C47.6647 85.0228 47.8262 79.735 47.8262 74.3262ZM94.3262 91.3398C93.3171 91.3398 92.429 91.2591 91.6621 91.0977C91.0566 92.3086 90.3301 93.4388 89.4824 94.4883C88.6348 95.4974 87.6458 96.3854 86.5156 97.1523C85.4258 97.9193 84.1947 98.5247 82.8223 98.9688C81.4499 99.4128 79.9564 99.6348 78.3418 99.6348C76.4447 99.6348 74.709 99.2917 73.1348 98.6055C71.5605 97.9596 70.1882 97.0514 69.0176 95.8809C67.847 94.6699 66.9388 93.237 66.293 91.582C65.6471 89.8867 65.3242 88.0299 65.3242 86.0117C65.3242 83.4284 65.7884 81.1882 66.7168 79.291C67.6452 77.3535 68.7148 75.7591 69.9258 74.5078C71.1367 73.2161 72.3477 72.2676 73.5586 71.6621C74.7695 71.0163 75.6777 70.6934 76.2832 70.6934C76.9694 70.6934 77.474 70.875 77.7969 71.2383C78.1602 71.6016 78.3418 72.0859 78.3418 72.6914C78.3418 73.3776 78.1198 73.9023 77.6758 74.2656C77.2721 74.5885 76.7474 74.9115 76.1016 75.2344C75.4557 75.5573 74.7695 76.0215 74.043 76.627C73.3164 77.1921 72.6302 77.9186 71.9844 78.8066C71.3789 79.6947 70.8743 80.7441 70.4707 81.9551C70.0671 83.166 69.8652 84.5182 69.8652 86.0117C69.8652 87.3438 70.0671 88.5951 70.4707 89.7656C70.8743 90.8958 71.4596 91.8848 72.2266 92.7324C72.9935 93.5397 73.9017 94.1855 74.9512 94.6699C76.0007 95.1139 77.1712 95.3359 78.4629 95.3359C80.7637 95.3359 82.6608 94.8112 84.1543 93.7617C85.6882 92.6719 86.8587 91.2995 87.666 89.6445C85.2845 88.3932 83.3268 86.6172 81.793 84.3164C80.2591 82.0156 79.4922 79.4323 79.4922 76.5664C79.4922 74.2656 80.0371 72.3887 81.127 70.9355C82.2572 69.4824 83.7305 68.7559 85.5469 68.7559C86.6367 68.7559 87.666 69.0182 88.6348 69.543C89.6035 70.0677 90.4512 70.8952 91.1777 72.0254C91.9447 73.1556 92.5501 74.6087 92.9941 76.3848C93.4382 78.1608 93.6602 80.2799 93.6602 82.7422C93.6602 84.0339 93.4987 85.3861 93.1758 86.7988C93.418 86.8392 93.6602 86.8594 93.9023 86.8594C94.1445 86.8594 94.4069 86.8594 94.6895 86.8594C96.0618 86.8594 97.293 86.6979 98.3828 86.375C99.4727 86.0521 100.462 85.5677 101.35 84.9219C102.238 84.276 103.025 83.4486 103.711 82.4395C104.438 81.4303 105.124 80.2598 105.77 78.9277C105.891 78.6855 106.153 78.4635 106.557 78.2617C106.96 78.0195 107.364 77.8984 107.768 77.8984C108.292 77.8984 108.777 78.1204 109.221 78.5645C109.705 78.9681 109.947 79.513 109.947 80.1992C109.947 80.5221 109.867 80.8854 109.705 81.2891C109.544 81.6523 109.382 81.9954 109.221 82.3184C108.535 83.5293 107.727 84.6999 106.799 85.8301C105.911 86.9199 104.841 87.8887 103.59 88.7363C102.379 89.5436 101.007 90.1895 99.4727 90.6738C97.9388 91.1582 96.2233 91.3802 94.3262 91.3398ZM83.9727 76.082C83.9727 76.849 84.0736 77.6562 84.2754 78.5039C84.4772 79.3516 84.7799 80.1992 85.1836 81.0469C85.6276 81.8542 86.1523 82.6413 86.7578 83.4082C87.4036 84.1348 88.1504 84.7604 88.998 85.2852C89.1191 84.4375 89.1797 83.61 89.1797 82.8027C89.1797 81.7129 89.099 80.6029 88.9375 79.4727C88.776 78.3424 88.5339 77.3132 88.2109 76.3848C87.9284 75.416 87.5651 74.6491 87.1211 74.084C86.6771 73.4785 86.1523 73.1758 85.5469 73.1758C85.3047 73.1758 84.9818 73.3574 84.5781 73.7207C84.1745 74.084 83.9727 74.8711 83.9727 76.082ZM110.432 92.8535C111.077 91.4811 111.824 90.0078 112.672 88.4336C113.52 86.819 114.428 85.1842 115.396 83.5293C116.365 81.834 117.395 80.1589 118.484 78.5039C119.574 76.849 120.704 75.2949 121.875 73.8418C123.046 72.429 124.216 71.4199 125.387 70.8145C126.598 70.1686 127.728 69.8457 128.777 69.8457C129.827 69.8457 130.735 70.0677 131.502 70.5117C132.309 70.9154 132.955 71.4805 133.439 72.207C133.964 72.9336 134.348 73.7812 134.59 74.75C134.872 75.7188 135.014 76.7682 135.014 77.8984C135.014 78.8268 134.913 80.0781 134.711 81.6523C134.549 83.1862 134.469 84.8008 134.469 86.4961C134.469 87.4648 134.509 88.4336 134.59 89.4023C134.711 90.3307 134.893 91.1784 135.135 91.9453C135.417 92.6719 135.821 93.2773 136.346 93.7617C136.87 94.2057 137.557 94.4277 138.404 94.4277C139.373 94.4277 140.342 94.1654 141.311 93.6406C142.279 93.0755 143.228 92.349 144.156 91.4609C145.085 90.5326 145.973 89.5234 146.82 88.4336C147.668 87.3034 148.435 86.1934 149.121 85.1035C149.807 83.9733 150.413 82.9036 150.938 81.8945C151.462 80.8451 151.886 79.9772 152.209 79.291C152.613 78.3626 153.319 77.8984 154.328 77.8984C155.014 77.8984 155.559 78.1406 155.963 78.625C156.367 79.1094 156.568 79.6341 156.568 80.1992C156.568 80.5221 156.508 80.8249 156.387 81.1074C156.225 81.4303 155.902 82.0964 155.418 83.1055C154.974 84.1146 154.348 85.2852 153.541 86.6172C152.774 87.9492 151.866 89.3418 150.816 90.7949C149.767 92.248 148.596 93.6003 147.305 94.8516C146.053 96.0625 144.681 97.0716 143.188 97.8789C141.734 98.6458 140.201 99.0293 138.586 99.0293C136.729 99.0293 135.236 98.6458 134.105 97.8789C132.975 97.0716 132.087 96.0625 131.441 94.8516C130.836 93.6406 130.412 92.2884 130.17 90.7949C129.968 89.3014 129.867 87.8483 129.867 86.4355C129.867 85.709 129.887 84.9421 129.928 84.1348C130.008 83.2871 130.089 82.4596 130.17 81.6523C130.251 80.8451 130.311 80.0983 130.352 79.4121C130.432 78.6855 130.473 78.0801 130.473 77.5957C130.473 76.3444 130.291 75.4967 129.928 75.0527C129.605 74.6087 129.221 74.3867 128.777 74.3867C128.132 74.3867 127.385 74.7702 126.537 75.5371C125.73 76.2637 124.862 77.2324 123.934 78.4434C123.046 79.6543 122.137 81.0267 121.209 82.5605C120.321 84.054 119.453 85.5475 118.605 87.041C117.758 88.5345 116.991 89.9674 116.305 91.3398C115.618 92.6719 115.053 93.7819 114.609 94.6699C113.762 96.3652 112.894 97.4954 112.006 98.0605C111.158 98.666 110.391 98.9688 109.705 98.9688C108.454 98.9688 107.485 98.4844 106.799 97.5156C106.153 96.5065 105.83 95.2956 105.83 93.8828V90.0684C105.83 82.4395 105.83 75.1738 105.83 68.2715C105.87 61.3288 105.971 54.8906 106.133 48.957C106.335 42.9831 106.637 37.5944 107.041 32.791C107.485 27.9473 108.131 23.8301 108.979 20.4395C109.826 17.0085 110.896 14.3646 112.188 12.5078C113.52 10.651 115.174 9.72266 117.152 9.72266C118.848 9.72266 120.281 10.1868 121.451 11.1152C122.622 12.0436 123.57 13.3151 124.297 14.9297C125.023 16.5039 125.548 18.3607 125.871 20.5C126.194 22.599 126.355 24.819 126.355 27.1602C126.355 31.9232 125.911 36.6055 125.023 41.207C124.176 45.7682 123.025 50.2285 121.572 54.5879C120.119 58.9473 118.424 63.2057 116.486 67.3633C114.549 71.4805 112.51 75.4967 110.371 79.4121C110.371 80.1387 110.371 81.0065 110.371 82.0156C110.371 83.0247 110.371 84.0339 110.371 85.043C110.371 86.0521 110.371 87.0007 110.371 87.8887C110.371 88.7767 110.371 89.4831 110.371 90.0078L110.432 92.8535ZM110.432 70.5117C112.127 66.7982 113.661 63.1855 115.033 59.6738C116.446 56.1217 117.637 52.5898 118.605 49.0781C119.615 45.5664 120.402 42.0143 120.967 38.4219C121.532 34.7891 121.814 31.015 121.814 27.0996C121.814 26.4538 121.774 25.4245 121.693 24.0117C121.653 22.599 121.471 21.166 121.148 19.7129C120.866 18.2598 120.402 16.9883 119.756 15.8984C119.15 14.8086 118.283 14.2637 117.152 14.2637C116.264 14.2637 115.497 14.8691 114.852 16.0801C114.206 17.2507 113.641 18.8652 113.156 20.9238C112.672 22.9421 112.268 25.3034 111.945 28.0078C111.622 30.7122 111.36 33.5781 111.158 36.6055C110.956 39.6328 110.795 42.7409 110.674 45.9297C110.593 49.1185 110.533 52.2266 110.492 55.2539C110.452 58.2409 110.432 61.0462 110.432 63.6699C110.432 66.2936 110.432 68.5742 110.432 70.5117ZM165.711 92.5508C166.357 91.2188 167.104 89.7656 167.951 88.1914C168.799 86.5768 169.707 84.9622 170.676 83.3477C171.645 81.6927 172.654 80.0579 173.703 78.4434C174.793 76.8288 175.923 75.2949 177.094 73.8418C178.264 72.429 179.435 71.4199 180.605 70.8145C181.816 70.1686 182.947 69.8457 183.996 69.8457C186.095 69.8457 187.649 70.6126 188.658 72.1465C189.667 73.6803 190.172 75.5775 190.172 77.8379C190.172 78.3626 190.132 79.0085 190.051 79.7754C190.01 80.502 189.95 81.2891 189.869 82.1367C189.829 82.9844 189.768 83.8522 189.688 84.7402C189.647 85.5879 189.627 86.3952 189.627 87.1621C189.627 88.1309 189.667 89.0592 189.748 89.9473C189.869 90.8353 190.071 91.6224 190.354 92.3086C190.636 92.9544 191.04 93.4792 191.564 93.8828C192.089 94.2461 192.775 94.4277 193.623 94.4277C195.157 94.4277 196.65 93.8424 198.104 92.6719C199.557 91.4609 200.889 90.0482 202.1 88.4336C203.351 86.7786 204.421 85.1035 205.309 83.4082C206.237 81.7129 206.923 80.3405 207.367 79.291C207.569 78.847 207.852 78.5039 208.215 78.2617C208.618 78.0195 209.042 77.8984 209.486 77.8984C210.173 77.8984 210.717 78.1608 211.121 78.6855C211.565 79.1699 211.787 79.6947 211.787 80.2598C211.787 80.5423 211.727 80.8249 211.605 81.1074C211.444 81.4303 211.121 82.0964 210.637 83.1055C210.152 84.1146 209.507 85.2852 208.699 86.6172C207.932 87.9089 207.024 89.3014 205.975 90.7949C204.925 92.248 203.755 93.5801 202.463 94.791C201.212 96.002 199.839 97.0111 198.346 97.8184C196.893 98.6257 195.359 99.0293 193.744 99.0293C191.928 99.0293 190.454 98.6862 189.324 98C188.194 97.2734 187.306 96.3451 186.66 95.2148C186.014 94.0443 185.57 92.7728 185.328 91.4004C185.126 89.9876 185.025 88.5749 185.025 87.1621C185.025 86.5566 185.046 85.8704 185.086 85.1035C185.167 84.3366 185.247 83.5293 185.328 82.6816C185.449 81.834 185.53 80.9863 185.57 80.1387C185.651 79.291 185.691 78.4837 185.691 77.7168C185.691 76.4251 185.49 75.5573 185.086 75.1133C184.682 74.6289 184.319 74.3867 183.996 74.3867C183.35 74.3867 182.604 74.7702 181.756 75.5371C180.949 76.2637 180.081 77.2324 179.152 78.4434C178.264 79.6543 177.336 81.0267 176.367 82.5605C175.439 84.054 174.551 85.5475 173.703 87.041C172.896 88.5345 172.129 89.9674 171.402 91.3398C170.716 92.6719 170.171 93.7819 169.768 94.6699C168.96 96.3652 168.153 97.4954 167.346 98.0605C166.538 98.666 165.711 98.9688 164.863 98.9688C163.693 98.9688 162.744 98.6257 162.018 97.9395C161.331 97.2129 160.988 96.2038 160.988 94.9121C160.988 94.6296 161.029 94.0846 161.109 93.2773C161.19 92.4297 161.291 91.4408 161.412 90.3105C161.533 89.14 161.654 87.8887 161.775 86.5566C161.896 85.2246 162.018 83.9128 162.139 82.6211C162.26 81.2891 162.361 80.0579 162.441 78.9277C162.522 77.7975 162.562 76.849 162.562 76.082C162.562 75.0729 162.522 74.1042 162.441 73.1758C162.361 72.2474 162.199 71.6823 161.957 71.4805C161.594 71.6016 160.948 72.3685 160.02 73.7812C159.091 75.1536 157.9 77.5957 156.447 81.1074C156.245 81.5514 155.943 81.8945 155.539 82.1367C155.135 82.3789 154.712 82.5 154.268 82.5C153.581 82.5 153.036 82.278 152.633 81.834C152.229 81.3496 152.027 80.8047 152.027 80.1992C152.027 79.9167 152.088 79.6139 152.209 79.291C154.025 74.972 155.721 71.8034 157.295 69.7852C158.91 67.7266 160.504 66.6973 162.078 66.6973C163.007 66.6973 163.794 66.9395 164.439 67.4238C165.085 67.8678 165.59 68.4733 165.953 69.2402C166.357 70.0072 166.639 70.8548 166.801 71.7832C167.003 72.7116 167.104 73.6602 167.104 74.6289C167.104 75.3555 167.043 76.4857 166.922 78.0195C166.841 79.5534 166.72 81.2083 166.559 82.9844C166.397 84.7201 166.236 86.4557 166.074 88.1914C165.953 89.9271 165.832 91.3802 165.711 92.5508ZM289.105 8.93555C294.07 8.93555 299.136 9.39974 304.303 10.3281C309.469 11.2161 314.495 12.5885 319.379 14.4453C324.263 16.3021 328.865 18.6432 333.184 21.4688C337.503 24.2539 341.277 27.5234 344.506 31.2773C347.735 35.0312 350.278 39.2695 352.135 43.9922C354.032 48.7148 354.98 53.9421 354.98 59.6738C354.98 65.4056 353.971 70.7135 351.953 75.5977C349.935 80.4818 347.109 84.6999 343.477 88.252C339.844 91.804 335.505 94.5892 330.459 96.6074C325.413 98.6257 319.863 99.6348 313.809 99.6348C310.943 99.6348 307.976 99.4128 304.908 98.9688C301.84 98.5651 298.773 97.9193 295.705 97.0312C292.637 96.1432 289.61 95.0534 286.623 93.7617C283.676 92.4297 280.851 90.8555 278.146 89.0391C274.958 92.1875 271.264 94.6497 267.066 96.4258C262.909 98.1615 258.509 99.0293 253.867 99.0293C251.365 99.0293 249.023 98.7467 246.844 98.1816C244.664 97.6165 242.767 96.8092 241.152 95.7598C239.578 94.7103 238.327 93.4388 237.398 91.9453C236.51 90.4518 236.066 88.7969 236.066 86.9805C236.066 85.4062 236.45 83.9329 237.217 82.5605C238.024 81.1882 239.134 79.9772 240.547 78.9277C242 77.8783 243.715 77.0508 245.693 76.4453C247.712 75.8398 249.911 75.5371 252.293 75.5371C259.316 75.5371 267.632 78.1204 277.238 83.2871C279.014 81.0671 280.467 78.5645 281.598 75.7793C282.849 72.6712 283.818 69.4824 284.504 66.2129C285.23 62.903 285.856 59.6133 286.381 56.3438C286.946 53.0742 287.511 49.8854 288.076 46.7773C288.682 43.6693 289.489 40.7428 290.498 37.998C291.548 35.2533 292.9 32.7507 294.555 30.4902C296.25 28.1895 298.45 26.2318 301.154 24.6172C301.558 24.4154 301.921 24.3145 302.244 24.3145C302.809 24.3145 303.334 24.5163 303.818 24.9199C304.343 25.3236 304.605 25.8887 304.605 26.6152C304.605 27.4629 304.222 28.1087 303.455 28.5527C301.316 29.804 299.56 31.3783 298.188 33.2754C296.855 35.1322 295.745 37.2311 294.857 39.5723C293.969 41.9134 293.263 44.4362 292.738 47.1406C292.214 49.8451 291.709 52.6706 291.225 55.6172C290.821 58.0391 290.377 60.582 289.893 63.2461C289.408 65.8698 288.803 68.4935 288.076 71.1172C287.35 73.7005 286.421 76.2435 285.291 78.7461C284.201 81.2083 282.849 83.4889 281.234 85.5879C281.315 85.6283 281.355 85.6686 281.355 85.709C281.396 85.709 281.456 85.7292 281.537 85.7695C286.663 88.8372 291.992 91.1582 297.521 92.7324C303.051 94.3066 308.46 95.0938 313.748 95.0938C319.48 95.0938 324.606 94.1452 329.127 92.248C333.688 90.3509 337.543 87.8079 340.691 84.6191C343.84 81.39 346.242 77.6361 347.896 73.3574C349.551 69.0788 350.379 64.5579 350.379 59.7949C350.379 54.9512 349.572 50.4505 347.957 46.293C346.342 42.0951 344.122 38.2806 341.297 34.8496C338.512 31.4186 335.182 28.3711 331.307 25.707C327.472 23.043 323.314 20.8229 318.834 19.0469C314.394 17.2305 309.712 15.8581 304.787 14.9297C299.903 13.9609 294.999 13.4766 290.074 13.4766C283.454 13.4766 277.4 14.0417 271.91 15.1719C266.461 16.2617 261.758 17.8763 257.803 20.0156C253.887 22.1549 250.84 24.7786 248.66 27.8867C246.48 30.9948 245.391 34.5267 245.391 38.4824C245.391 40.7428 245.714 42.7409 246.359 44.4766C247.046 46.2122 247.893 47.7259 248.902 49.0176C249.952 50.2689 251.082 51.3385 252.293 52.2266C253.504 53.1146 254.634 53.8411 255.684 54.4062C256.733 54.931 257.621 55.3145 258.348 55.5566C259.115 55.7988 259.559 55.9401 259.68 55.9805C260.204 56.1016 260.608 56.3841 260.891 56.8281C261.214 57.2318 261.375 57.696 261.375 58.2207C261.375 58.9069 261.133 59.4316 260.648 59.7949C260.164 60.1582 259.639 60.3398 259.074 60.3398C258.267 60.3398 257.258 60.1582 256.047 59.7949C254.836 59.3913 253.544 58.806 252.172 58.0391C250.84 57.2318 249.488 56.2428 248.115 55.0723C246.783 53.8613 245.572 52.4486 244.482 50.834C243.393 49.2194 242.505 47.3828 241.818 45.3242C241.173 43.2656 240.85 40.985 240.85 38.4824C240.85 33.9212 242 29.8242 244.301 26.1914C246.642 22.5182 249.932 19.4102 254.17 16.8672C258.408 14.3242 263.474 12.3665 269.367 10.9941C275.301 9.62174 281.88 8.93555 289.105 8.93555ZM273.969 86.7383C269.771 84.5182 265.876 82.8431 262.283 81.7129C258.691 80.5827 255.401 80.0176 252.414 80.0176C250.719 80.0176 249.145 80.2194 247.691 80.623C246.279 80.9863 245.048 81.4909 243.998 82.1367C242.949 82.7826 242.121 83.5293 241.516 84.377C240.91 85.2246 240.607 86.1126 240.607 87.041C240.607 87.929 240.87 88.8171 241.395 89.7051C241.96 90.5931 242.787 91.3802 243.877 92.0664C245.007 92.7526 246.4 93.3177 248.055 93.7617C249.71 94.2057 251.647 94.4277 253.867 94.4277C257.661 94.4277 261.274 93.7617 264.705 92.4297C268.176 91.0573 271.264 89.1602 273.969 86.7383ZM389.432 91.3398C388.423 91.3398 387.535 91.2591 386.768 91.0977C386.162 92.3086 385.436 93.4388 384.588 94.4883C383.74 95.4974 382.751 96.3854 381.621 97.1523C380.531 97.9193 379.3 98.5247 377.928 98.9688C376.555 99.4128 375.062 99.6348 373.447 99.6348C371.55 99.6348 369.814 99.2917 368.24 98.6055C366.666 97.9596 365.294 97.0514 364.123 95.8809C362.952 94.6699 362.044 93.237 361.398 91.582C360.753 89.8867 360.43 88.0299 360.43 86.0117C360.43 83.4284 360.894 81.1882 361.822 79.291C362.751 77.3535 363.82 75.7591 365.031 74.5078C366.242 73.2161 367.453 72.2676 368.664 71.6621C369.875 71.0163 370.783 70.6934 371.389 70.6934C372.075 70.6934 372.579 70.875 372.902 71.2383C373.266 71.6016 373.447 72.0859 373.447 72.6914C373.447 73.3776 373.225 73.9023 372.781 74.2656C372.378 74.5885 371.853 74.9115 371.207 75.2344C370.561 75.5573 369.875 76.0215 369.148 76.627C368.422 77.1921 367.736 77.9186 367.09 78.8066C366.484 79.6947 365.98 80.7441 365.576 81.9551C365.173 83.166 364.971 84.5182 364.971 86.0117C364.971 87.3438 365.173 88.5951 365.576 89.7656C365.98 90.8958 366.565 91.8848 367.332 92.7324C368.099 93.5397 369.007 94.1855 370.057 94.6699C371.106 95.1139 372.277 95.3359 373.568 95.3359C375.869 95.3359 377.766 94.8112 379.26 93.7617C380.794 92.6719 381.964 91.2995 382.771 89.6445C380.39 88.3932 378.432 86.6172 376.898 84.3164C375.365 82.0156 374.598 79.4323 374.598 76.5664C374.598 74.2656 375.143 72.3887 376.232 70.9355C377.363 69.4824 378.836 68.7559 380.652 68.7559C381.742 68.7559 382.771 69.0182 383.74 69.543C384.709 70.0677 385.557 70.8952 386.283 72.0254C387.05 73.1556 387.656 74.6087 388.1 76.3848C388.544 78.1608 388.766 80.2799 388.766 82.7422C388.766 84.0339 388.604 85.3861 388.281 86.7988C388.523 86.8392 388.766 86.8594 389.008 86.8594C389.25 86.8594 389.512 86.8594 389.795 86.8594C391.167 86.8594 392.398 86.6979 393.488 86.375C394.578 86.0521 395.567 85.5677 396.455 84.9219C397.343 84.276 398.13 83.4486 398.816 82.4395C399.543 81.4303 400.229 80.2598 400.875 78.9277C400.996 78.6855 401.258 78.4635 401.662 78.2617C402.066 78.0195 402.469 77.8984 402.873 77.8984C403.398 77.8984 403.882 78.1204 404.326 78.5645C404.811 78.9681 405.053 79.513 405.053 80.1992C405.053 80.5221 404.972 80.8854 404.811 81.2891C404.649 81.6523 404.488 81.9954 404.326 82.3184C403.64 83.5293 402.833 84.6999 401.904 85.8301C401.016 86.9199 399.947 87.8887 398.695 88.7363C397.484 89.5436 396.112 90.1895 394.578 90.6738C393.044 91.1582 391.329 91.3802 389.432 91.3398ZM379.078 76.082C379.078 76.849 379.179 77.6562 379.381 78.5039C379.583 79.3516 379.885 80.1992 380.289 81.0469C380.733 81.8542 381.258 82.6413 381.863 83.4082C382.509 84.1348 383.256 84.7604 384.104 85.2852C384.225 84.4375 384.285 83.61 384.285 82.8027C384.285 81.7129 384.204 80.6029 384.043 79.4727C383.882 78.3424 383.639 77.3132 383.316 76.3848C383.034 75.416 382.671 74.6491 382.227 74.084C381.783 73.4785 381.258 73.1758 380.652 73.1758C380.41 73.1758 380.087 73.3574 379.684 73.7207C379.28 74.084 379.078 74.8711 379.078 76.082ZM408.02 91.3398C408.867 92.5104 409.957 93.459 411.289 94.1855C412.621 94.8717 414.256 95.2148 416.193 95.2148C418.171 95.2148 419.967 94.7507 421.582 93.8223C423.197 92.8535 424.67 91.6022 426.002 90.0684C427.334 88.5345 428.525 86.819 429.574 84.9219C430.624 83.0247 431.572 81.1276 432.42 79.2305C432.622 78.7865 432.904 78.4635 433.268 78.2617C433.631 78.0195 434.035 77.8984 434.479 77.8984C435.165 77.8984 435.71 78.1406 436.113 78.625C436.557 79.1094 436.779 79.6341 436.779 80.1992C436.779 80.401 436.759 80.5827 436.719 80.7441C436.678 80.8652 436.618 81.0065 436.537 81.168C433.752 87.3034 430.704 91.9251 427.395 95.0332C424.125 98.1413 420.411 99.7357 416.254 99.8164C413.59 99.8164 411.289 99.2917 409.352 98.2422C407.414 97.2331 405.82 95.9212 404.568 94.3066C403.317 92.6517 402.389 90.7949 401.783 88.7363C401.178 86.6777 400.875 84.6191 400.875 82.5605C400.875 80.502 401.117 78.6048 401.602 76.8691C402.126 75.1335 402.853 73.6198 403.781 72.3281C404.75 71.0365 405.88 70.0273 407.172 69.3008C408.504 68.5742 409.957 68.2109 411.531 68.2109C412.46 68.2109 413.368 68.4128 414.256 68.8164C415.184 69.1797 416.012 69.7246 416.738 70.4512C417.465 71.1374 418.05 71.985 418.494 72.9941C418.938 74.0033 419.16 75.1536 419.16 76.4453C419.16 78.1003 418.878 79.6543 418.312 81.1074C417.747 82.5605 416.96 83.9128 415.951 85.1641C414.982 86.4154 413.812 87.5658 412.439 88.6152C411.067 89.6647 409.594 90.5729 408.02 91.3398ZM406.203 87.4043C407.454 86.8796 408.585 86.2135 409.594 85.4062C410.643 84.599 411.531 83.7109 412.258 82.7422C412.984 81.7734 413.549 80.7643 413.953 79.7148C414.357 78.625 414.559 77.5352 414.559 76.4453C414.559 75.2344 414.256 74.3262 413.65 73.7207C413.045 73.0749 412.339 72.752 411.531 72.752C410.441 72.752 409.513 73.0547 408.746 73.6602C407.979 74.2656 407.354 75.0527 406.869 76.0215C406.385 76.9902 406.021 78.0801 405.779 79.291C405.577 80.4616 405.477 81.6322 405.477 82.8027C405.477 83.5293 405.537 84.2962 405.658 85.1035C405.82 85.9108 406.001 86.6777 406.203 87.4043Z" fill="white"/>
</svg>
