<svg width="8" height="13" viewBox="0 0 8 13" fill="none" xmlns="http://www.w3.org/2000/svg">
<path d="M0.560059 6.31006C0.560059 6.07006 0.653392 5.87006 0.840059 5.71006L6.00006 0.550059C6.16006 0.390059 6.35339 0.310059 6.58006 0.310059C6.80673 0.310059 7.00673 0.390059 7.18006 0.550059C7.35339 0.710059 7.44006 0.910059 7.44006 1.15006C7.44006 1.39006 7.34672 1.59006 7.16006 1.75006L2.60006 6.31006L7.16006 10.8701C7.32006 11.0301 7.40006 11.2301 7.40006 11.4701C7.40006 11.7101 7.32006 11.9101 7.16006 12.0701C7.00006 12.2301 6.80673 12.3101 6.58006 12.3101C6.35339 12.3101 6.16006 12.2301 6.00006 12.0701L0.840059 6.91006C0.653392 6.75006 0.560059 6.55006 0.560059 6.31006Z" fill="black"/>
</svg>
