<svg width="19" height="20" viewBox="0 0 19 20" fill="none" xmlns="http://www.w3.org/2000/svg">
<path d="M11.75 13L11.75 16.75C11.75 17.3467 11.5129 17.919 11.091 18.341C10.669 18.7629 10.0967 19 9.5 19L3.5 19C2.90326 19 2.33097 18.7629 1.90901 18.341C1.48705 17.919 1.25 17.3467 1.25 16.75L1.25 3.25C1.25 2.65326 1.48705 2.08097 1.90901 1.65901C2.33097 1.23705 2.90326 0.999999 3.5 0.999999L9.5 0.999999C10.0967 0.999999 10.669 1.23705 11.091 1.65901C11.5129 2.08097 11.75 2.65326 11.75 3.25L11.75 7M14.75 7L17.75 10M17.75 10L14.75 13M17.75 10L5 10" stroke="#F35060" stroke-width="1.5" stroke-linecap="round" stroke-linejoin="round"/>
</svg>
