<svg width="14" height="85" viewBox="0 0 14 85" fill="none" xmlns="http://www.w3.org/2000/svg">
<path d="M7.9 1C7.9 0.502944 7.49706 0.1 7 0.1C6.50294 0.1 6.1 0.502944 6.1 1L7.9 1ZM6.36361 84.6364C6.71508 84.9879 7.28493 84.9879 7.6364 84.6364L13.364 78.9088C13.7154 78.5574 13.7154 77.9875 13.364 77.636C13.0125 77.2846 12.4426 77.2846 12.0912 77.636L7 82.7272L1.90883 77.636C1.55736 77.2846 0.987514 77.2846 0.636043 77.636C0.284571 77.9875 0.284571 78.5574 0.636043 78.9088L6.36361 84.6364ZM6.1 1L6.1 84L7.9 84L7.9 1L6.1 1Z" fill="white"/>
</svg>
