<svg width="68" height="60" viewBox="0 0 68 60" fill="none" xmlns="http://www.w3.org/2000/svg">
<path d="M33.675 40.0982L24.3793 46.3245C23.7599 46.911 22.7788 46.8891 22.1924 46.2697C21.6004 45.6504 21.6278 44.6693 22.2472 44.0828L32.2061 37.2152L32.0362 28.5772C32.0197 27.7222 32.6994 27.0151 33.5489 26.9987C34.4039 26.9823 35.111 27.6619 35.1274 28.5114L35.2973 37.3632L45.0973 44.0773C45.7166 44.6693 45.7386 45.6449 45.1521 46.2642C44.5656 46.8836 43.5845 46.9055 42.9652 46.3191L33.675 40.0982ZM28.3311 6.9384C28.1337 6.94937 27.9858 6.99869 27.8816 7.06995C27.8158 7.1138 27.7665 7.1686 27.7391 7.23438C27.7062 7.31111 27.6898 7.3988 27.6898 7.50294C27.7007 7.80988 27.8597 8.2045 28.1666 8.66491L28.1721 8.67039L29.1751 10.2708C29.5807 10.9121 30.0027 11.5643 30.5234 12.0467C31.0277 12.5071 31.6415 12.8195 32.4472 12.8195C33.3242 12.8195 33.9655 12.4961 34.4862 12.0083C35.0288 11.504 35.4563 10.808 35.8783 10.1119L37.0074 8.24835C37.2431 7.71122 37.3143 7.37688 37.2321 7.21245C37.1718 7.09187 36.9526 7.05899 36.5909 7.09187C36.5251 7.09735 36.4648 7.08091 36.4155 7.0535C36.3606 7.0535 36.3004 7.0535 36.2455 7.04802L36.2839 6.85619C36.2839 6.84523 36.2784 6.83975 36.2784 6.82879C36.273 6.76301 36.2894 6.69724 36.3223 6.64791L36.5799 5.34893C34.5081 5.32152 33.094 4.95978 31.4168 3.89099C30.8687 3.54021 30.6988 3.13462 30.1507 3.17847C29.7342 3.26069 29.3834 3.44704 29.1093 3.74301C28.8408 4.02802 28.6435 4.42265 28.5119 4.92141L28.7695 6.94937C28.6161 6.98225 28.4736 6.98225 28.3311 6.9384ZM51.8882 43.3922C51.6909 43.4032 51.5429 43.4525 51.4388 43.5238C51.373 43.5676 51.3237 43.6224 51.2962 43.6882C51.2634 43.7649 51.2469 43.8526 51.2469 43.9568C51.2579 44.2637 51.4168 44.6583 51.7238 45.1187L51.7292 45.1242L52.7323 46.7246C53.1378 47.3659 53.5599 48.0181 54.0806 48.5005C54.5848 48.9609 55.1987 49.2733 56.0044 49.2733C56.8813 49.2733 57.5226 48.9499 58.0433 48.4621C58.5859 47.9579 59.0134 47.2618 59.4355 46.5657L60.5645 44.7022C60.8002 44.165 60.8715 43.8307 60.7893 43.6663C60.729 43.5457 60.5097 43.5128 60.148 43.5457C60.0822 43.5512 60.0219 43.5347 59.9726 43.5073C59.9178 43.5073 59.8575 43.5073 59.8027 43.5018L59.8411 43.31C59.8411 43.299 59.8356 43.2936 59.8356 43.2826C59.8301 43.2168 59.8465 43.1511 59.8794 43.1017L60.137 41.8027C58.0652 41.7753 56.6511 41.4136 54.974 40.3448C54.4259 39.994 54.256 39.5884 53.7079 39.6323C53.2913 39.7145 52.9405 39.9009 52.6665 40.1968C52.3979 40.4818 52.2006 40.8765 52.0691 41.3752L52.3267 43.4032C52.1732 43.4361 52.0307 43.4361 51.8882 43.3922ZM52.7542 50.9559L54.5519 56.2451L55.4563 53.1045L55.0123 52.6167C54.8095 52.3262 54.7712 52.0686 54.8808 51.8493C55.122 51.3725 55.6152 51.4602 56.0811 51.4602C56.5689 51.4602 57.1664 51.367 57.3198 51.9754C57.3691 52.1782 57.3089 52.3919 57.1664 52.6112L56.7224 53.099L57.6268 56.2396L59.2546 50.9505C60.4275 52.0083 63.9079 52.222 65.2014 52.94C65.6125 53.1702 65.9797 53.4607 66.2757 53.8499C66.7251 54.4473 67.0047 55.2256 67.0814 56.2122L67.35 58.8321C67.2842 59.5281 66.8896 59.9337 66.1058 59.994H56.0866H45.903C45.1247 59.9337 44.7246 59.5336 44.6588 58.8321L44.9274 56.2122C45.0041 55.2256 45.2782 54.4473 45.7331 53.8499C46.0291 53.4553 46.4018 53.1648 46.8074 52.94C48.1063 52.2275 51.5813 52.0138 52.7542 50.9559ZM60.8276 43.025C61.0469 43.0908 61.2058 43.2223 61.3045 43.4141C61.4689 43.743 61.3976 44.2363 61.0852 44.9488C61.0798 44.9598 61.0743 44.9707 61.0688 44.9817L59.9233 46.8671C59.4793 47.5961 59.0354 48.3251 58.4325 48.8841C57.8131 49.4651 57.0458 49.8488 56.0044 49.8488C55.0288 49.8488 54.2943 49.4761 53.6914 48.9225C53.1104 48.3909 52.6665 47.7057 52.2445 47.0316L51.2414 45.4366C50.8742 44.8885 50.6824 44.3843 50.6714 43.9732C50.6659 43.7814 50.6988 43.6005 50.7701 43.447C50.8468 43.2826 50.9619 43.1511 51.1154 43.0414C51.1866 42.9921 51.2688 42.9483 51.362 42.9154C51.2962 42.0494 51.2743 40.9587 51.3127 40.0434C51.3346 39.8241 51.3785 39.6104 51.4388 39.3911C51.6964 38.4758 52.3376 37.7359 53.1378 37.2262C53.4174 37.0453 53.7243 36.8973 54.0532 36.7822C55.9825 36.0861 58.5421 36.4643 59.9123 37.9496C60.4714 38.5525 60.8221 39.3528 60.8934 40.4106L60.8276 43.025ZM7.2239 43.3922C7.02658 43.4032 6.8786 43.4525 6.77446 43.5238C6.70869 43.5676 6.65936 43.6224 6.63195 43.6882C6.59907 43.7649 6.58263 43.8526 6.58263 43.9568C6.59359 44.2637 6.75254 44.6583 7.05947 45.1187L7.06495 45.1242L8.06796 46.7246C8.47356 47.3659 8.89559 48.0181 9.41628 48.5005C9.92053 48.9609 10.5344 49.2733 11.3401 49.2733C12.217 49.2733 12.8583 48.9499 13.379 48.4621C13.9216 47.9579 14.3491 47.2618 14.7657 46.5657L15.9002 44.7022C16.1359 44.165 16.2072 43.8307 16.125 43.6663C16.0647 43.5457 15.8454 43.5128 15.4837 43.5457C15.4179 43.5512 15.3576 43.5347 15.3083 43.5073C15.2535 43.5073 15.1932 43.5073 15.1384 43.5018L15.1768 43.31C15.1768 43.299 15.1713 43.2936 15.1713 43.2826C15.1658 43.2168 15.1822 43.1511 15.2151 43.1017L15.4727 41.8027C13.4009 41.7753 11.9868 41.4136 10.3097 40.3448C9.76158 39.994 9.59167 39.5884 9.04357 39.6323C8.62702 39.7145 8.27624 39.9009 8.00219 40.1968C7.73363 40.4818 7.53631 40.8765 7.40477 41.3752L7.66237 43.4032C7.51439 43.4361 7.3664 43.4361 7.2239 43.3922ZM8.09537 50.9559L9.89312 56.2451L10.7975 53.1045L10.3535 52.6167C10.1507 52.3262 10.1124 52.0686 10.222 51.8493C10.4631 51.3725 10.9564 51.4602 11.4223 51.4602C11.9101 51.4602 12.5075 51.367 12.661 51.9754C12.7103 52.1782 12.65 52.3919 12.5075 52.6112L12.0636 53.099L12.9679 56.2396L14.5958 50.9505C15.7687 52.0083 19.2491 52.222 20.5426 52.94C20.9537 53.1702 21.3209 53.4607 21.6169 53.8499C22.0663 54.4473 22.3458 55.2256 22.4226 56.2122L22.6912 58.8321C22.6254 59.5281 22.2308 59.9337 21.447 59.994H11.4278H1.24418C0.465881 59.9337 0.0657714 59.5336 0 58.8321L0.268567 56.2122C0.3453 55.2256 0.619348 54.4473 1.07427 53.8499C1.37024 53.4553 1.74294 53.1648 2.14853 52.94C3.44204 52.2275 6.91696 52.0138 8.09537 50.9559ZM16.1688 43.025C16.3881 43.0908 16.547 43.2223 16.6457 43.4141C16.8101 43.743 16.7388 44.2363 16.4264 44.9488C16.4209 44.9598 16.4155 44.9707 16.41 44.9817L15.2645 46.8671C14.8205 47.5961 14.3765 48.3251 13.7736 48.8841C13.1543 49.4651 12.387 49.8488 11.3456 49.8488C10.37 49.8488 9.63552 49.4761 9.03261 48.9225C8.45163 48.3909 8.00767 47.7057 7.58564 47.0316L6.58263 45.4366C6.2154 44.8885 6.02357 44.3843 6.01261 43.9732C6.00713 43.7814 6.04001 43.6005 6.11126 43.447C6.188 43.2826 6.3031 43.1511 6.45656 43.0414C6.52782 42.9921 6.61003 42.9483 6.70321 42.9154C6.63743 42.0494 6.61551 40.9587 6.65388 40.0434C6.6758 39.8241 6.71965 39.6104 6.77994 39.3911C7.03754 38.4758 7.67882 37.7359 8.47904 37.2262C8.75856 37.0453 9.0655 36.8973 9.39435 36.7822C11.3237 36.0861 13.8833 36.4643 15.2535 37.9496C15.8126 38.5525 16.1633 39.3528 16.2346 40.4106L16.1688 43.025ZM29.197 14.5021L30.9948 19.7912L31.8992 16.6507L31.4607 16.1683C31.2579 15.8778 31.2195 15.6202 31.3291 15.401C31.5703 14.9242 32.0636 15.0118 32.5295 15.0118C33.0173 15.0118 33.6147 14.9187 33.7682 15.5271C33.8175 15.7299 33.7572 15.9436 33.6147 16.1628L33.1707 16.6452L34.0751 19.7858L35.7029 14.4966C36.8759 15.5545 40.3563 15.7682 41.6498 16.4862C42.0608 16.7164 42.4281 17.0069 42.724 17.3961C43.1735 17.9935 43.453 18.7718 43.5297 19.7584L43.7983 22.3783C43.7325 23.0798 43.3379 23.4799 42.5541 23.5402H32.5349H22.3458C21.5676 23.4799 21.1674 23.0798 21.1017 22.3783L21.3757 19.7638C21.4525 18.7773 21.7265 17.999 22.1814 17.4015C22.4774 17.0069 22.8501 16.7164 23.2557 16.4917C24.5492 15.7737 28.0241 15.5599 29.197 14.5021ZM37.276 6.57118C37.4952 6.63695 37.6542 6.7685 37.7528 6.96033C37.9172 7.28919 37.846 7.78247 37.5336 8.495C37.5281 8.50596 37.5226 8.51692 37.5171 8.52788L36.3661 10.4133C35.9222 11.1423 35.4782 11.8713 34.8753 12.4303C34.256 13.0113 33.4886 13.395 32.4472 13.395C31.4716 13.395 30.7372 13.0223 30.1343 12.4687C29.5533 11.937 29.1093 11.2519 28.6873 10.5778L27.6843 8.9828C27.3171 8.4347 27.1252 7.93046 27.1143 7.51939C27.1088 7.32755 27.1417 7.14668 27.2129 6.99321C27.2897 6.82879 27.4048 6.69724 27.5582 6.58762C27.6295 6.5383 27.7117 6.49445 27.8049 6.46156C27.7391 5.59557 27.7172 4.50486 27.7556 3.58954C27.7775 3.3703 27.8213 3.15655 27.8816 2.93731C28.1392 2.02199 28.7805 1.28206 29.5807 0.772332C29.8602 0.591461 30.1672 0.443475 30.496 0.328375C32.4253 -0.367706 34.9849 0.0104797 36.3552 1.49582C36.9142 2.09872 37.265 2.89894 37.3363 3.95677L37.276 6.57118Z" fill="#A18552"/>
</svg>
