<svg width="19" height="16" viewBox="0 0 19 16" fill="none" xmlns="http://www.w3.org/2000/svg">
<path d="M18.52 9.62021C18.52 11.6602 17.92 13.4802 16.72 15.0802C16.6 15.2402 16.44 15.3302 16.24 15.3502C16.04 15.3702 15.86 15.3202 15.7 15.2002C15.54 15.0802 15.45 14.9302 15.43 14.7502C15.41 14.5702 15.46 14.4002 15.58 14.2402C16.62 12.8802 17.14 11.3402 17.14 9.62021C17.14 8.26021 16.8 7.00021 16.12 5.84021C15.44 4.68021 14.51 3.76021 13.33 3.08021C12.15 2.40021 10.88 2.06021 9.52002 2.06021C8.16002 2.06021 6.89002 2.40021 5.71002 3.08021C4.53002 3.76021 3.60002 4.68021 2.92002 5.84021C2.24002 7.00021 1.90002 8.26021 1.90002 9.62021C1.90002 11.3402 2.42002 12.8802 3.46002 14.2402C3.58002 14.4002 3.63002 14.5702 3.61002 14.7502C3.59002 14.9302 3.50002 15.0802 3.34002 15.2002C3.18002 15.3202 3.00002 15.3702 2.80002 15.3502C2.60002 15.3302 2.44002 15.2402 2.32002 15.0802C1.12002 13.4802 0.52002 11.6602 0.52002 9.62021C0.52002 8.02021 0.92002 6.53021 1.72002 5.15021C2.52002 3.77021 3.61002 2.68021 4.99002 1.88021C6.37002 1.08021 7.88002 0.680207 9.52002 0.680207C11.16 0.680207 12.67 1.08021 14.05 1.88021C15.43 2.68021 16.52 3.77021 17.32 5.15021C18.12 6.53021 18.52 8.02021 18.52 9.62021ZM13.96 5.42021C14.12 5.54021 14.2 5.70021 14.2 5.90021C14.2 6.10021 14.12 6.26021 13.96 6.38021L11.68 8.72021C11.88 9.08021 11.98 9.46021 11.98 9.86021C11.98 10.5402 11.74 11.1202 11.26 11.6002C10.78 12.0802 10.2 12.3202 9.52002 12.3202C8.84002 12.3202 8.26002 12.0802 7.78002 11.6002C7.30002 11.1202 7.06002 10.5402 7.06002 9.86021C7.06002 9.18021 7.30002 8.60021 7.78002 8.12021C8.26002 7.64021 8.84002 7.40021 9.52002 7.40021C9.92002 7.40021 10.3 7.50021 10.66 7.70021L13 5.42021C13.12 5.26021 13.28 5.18021 13.48 5.18021C13.68 5.18021 13.84 5.26021 13.96 5.42021ZM10.6 9.86021C10.6 9.58021 10.49 9.34021 10.27 9.14021C10.05 8.94021 9.80002 8.84021 9.52002 8.84021C9.24002 8.84021 8.99002 8.94021 8.77002 9.14021C8.55002 9.34021 8.44002 9.58021 8.44002 9.86021C8.44002 10.1402 8.55002 10.3902 8.77002 10.6102C8.99002 10.8302 9.24002 10.9402 9.52002 10.9402C9.80002 10.9402 10.05 10.8302 10.27 10.6102C10.49 10.3902 10.6 10.1402 10.6 9.86021Z" fill="white"/>
</svg>
