<svg width="16" height="24" viewBox="0 0 16 24" fill="none" xmlns="http://www.w3.org/2000/svg">
<path fill-rule="evenodd" clip-rule="evenodd" d="M1.86133 5.27344H2.28711C2.28711 5.30273 2.29102 5.33203 2.29883 5.36133L2.76562 7.13672C2.89844 7.64453 3.125 8.12305 3.46484 8.46094C3.77539 8.77148 4.17383 8.96484 4.67188 8.96484H6.53906V9.96289C6.53906 10.1211 6.66797 10.25 6.82422 10.25H8.99219C9.15039 10.25 9.27734 10.1211 9.27734 9.96484V8.96484H11.2344C11.7383 8.96484 12.1504 8.76758 12.4688 8.44922C12.8086 8.10938 13.0332 7.63086 13.1426 7.11914L13.5156 5.36523C13.5234 5.33594 13.5273 5.30469 13.5273 5.27344H13.7285C14.752 5.27344 15.5898 6.11133 15.5898 7.13477V20.6152C15.5898 21.6328 14.7617 22.4668 13.748 22.4766V23.2129C13.748 23.6465 13.3945 24 12.9609 24C12.5273 24 12.1738 23.6465 12.1738 23.2129V22.4766H3.41602V23.2129C3.41602 23.6465 3.0625 24 2.62891 24C2.19531 24 1.8418 23.6465 1.8418 23.2129V22.4766C0.826172 22.4668 0 21.6328 0 20.6152V7.13477C0 6.11133 0.837891 5.27344 1.86133 5.27344ZM3.23633 19.6113C3.04688 19.6113 2.89258 19.457 2.89258 19.2676C2.89258 19.0781 3.04688 18.9238 3.23633 18.9238H12.4043C12.5938 18.9238 12.748 19.0781 12.748 19.2676C12.748 19.457 12.5938 19.6113 12.4043 19.6113H3.23633ZM3.23633 16.2832C3.04688 16.2832 2.89258 16.1289 2.89258 15.9395C2.89258 15.75 3.04688 15.5957 3.23633 15.5957H12.4043C12.5938 15.5957 12.748 15.75 12.748 15.9395C12.748 16.1289 12.5938 16.2832 12.4043 16.2832H3.23633ZM3.23633 12.9551C3.04688 12.9551 2.89258 12.8008 2.89258 12.6113C2.89258 12.4219 3.04688 12.2676 3.23633 12.2676H12.4043C12.5938 12.2676 12.748 12.4219 12.748 12.6113C12.748 12.8008 12.5938 12.9551 12.4043 12.9551H3.23633ZM12.7578 5.61914H3.07617L3.42969 6.96094C3.53516 7.35938 3.70312 7.72656 3.95117 7.97266C4.13672 8.1582 4.375 8.27539 4.66992 8.27539H11.2344C11.5391 8.27539 11.7891 8.1543 11.9824 7.96094C12.2246 7.71875 12.3887 7.36328 12.4707 6.97656L12.7578 5.61914ZM3.09961 0H12.5605C12.6699 0 12.7598 0.0898437 12.7598 0.199219V1.48047C12.7598 1.58984 12.6699 1.67969 12.5605 1.67969H11.1387V4.89844H10.3027V1.67773H5.44727V4.89648H4.61133V1.67773H3.09961C2.99023 1.67773 2.90039 1.58789 2.90039 1.47852V0.199219C2.90039 0.0898437 2.99023 0 3.09961 0Z" fill="white"/>
</svg>
