<svg width="59" height="60" viewBox="0 0 59 60" fill="none" xmlns="http://www.w3.org/2000/svg">
<path fill-rule="evenodd" clip-rule="evenodd" d="M27.2219 23.3398L25.9719 17.6123C30.0979 18.3837 36.133 25.0195 39.966 30.2734C37.2366 32.0068 35.5715 34.5019 35.5715 37.4609C35.5707 37.8813 35.605 38.3011 35.6741 38.7158C33.7821 38.0519 31.7904 37.7167 29.7854 37.7246C27.1549 37.6914 24.5541 38.2838 22.1975 39.4531C19.2092 41.0205 17.3537 43.5205 17.3537 46.5673C17.3503 47.3998 17.4941 48.2263 17.7786 49.0087C17.7248 49.165 17.6711 49.3261 17.6272 49.497C17.4497 50.108 17.3577 50.7407 17.3537 51.3769C17.352 52.1837 17.4891 52.9848 17.759 53.7451L17.6516 54.0771C17.4603 54.7107 17.36 55.3684 17.3537 56.0302C17.3492 57.4437 17.7675 58.8261 18.5549 59.9999H18.1887C12.3879 59.7021 3.4182 59.7119 1.09886 53.7597C-2.70485 44.1308 4.22386 32.6855 10.5422 25.6787C11.3559 24.7763 12.2164 23.9173 13.1203 23.1054C15.4202 21.0839 17.9006 18.7109 20.8547 17.6855L17.9983 23.0078L22.1487 17.5048H24.3362L27.2219 23.3398ZM36.9094 54.8632C37.129 55.2167 37.2473 55.6238 37.2512 56.04C37.2512 58.208 33.8967 59.9462 29.761 59.9462C25.6252 59.9462 22.2659 58.1884 22.2659 56.04C22.271 55.624 22.3892 55.2173 22.6077 54.8632C23.5842 56.4599 26.4065 57.6171 29.761 57.6171C33.1155 57.6171 35.9621 56.4599 36.9094 54.8632ZM58.4475 53.4667C58.7208 53.9066 58.8662 54.4138 58.8674 54.9316C58.8674 57.5878 54.7512 59.746 49.6828 59.746C44.6145 59.746 40.5276 57.5634 40.5276 54.9072C40.5278 54.3892 40.6733 53.8817 40.9475 53.4423C42.1145 55.3955 45.5959 56.8164 49.7073 56.8164C53.8186 56.8164 57.3049 55.3955 58.4963 53.4423L58.4475 53.4667ZM58.4475 47.6464C58.7196 48.0868 58.8649 48.5937 58.8674 49.1113C58.8674 51.7675 54.7512 53.9257 49.6828 53.9257C44.6145 53.9257 40.5276 51.7578 40.5276 49.0869C40.5291 48.5691 40.6744 48.0619 40.9475 47.622C42.1145 49.5751 45.5959 50.996 49.7073 50.996C53.8186 50.996 57.3049 49.5751 58.4963 47.622L58.4475 47.6464ZM52.9983 35.5175L52.8909 36.7138L48.3889 36.3232C48.7619 36.8004 49.0253 37.3538 49.1604 37.9443L48.0764 37.8466C47.9714 37.4681 47.8066 37.1087 47.5881 36.7822C47.3646 36.4182 47.0408 36.1266 46.6555 35.9423L46.7385 34.9658L53.0032 35.5078L52.9983 35.5175ZM49.6828 33.6474C53.8479 33.6474 57.2268 34.9755 57.2268 36.6064C57.2268 38.2373 53.8479 39.5507 49.6828 39.5507C45.5178 39.5507 42.1389 38.2373 42.1389 36.621C42.1389 35.0048 45.5178 33.6621 49.6828 33.6621V33.6474ZM49.6828 32.6708C54.7512 32.6708 58.8674 34.829 58.8674 37.4853C58.8674 40.1415 54.7512 42.2998 49.6828 42.2998C44.6145 42.2998 40.5276 40.1367 40.5276 37.4804C40.5276 34.8242 44.6389 32.666 49.7073 32.666L49.6828 32.6708ZM58.4719 42.0019C58.721 42.4203 58.8557 42.8969 58.8625 43.3837C58.8625 46.04 54.7463 48.1982 49.678 48.1982C44.6096 48.1982 40.5276 46.0351 40.5276 43.3789C40.5214 42.8926 40.6462 42.4136 40.8889 41.9921C42.0217 43.9746 45.5276 45.4101 49.678 45.4101C53.8284 45.4101 57.3391 43.9453 58.467 41.9921L58.4719 42.0019ZM32.466 44.9658L32.3782 45.9423L28.7014 45.6201C29.0054 46.0099 29.2204 46.4616 29.3313 46.9433L28.4475 46.875C28.3626 46.5653 28.2273 46.2716 28.0471 46.0058C27.8627 45.7107 27.5987 45.4737 27.2854 45.3222L27.344 44.5214L32.4563 44.9658H32.466ZM29.7854 43.457C33.2034 43.457 35.9426 44.541 35.9426 45.8984C35.9426 47.2558 33.1838 48.3398 29.7854 48.3398C26.3869 48.3398 23.6282 47.2558 23.6282 45.8984C23.6282 44.541 26.3674 43.457 29.7854 43.457ZM29.7854 42.6562C33.9211 42.6562 37.2756 44.4189 37.2756 46.5869C37.2756 48.7548 33.9211 50.4931 29.7854 50.4931C25.6496 50.4931 22.2903 48.7353 22.2903 46.5869C22.2903 44.4384 25.6252 42.6367 29.7854 42.6367V42.6562ZM36.9582 50.2734C37.1622 50.6146 37.2717 51.0038 37.2756 51.4013C37.2756 53.5644 33.9211 55.3076 29.7854 55.3076C25.6496 55.3076 22.2903 53.5449 22.2903 51.4013C22.2935 51.0037 22.4031 50.6143 22.6077 50.2734C23.5305 51.8896 26.3918 53.0712 29.7854 53.0712C33.1789 53.0712 36.0354 51.8896 36.9582 50.2734ZM20.6741 9.91206C19.7854 7.28998 18.9846 4.63862 18.3108 1.95307C20.8303 -0.810602 30.5666 -0.444391 33.3645 1.90912L30.7619 8.06635C32.1584 6.23041 32.6272 5.47846 33.4573 4.45795C33.8013 4.689 34.1277 4.94524 34.4338 5.22455C35.1711 5.8935 35.8303 6.63081 35.9621 7.66596C36.0034 8.03585 35.9621 8.41029 35.8414 8.76235C35.7207 9.11441 35.5235 9.43534 35.2639 9.70209L29.3411 16.6259C28.5786 16.5041 27.8286 16.3145 27.0998 16.0595C27.4368 15.2636 27.8469 14.3896 28.1838 13.6181L26.0159 15.957C24.0745 15.4692 22.0212 15.7198 20.2541 16.6601L14.2239 9.39936C13.8991 9.0434 13.7136 8.58224 13.7014 8.10053C13.7014 6.35248 16.3137 4.8437 17.6809 4.27241L20.6741 9.91206Z" fill="#A18552"/>
</svg>
