<svg width="123" height="87" viewBox="0 0 123 87" fill="none" xmlns="http://www.w3.org/2000/svg">
<path fill-rule="evenodd" clip-rule="evenodd" d="M9 30.31C-0.719996 25.37 0.400003 19.86 10.17 20.44L12.35 24.54L16.86 10.54C18.63 5 21.58 0 27.37 0H85C90.78 0 94.11 4.91 95.51 10.51L98.89 24.11L100.89 20.44C110.89 19.85 111.82 25.68 101.23 30.71C99.8018 30.1634 98.3298 29.7386 96.83 29.44C95.0316 29.0846 93.2031 28.9038 91.37 28.9C89.5399 28.8993 87.7143 29.0802 85.92 29.44C84.1022 29.8006 82.3263 30.3468 80.62 31.07C78.9182 31.7743 77.2903 32.6452 75.76 33.67C74.225 34.6862 72.7917 35.8483 71.48 37.14C70.182 38.4486 69.0163 39.8823 68 41.42C65.9376 44.4782 64.5018 47.915 63.7758 51.5315C63.0497 55.1481 63.0477 58.8727 63.77 62.49C64.0983 64.1076 64.5668 65.6936 65.17 67.23L65.39 67.8C65.51 68.09 65.63 68.37 65.76 68.66H21.29V71.3C21.2847 72.17 20.9361 73.0028 20.32 73.617C19.7038 74.2313 18.87 74.5774 18 74.58H4C3.12824 74.58 2.29189 74.2351 1.67359 73.6205C1.0553 73.006 0.705287 72.1717 0.700004 71.3V63.72C0.690098 63.5501 0.690098 63.3799 0.700004 63.21C-0.329996 49.6 -1.82 37.33 9 30.31ZM94.9 36.31C98.8431 36.3081 102.716 37.3531 106.123 39.3383C109.53 41.3234 112.349 44.1776 114.291 47.609C116.234 51.0404 117.23 54.9261 117.179 58.8689C117.128 62.8116 116.031 66.6701 114 70.05L122.62 79.44C122.812 79.6484 122.913 79.9243 122.902 80.2074C122.891 80.4905 122.768 80.7575 122.56 80.95L116.23 86.72C116.128 86.8147 116.008 86.8883 115.877 86.9366C115.746 86.9849 115.607 87.0069 115.468 87.0013C115.328 86.9957 115.191 86.9627 115.065 86.9041C114.938 86.8456 114.824 86.7626 114.73 86.66L106.48 77.59C104.881 78.5679 103.164 79.3374 101.37 79.88C99.2834 80.5249 97.1139 80.8618 94.93 80.88C92.0096 80.884 89.1173 80.3096 86.42 79.19C83.718 78.067 81.2619 76.4262 79.19 74.36V74.3C77.1478 72.2417 75.5245 69.8067 74.41 67.13C73.0024 63.7511 72.4498 60.0772 72.8011 56.4337C73.1523 52.7902 74.3967 49.2895 76.4239 46.2418C78.4512 43.194 81.1987 40.6932 84.4232 38.9608C87.6477 37.2284 91.2496 36.3179 94.91 36.31H94.9ZM107.47 46C105.818 44.3477 103.858 43.0362 101.7 42.14H101.64C99.5044 41.2647 97.218 40.8162 94.91 40.82C92.5779 40.8098 90.2669 41.2624 88.111 42.1515C85.955 43.0407 83.9969 44.3488 82.35 46C80.6934 47.6483 79.3813 49.6097 78.49 51.77C77.1478 55.0167 76.7974 58.5882 77.4833 62.0338C78.1691 65.4794 79.8603 68.6446 82.3434 71.1299C84.8266 73.6152 87.9903 75.3091 91.4353 75.9979C94.8803 76.6867 98.4522 76.3394 101.7 75C103.854 74.0966 105.813 72.7859 107.47 71.14C109.95 68.6549 111.64 65.4918 112.326 62.0488C113.013 58.6058 112.667 55.0365 111.33 51.79C110.434 49.6264 109.122 47.6594 107.47 46ZM26.9 46.45L14.45 44.89C11.51 44.56 10.72 45.8 11.73 48.33L13.07 51.6C13.4541 52.3641 14.0337 53.0128 14.75 53.48C15.601 53.9659 16.5603 54.2307 17.54 54.25L28.65 54.34C31.33 54.34 32.49 53.26 31.65 50.79C31.3504 49.6921 30.7448 48.702 29.9037 47.9353C29.0626 47.1686 28.0209 46.657 26.9 46.46V46.45ZM17 27.63H93.92L90.52 13.53C89.59 9.24 86.92 5.53 82.52 5.53H29.28C24.88 5.53 22.62 9.34 21.28 13.53L17 27.63Z" fill="white"/>
</svg>
