<svg width="22" height="19" viewBox="0 0 22 19" fill="none" xmlns="http://www.w3.org/2000/svg">
<path d="M16.0597 12.521C16.5275 12.2015 17.0762 12.0211 17.6423 12.0004C18.2084 11.9798 18.7687 12.1199 19.2585 12.4044C19.7483 12.689 20.1476 13.1064 20.4101 13.6084C20.6725 14.1104 20.7875 14.6764 20.7417 15.241C19.5419 15.6603 18.2675 15.8235 17.0007 15.72C16.9968 14.5866 16.6704 13.4768 16.0597 12.522C15.5176 11.6718 14.7698 10.972 13.8855 10.4875C13.0013 10.003 12.009 9.74932 11.0007 9.75C9.99256 9.74948 9.00054 10.0032 8.11645 10.4877C7.23235 10.9723 6.48472 11.6719 5.94272 12.522M16.9997 15.719L17.0007 15.75C17.0007 15.975 16.9887 16.197 16.9637 16.416C15.1491 17.4571 13.0928 18.0033 11.0007 18C8.83072 18 6.79372 17.424 5.03772 16.416C5.01201 16.1846 4.99965 15.9519 5.00072 15.719M5.00072 15.719C3.73435 15.8263 2.46063 15.6637 1.26172 15.242C1.21607 14.6776 1.33111 14.1117 1.59355 13.6099C1.85598 13.1081 2.25509 12.6908 2.74472 12.4063C3.23435 12.1218 3.79451 11.9817 4.36044 12.0021C4.92636 12.0226 5.47493 12.2028 5.94272 12.522M5.00072 15.719C5.00431 14.5857 5.33234 13.4769 5.94272 12.522M14.0007 3.75C14.0007 4.54565 13.6846 5.30871 13.122 5.87132C12.5594 6.43393 11.7964 6.75 11.0007 6.75C10.2051 6.75 9.44201 6.43393 8.8794 5.87132C8.31679 5.30871 8.00072 4.54565 8.00072 3.75C8.00072 2.95435 8.31679 2.19129 8.8794 1.62868C9.44201 1.06607 10.2051 0.75 11.0007 0.75C11.7964 0.75 12.5594 1.06607 13.122 1.62868C13.6846 2.19129 14.0007 2.95435 14.0007 3.75ZM20.0007 6.75C20.0007 7.04547 19.9425 7.33806 19.8294 7.61104C19.7164 7.88402 19.5506 8.13206 19.3417 8.34099C19.1328 8.54992 18.8847 8.71566 18.6118 8.82873C18.3388 8.9418 18.0462 9 17.7507 9C17.4552 9 17.1627 8.9418 16.8897 8.82873C16.6167 8.71566 16.3687 8.54992 16.1597 8.34099C15.9508 8.13206 15.7851 7.88402 15.672 7.61104C15.5589 7.33806 15.5007 7.04547 15.5007 6.75C15.5007 6.15326 15.7378 5.58097 16.1597 5.15901C16.5817 4.73705 17.154 4.5 17.7507 4.5C18.3475 4.5 18.9198 4.73705 19.3417 5.15901C19.7637 5.58097 20.0007 6.15326 20.0007 6.75ZM6.50072 6.75C6.50072 7.04547 6.44252 7.33806 6.32945 7.61104C6.21637 7.88402 6.05064 8.13206 5.84171 8.34099C5.63278 8.54992 5.38474 8.71566 5.11176 8.82873C4.83877 8.9418 4.54619 9 4.25072 9C3.95524 9 3.66266 8.9418 3.38968 8.82873C3.1167 8.71566 2.86866 8.54992 2.65973 8.34099C2.4508 8.13206 2.28506 7.88402 2.17199 7.61104C2.05892 7.33806 2.00072 7.04547 2.00072 6.75C2.00072 6.15326 2.23777 5.58097 2.65973 5.15901C3.08168 4.73705 3.65398 4.5 4.25072 4.5C4.84745 4.5 5.41975 4.73705 5.84171 5.15901C6.26366 5.58097 6.50072 6.15326 6.50072 6.75Z" stroke="white" stroke-width="1.5" stroke-linecap="round" stroke-linejoin="round"/>
</svg>
