<svg width="54" height="50" viewBox="0 0 54 50" fill="none" xmlns="http://www.w3.org/2000/svg">
<path d="M34.4996 42.82C36.632 43.4391 38.8416 43.7523 41.0621 43.75C44.6331 43.7552 48.1577 42.9409 51.3646 41.37C51.4594 39.1293 50.8211 36.9187 49.5465 35.0733C48.2719 33.228 46.4305 31.8484 44.3013 31.1438C42.1721 30.4391 39.8713 30.4478 37.7475 31.1685C35.6237 31.8892 33.7927 33.2826 32.5321 35.1375M34.4996 42.82V42.8125C34.4996 40.03 33.7846 37.4125 32.5321 35.1375M34.4996 42.82V43.085C29.6883 45.9827 24.1761 47.5095 18.5596 47.5C12.7321 47.5 7.27957 45.8875 2.62457 43.085L2.62207 42.8125C2.62015 39.2737 3.79611 35.8348 5.96453 33.0382C8.13295 30.2415 11.1705 28.2461 14.5983 27.3665C18.0261 26.4869 21.6491 26.7732 24.8962 28.1802C28.1433 29.5873 30.8298 32.035 32.5321 35.1375M26.9996 10.9375C26.9996 13.1753 26.1106 15.3214 24.5283 16.9037C22.9459 18.4861 20.7998 19.375 18.5621 19.375C16.3243 19.375 14.1782 18.4861 12.5959 16.9037C11.0135 15.3214 10.1246 13.1753 10.1246 10.9375C10.1246 8.69974 11.0135 6.55362 12.5959 4.97129C14.1782 3.38895 16.3243 2.5 18.5621 2.5C20.7998 2.5 22.9459 3.38895 24.5283 4.97129C26.1106 6.55362 26.9996 8.69974 26.9996 10.9375ZM47.6246 16.5625C47.6246 18.303 46.9332 19.9722 45.7025 21.2029C44.4718 22.4336 42.8026 23.125 41.0621 23.125C39.3216 23.125 37.6524 22.4336 36.4217 21.2029C35.191 19.9722 34.4996 18.303 34.4996 16.5625C34.4996 14.822 35.191 13.1528 36.4217 11.9221C37.6524 10.6914 39.3216 10 41.0621 10C42.8026 10 44.4718 10.6914 45.7025 11.9221C46.9332 13.1528 47.6246 14.822 47.6246 16.5625Z" stroke="#A18552" stroke-width="4" stroke-linecap="round" stroke-linejoin="round"/>
</svg>
