<svg width="170" height="50" viewBox="0 0 170 50" fill="none" xmlns="http://www.w3.org/2000/svg">
<path fill-rule="evenodd" clip-rule="evenodd" d="M7.97473 0.774414C6.29456 0.774414 4.68321 1.44186 3.49515 2.62992C2.30709 3.81798 1.63965 5.42933 1.63965 7.1095V42.3044C1.63965 43.9846 2.30709 45.5959 3.49515 46.784C4.68321 47.972 6.29456 48.6395 7.97473 48.6395H162.832C164.512 48.6395 166.124 47.972 167.312 46.784C168.5 45.5959 169.167 43.9846 169.167 42.3044V7.1095C169.167 5.42933 168.5 3.81798 167.312 2.62992C166.124 1.44186 164.512 0.774414 162.832 0.774414H7.97473Z" fill="#0A0B09" stroke="#B0B2B7" stroke-width="1.4078"/>
<path fill-rule="evenodd" clip-rule="evenodd" d="M60.2744 12.6884C60.2744 13.7203 59.9633 14.5424 59.341 15.1548C58.6357 15.8841 57.715 16.2487 56.5831 16.2487C55.4991 16.2487 54.5784 15.8798 53.8196 15.1393C53.0622 14.4002 52.6821 13.4824 52.6821 12.3885C52.6821 11.2932 53.0622 10.3768 53.8196 9.63766C54.5784 8.89716 55.4991 8.52832 56.5831 8.52832C57.1209 8.52832 57.6362 8.63109 58.1247 8.83804C58.6132 9.04357 59.006 9.31809 59.2988 9.663L58.6385 10.3134C58.1416 9.72917 57.4574 9.43635 56.5831 9.43635C56.2042 9.43116 55.828 9.501 55.4762 9.64187C55.1244 9.78273 54.804 9.99182 54.5334 10.2571C53.9562 10.8047 53.6676 11.5157 53.6676 12.3885C53.6676 13.2613 53.9562 13.9723 54.5334 14.5199C55.1106 15.0689 55.792 15.3392 56.5831 15.3392C57.4222 15.3392 58.1204 15.0647 58.6808 14.5157C59.044 14.1567 59.2537 13.6583 59.31 13.0178H56.5831V12.1309H60.2223C60.2575 12.3237 60.2744 12.5096 60.2744 12.6884Z" fill="#FFFFFE"/>
<path fill-rule="evenodd" clip-rule="evenodd" d="M60.2742 12.6882H60.1489C60.1489 13.6962 59.849 14.4804 59.2535 15.0674L59.2521 15.0688C58.5679 15.7727 57.6881 16.1247 56.5829 16.1247C55.5271 16.1247 54.6458 15.7699 53.9081 15.0519C53.1733 14.3339 52.81 13.4555 52.8072 12.3884C52.8086 11.3213 53.1733 10.4428 53.9081 9.72482C54.6458 9.00684 55.5271 8.65208 56.5829 8.65067C57.1038 8.65067 57.6022 8.75063 58.0752 8.95053C58.5482 9.15044 58.9241 9.41511 59.2028 9.74171L59.2986 9.66288L59.2099 9.57559L58.5496 10.226L58.6383 10.3133L58.7341 10.2344C58.2146 9.62064 57.4839 9.31093 56.5829 9.31374C55.7856 9.30454 55.0171 9.61183 54.4459 10.1683C53.8434 10.737 53.5407 11.4874 53.5421 12.3884C53.5421 13.2894 53.8434 14.0383 54.4459 14.6085C55.0169 15.1654 55.7854 15.4732 56.5829 15.4644C57.4487 15.4644 58.1878 15.1758 58.7692 14.6014C59.1564 14.2185 59.3774 13.6892 59.4351 13.0289L59.4464 12.8952H56.7082V12.2532H60.2221V12.1307L60.0982 12.1519C60.132 12.3391 60.1489 12.5165 60.1489 12.6868H60.3995C60.3995 12.501 60.3812 12.3081 60.3446 12.1096L60.3263 12.0083H56.4576V13.1415H59.3098V13.0177L59.1845 13.0078C59.1282 13.6272 58.9297 14.0946 58.5919 14.4283C58.0527 14.9548 57.3938 15.2166 56.5829 15.2166C55.8227 15.2166 55.1751 14.9576 54.6191 14.4325C54.0672 13.906 53.7941 13.2359 53.7927 12.3884C53.7927 11.5409 54.0672 10.8708 54.6191 10.3443C54.8784 10.0903 55.1855 9.8903 55.5226 9.75571C55.8596 9.62113 56.22 9.55464 56.5829 9.56011C57.4304 9.56011 58.0682 9.83744 58.5426 10.3921L58.6299 10.4949L59.3873 9.74875L59.4689 9.67132L59.3943 9.58404C59.0603 9.20587 58.6422 8.91127 58.1738 8.72388C57.6703 8.51173 57.1293 8.40305 56.5829 8.40431C55.4708 8.40431 54.5107 8.78723 53.7321 9.55025C52.9508 10.3105 52.5566 11.2664 52.5566 12.3884C52.5566 13.5104 52.9508 14.4663 53.7321 15.2279C54.1065 15.5998 54.5518 15.8927 55.0415 16.0893C55.5312 16.2859 56.0553 16.3822 56.5829 16.3724C57.7416 16.3724 58.7031 15.9937 59.4323 15.2406L59.3408 15.1561L59.4295 15.242C60.0771 14.6042 60.4009 13.7427 60.4009 12.6882H60.2742ZM66.0419 9.60093H62.621V11.9449H65.7055V12.8318H62.6224V15.1758H66.0433V16.0838H61.658V8.69291H66.0419V9.60093Z" fill="#FFFFFE"/>
<path fill-rule="evenodd" clip-rule="evenodd" d="M66.0419 9.60125V9.47736H62.4985V12.0677H65.5816V12.7083H62.4985V15.2986H65.9195V15.9603H61.7848V8.8157H65.9181V9.60125H66.0448H66.1687V8.56934H61.5342V16.2066H66.1687V15.0522H62.7477V12.9546H65.8308V11.8213H62.7477V9.72373H66.1687V9.60125H66.0419ZM70.1105 16.0842H69.1447V9.60125H67.0471V8.69322H72.2081V9.60125H70.1105V16.0842Z" fill="#FFFFFE"/>
<path fill-rule="evenodd" clip-rule="evenodd" d="M70.1105 16.0842V15.9603H69.2701V9.47736H67.1725V8.8157H72.0829V9.47736H69.9852V16.0842H70.1105H70.2358V9.72373H72.3334V8.56934H66.9219V9.72373H69.0195V16.2066H70.2358V16.0842H70.1105ZM75.9402 16.0842H76.906V8.69322H75.9402V16.0842Z" fill="#FFFFFE"/>
<path fill-rule="evenodd" clip-rule="evenodd" d="M75.9402 16.0842H76.0669V8.8157H76.7793V15.9603H75.9402V16.0842V16.2066H77.0299V8.56934H75.8149V16.2066H75.9402V16.0842ZM81.1843 16.0842H80.2185V9.60125H78.1209V8.69322H83.2805V9.60125H81.1829L81.1843 16.0842Z" fill="#FFFFFE"/>
<path fill-rule="evenodd" clip-rule="evenodd" d="M81.1843 16.084V15.9601H80.3439V9.47718H78.2463V8.81551H83.1566V9.47718H81.059V16.084H81.1843H81.3096V9.72354H83.4072V8.56915H77.9971V9.72354H80.0947V16.2064H81.3096V16.084H81.1843ZM88.2557 14.51C88.8118 15.0633 89.4917 15.3406 90.2956 15.3406C90.6743 15.3489 91.0507 15.2794 91.4015 15.1365C91.7524 14.9937 92.0702 14.7805 92.3355 14.51C92.8902 13.9554 93.1689 13.2487 93.1689 12.3885C93.1689 11.5297 92.8902 10.8216 92.3355 10.2669C92.0701 9.99635 91.752 9.78304 91.4009 9.64018C91.0498 9.49732 90.6731 9.42795 90.2942 9.43635C89.4917 9.43635 88.8118 9.71228 88.2557 10.2669C87.701 10.8216 87.4223 11.5283 87.4223 12.3885C87.4223 13.2473 87.701 13.9554 88.2557 14.51ZM93.0478 15.1295C92.3115 15.8756 91.3923 16.2487 90.2956 16.2487C89.1975 16.2487 88.281 15.8756 87.5433 15.1295C86.8057 14.3833 86.4368 13.4683 86.4368 12.3885C86.4368 11.3087 86.8057 10.3937 87.5433 9.64752C88.281 8.90139 89.1975 8.52832 90.2956 8.52832C91.3866 8.52832 92.3017 8.90279 93.0436 9.65315C93.7841 10.4021 94.1544 11.3143 94.1544 12.3885C94.1544 13.4683 93.7855 14.3833 93.0478 15.1295Z" fill="#FFFFFE"/>
<path fill-rule="evenodd" clip-rule="evenodd" d="M88.2558 14.5099L88.1671 14.5958C88.7443 15.173 89.4622 15.4658 90.2957 15.4644C91.1291 15.4644 91.8485 15.1716 92.4242 14.5958C93.0043 14.02 93.2971 13.2739 93.2943 12.3884C93.2957 11.5015 93.0043 10.7567 92.4242 10.1809C92.1472 9.8991 91.8155 9.67681 91.4494 9.52769C91.0834 9.37857 90.6908 9.30577 90.2957 9.31374C89.4622 9.31374 88.7429 9.60374 88.1671 10.1809C87.5885 10.7581 87.2956 11.5029 87.2971 12.3884C87.2956 13.2753 87.5885 14.0214 88.1671 14.5958L88.3459 14.4226C87.8137 13.8919 87.549 13.2218 87.5476 12.3884C87.5476 11.5549 87.8137 10.8848 88.3459 10.3527C88.5997 10.0943 88.9024 9.89074 89.238 9.75443C89.5736 9.61811 89.9335 9.55198 90.2957 9.5601C90.6576 9.55184 91.0174 9.61791 91.3527 9.75424C91.6881 9.89057 91.9919 10.0943 92.2455 10.3527C92.7776 10.8848 93.0437 11.5549 93.0451 12.3884C93.0437 13.2218 92.7776 13.8905 92.2455 14.4226C91.9922 14.6816 91.6885 14.8858 91.3531 15.0226C91.0177 15.1594 90.6578 15.2259 90.2957 15.218C89.9334 15.2255 89.5734 15.1587 89.2379 15.0219C88.9023 14.8852 88.5997 14.6812 88.3459 14.4226L88.2558 14.5099ZM93.0479 15.1293L92.9592 15.0435C92.2412 15.7671 91.3642 16.1247 90.2957 16.1261C89.2257 16.1247 88.3487 15.7671 87.6335 15.0421C86.9184 14.3156 86.5636 13.4414 86.5636 12.3884C86.5636 11.3353 86.9184 10.4597 87.6335 9.73326C88.3487 9.00965 89.2271 8.65207 90.2943 8.65066C91.3571 8.65207 92.2328 9.01247 92.955 9.73889C93.673 10.4681 94.0277 11.3438 94.0291 12.3884C94.0291 13.4414 93.6744 14.317 92.9592 15.0435L93.138 15.2138C93.8982 14.448 94.2811 13.4963 94.2783 12.3884C94.2881 11.8652 94.1917 11.3454 93.995 10.8605C93.7983 10.3756 93.5053 9.93563 93.1338 9.56714C92.3707 8.79285 91.4163 8.40289 90.2957 8.4043C89.1694 8.4043 88.2121 8.79285 87.4533 9.56292C86.6931 10.3302 86.3102 11.2804 86.313 12.3884C86.3102 13.4963 86.6931 14.448 87.4533 15.2138C88.2121 15.9853 89.1694 16.3738 90.2957 16.3724C91.4219 16.3724 92.3778 15.9853 93.138 15.2138L93.0479 15.1293ZM95.5087 16.0838V8.6929H96.6828L100.332 14.4423H100.374L100.332 13.0176V8.6929H101.298V16.0838H100.29L96.4745 10.0556H96.4308L96.4731 11.4803V16.0838H95.5087Z" fill="#FFFFFE"/>
<path fill-rule="evenodd" clip-rule="evenodd" d="M95.5086 16.0842H95.6339V8.8157H96.6138L100.263 14.5665H100.502L100.457 13.018V8.81429H101.172V15.9589H100.36L96.542 9.93068H96.3026L96.3477 11.4807V15.9589H95.5086V16.0827L95.5072 16.2052H96.5983V11.4778L96.556 10.0532L96.4293 10.056V10.1784H96.473V10.056L96.3674 10.1207L100.221 16.2066H101.423V8.56934H100.208V13.0222L100.249 14.4469L100.374 14.4441V14.3216H100.332V14.4441L100.439 14.3793L96.7517 8.57074H95.3833V16.208H95.5086V16.0856M134.752 37.0251H137.088V21.6266H134.752V37.0251ZM155.785 27.1734L153.107 33.8491H153.028L150.249 27.1734H147.735L151.901 36.5042L149.526 41.6948H151.961L158.381 27.1734H155.785ZM142.543 35.2752C141.777 35.2752 140.71 34.9008 140.71 33.9688C140.71 32.7806 142.039 32.3245 143.185 32.3245C144.213 32.3245 144.694 32.5427 145.319 32.8397C145.138 34.2658 143.89 35.2752 142.543 35.2752ZM142.825 26.8369C141.134 26.8369 139.383 27.569 138.658 29.195L140.73 30.0453C141.173 29.195 141.997 28.9162 142.864 28.9162C144.072 28.9162 145.3 29.6286 145.319 30.8984V31.0561C144.897 30.8167 143.992 30.462 142.884 30.462C140.651 30.462 138.376 31.6699 138.376 33.928C138.376 35.989 140.206 37.3165 142.26 37.3165C143.83 37.3165 144.696 36.6239 145.239 35.8102H145.319V36.9998H147.572V31.0969C147.572 28.3615 145.501 26.8369 142.825 26.8369ZM128.393 29.0471H125.071V23.7693H128.393C129.106 23.7565 129.795 24.0272 130.308 24.5219C130.821 25.0166 131.117 25.6948 131.13 26.4075C131.113 27.1192 130.817 27.7957 130.304 28.2899C129.792 28.7841 129.105 29.0562 128.393 29.0471ZM128.333 21.6266H122.738V37.0251H125.072V31.1912H128.333C130.92 31.1912 133.466 29.347 133.466 26.4075C133.466 23.4695 130.92 21.6266 128.333 21.6266ZM97.8231 35.278C96.2097 35.278 94.8597 33.9491 94.8597 32.1246C94.8597 30.279 96.2111 28.9289 97.8231 28.9289C99.4167 28.9289 100.665 30.279 100.665 32.1246C100.665 33.9491 99.4167 35.278 97.8231 35.278ZM100.504 28.0349H100.423C99.8996 27.4211 98.8916 26.8651 97.6217 26.8651C94.961 26.8651 92.5213 29.1654 92.5213 32.1232C92.5213 35.0598 94.9596 37.3433 97.6217 37.3433C98.8916 37.3433 99.8996 36.7872 100.423 36.1523H100.504V36.9055C100.504 38.9116 99.4167 39.9829 97.6626 39.9829C96.2308 39.9829 95.3425 38.9693 94.9807 38.1162L92.9436 38.951C93.5293 40.3405 95.0821 42.0453 97.6626 42.0453C100.404 42.0453 102.722 40.4587 102.722 36.5887V27.1818H100.504V28.0349ZM104.336 37.0251H106.674V21.6238H104.336V37.0251ZM110.122 31.9444C110.1 31.5604 110.155 31.176 110.284 30.8136C110.412 30.4512 110.612 30.118 110.871 29.8336C111.13 29.5492 111.443 29.3192 111.791 29.1571C112.14 28.995 112.518 28.904 112.902 28.8895C113.831 28.8895 114.617 29.3442 114.879 30.0002L110.122 31.9444ZM117.379 30.1987C116.935 29.0274 115.584 26.8651 112.822 26.8651C110.081 26.8651 107.803 28.988 107.803 32.1035C107.803 35.0401 110.061 37.3433 113.084 37.3433C113.957 37.3507 114.819 37.1425 115.592 36.7374C116.366 36.3322 117.028 35.7425 117.52 35.0204L115.705 33.8294C115.101 34.7023 114.275 35.2795 113.084 35.2795C111.895 35.2795 111.048 34.7431 110.503 33.6915L117.619 30.7942L117.379 30.1987ZM60.6812 28.4728V30.6943H66.0829C65.9224 31.9444 65.4986 32.858 64.8553 33.493C64.0669 34.2673 62.8379 35.119 60.6812 35.119C59.9024 35.1249 59.1301 34.9762 58.4093 34.6813C57.6884 34.3865 57.0333 33.9514 56.4819 33.4014C55.9306 32.8513 55.4939 32.1972 55.1974 31.4771C54.9008 30.7569 54.7502 29.985 54.7543 29.2062C54.7543 25.9317 57.3545 23.2935 60.6812 23.2935C62.4761 23.2935 63.7854 23.9875 64.7539 24.8801L66.3461 23.3118C64.9947 22.0419 63.2011 21.0692 60.6812 21.0692C56.1255 21.0692 52.2949 24.721 52.2949 29.2062C52.2949 33.6915 56.1241 37.3433 60.6812 37.3433C63.1406 37.3433 64.9947 36.5493 66.4461 35.0598C67.9384 33.5915 68.4029 31.5291 68.4029 29.8608C68.4081 29.3952 68.3671 28.9303 68.2805 28.4728H60.6812ZM74.5451 35.278C72.9318 35.278 71.5409 33.9688 71.5409 32.1035C71.5409 30.217 72.9318 28.9289 74.5451 28.9289C76.1571 28.9289 77.548 30.2184 77.548 32.1035C77.548 33.9688 76.1571 35.278 74.5451 35.278ZM74.5451 26.8651C71.6014 26.8651 69.2026 29.0669 69.2026 32.1035C69.2026 35.119 71.6014 37.3433 74.5451 37.3433C77.4874 37.3433 79.8877 35.119 79.8877 32.1035C79.8877 29.0669 77.4888 26.8651 74.5451 26.8651ZM86.1989 35.278C84.587 35.278 83.1946 33.9688 83.1946 32.1035C83.1946 30.217 84.587 28.9289 86.1989 28.9289C87.8122 28.9289 89.2031 30.2184 89.2031 32.1035C89.2031 33.9688 87.8122 35.278 86.1989 35.278ZM86.1989 26.8651C83.2566 26.8651 80.8577 29.0669 80.8577 32.1035C80.8577 35.119 83.2566 37.3433 86.1989 37.3433C89.1426 37.3433 91.5415 35.119 91.5415 32.1035C91.5415 29.0669 89.1426 26.8651 86.1989 26.8651Z" fill="#FFFFFE"/>
<path fill-rule="evenodd" clip-rule="evenodd" d="M13.9941 9.3675C13.6281 9.74761 13.4155 10.3332 13.4155 11.0963V38.3174C13.4155 39.079 13.6295 39.6675 13.9927 40.0462L14.0856 40.1349L29.577 24.887V24.5267L14.0842 9.27881L13.9927 9.3675" fill="#60C2E3"/>
<mask id="mask0_0_398" style="mask-type:luminance" maskUnits="userSpaceOnUse" x="29" y="19" width="14" height="11">
<path d="M34.7395 29.9718L29.5771 24.8869V24.5265L34.7424 19.4443L40.9761 22.9286C42.7232 23.9071 42.7232 25.5049 40.9761 26.4833L34.8578 29.9043L34.7395 29.9718Z" fill="white"/>
</mask>
<g mask="url(#mask0_0_398)">
<path fill-rule="evenodd" clip-rule="evenodd" d="M34.7395 29.9718L29.5771 24.8869V24.5265L34.7424 19.4443L40.9761 22.9286C42.7232 23.9071 42.7232 25.5049 40.9761 26.4833L34.8578 29.9043L34.7395 29.9718Z" fill="url(#paint0_linear_0_398)"/>
</g>
<mask id="mask1_0_398" style="mask-type:luminance" maskUnits="userSpaceOnUse" x="13" y="24" width="22" height="17">
<path d="M34.8581 29.9046L29.5775 24.707L13.9932 40.0464C14.5704 40.6461 15.522 40.7207 16.5934 40.1224L34.8581 29.906" fill="white"/>
</mask>
<g mask="url(#mask1_0_398)">
<path fill-rule="evenodd" clip-rule="evenodd" d="M34.8581 29.9046L29.5775 24.707L13.9932 40.0464C14.5704 40.6461 15.522 40.7207 16.5934 40.1224L34.8581 29.906" fill="url(#paint1_linear_0_398)"/>
</g>
<mask id="mask2_0_398" style="mask-type:luminance" maskUnits="userSpaceOnUse" x="13" y="8" width="22" height="17">
<path d="M34.8582 19.5096L16.5934 9.29179C15.5221 8.69347 14.5704 8.76808 13.9946 9.36921L29.5775 24.7086L34.8582 19.511" fill="white"/>
</mask>
<g mask="url(#mask2_0_398)">
<path fill-rule="evenodd" clip-rule="evenodd" d="M34.8582 19.5096L16.5934 9.29179C15.5221 8.69347 14.5704 8.76808 13.9946 9.36921L29.5775 24.7086L34.8582 19.5096Z" fill="url(#paint2_linear_0_398)"/>
</g>
<defs>
<linearGradient id="paint0_linear_0_398" x1="1055.82" y1="545.798" x2="-1969.67" y2="545.798" gradientUnits="userSpaceOnUse">
<stop stop-color="#EC942D"/>
<stop offset="1" stop-color="#FBDE1E"/>
</linearGradient>
<linearGradient id="paint1_linear_0_398" x1="1813.49" y1="307.181" x2="-131.901" y2="3634.59" gradientUnits="userSpaceOnUse">
<stop stop-color="#DD4245"/>
<stop offset="1" stop-color="#B72162"/>
</linearGradient>
<linearGradient id="paint2_linear_0_398" x1="-1044.81" y1="-1504.44" x2="543.814" y2="1212.33" gradientUnits="userSpaceOnUse">
<stop stop-color="#6CB966"/>
<stop offset="1" stop-color="#299567"/>
</linearGradient>
</defs>
</svg>
