<svg width="50" height="50" viewBox="0 0 50 50" fill="none" xmlns="http://www.w3.org/2000/svg">
<path d="M25 10V40M17.5 32.955L19.6975 34.6025C22.625 36.8 27.3725 36.8 30.3025 34.6025C33.2325 32.405 33.2325 28.845 30.3025 26.6475C28.84 25.5475 26.92 25 25 25C23.1875 25 21.375 24.45 19.9925 23.3525C17.2275 21.155 17.2275 17.595 19.9925 15.3975C22.7575 13.2 27.2425 13.2 30.0075 15.3975L31.045 16.2225M47.5 25C47.5 27.9547 46.918 30.8806 45.7873 33.6104C44.6566 36.3402 42.9992 38.8206 40.9099 40.9099C38.8206 42.9992 36.3402 44.6566 33.6104 45.7873C30.8806 46.918 27.9547 47.5 25 47.5C22.0453 47.5 19.1194 46.918 16.3896 45.7873C13.6598 44.6566 11.1794 42.9992 9.0901 40.9099C7.00078 38.8206 5.34344 36.3402 4.21271 33.6104C3.08198 30.8806 2.5 27.9547 2.5 25C2.5 19.0326 4.87053 13.3097 9.0901 9.0901C13.3097 4.87053 19.0326 2.5 25 2.5C30.9674 2.5 36.6903 4.87053 40.9099 9.0901C45.1295 13.3097 47.5 19.0326 47.5 25Z" stroke="#A18552" stroke-width="4" stroke-linecap="round" stroke-linejoin="round"/>
</svg>
