<svg width="42" height="29" viewBox="0 0 42 29" fill="none" xmlns="http://www.w3.org/2000/svg">
<path d="M10.7123 28.6145C8.1475 28.6145 5.83915 27.5886 3.78727 25.5367C1.73541 23.4116 0.709473 20.2971 0.709473 16.1934C0.709473 11.5034 1.95525 7.69277 4.4468 4.76154C7.01163 1.75702 10.639 0.254761 15.329 0.254761C17.0145 0.254761 18.3335 0.36468 19.2862 0.58452V5.64091C18.2603 5.49434 16.9412 5.42107 15.329 5.42107C12.8374 5.42107 10.8223 6.26379 9.28335 7.94927C7.81773 9.41488 6.975 11.3568 6.75515 13.7751C7.70781 12.6026 9.24671 12.0164 11.3719 12.0164C13.5703 12.0164 15.439 12.7858 16.9779 14.3247C18.5168 15.7903 19.2862 17.7323 19.2862 20.1506C19.2862 22.6421 18.4802 24.6939 16.8679 26.3062C15.2557 27.8451 13.2039 28.6145 10.7123 28.6145ZM32.5867 28.6145C30.0219 28.6145 27.7136 27.5886 25.6617 25.5367C23.6097 23.4116 22.5838 20.2971 22.5838 16.1934C22.5838 11.5034 23.8296 7.69277 26.3212 4.76154C28.886 1.75702 32.5134 0.254761 37.2034 0.254761C38.8888 0.254761 40.2079 0.36468 41.1606 0.58452V5.64091C40.1347 5.49434 38.8156 5.42107 37.2034 5.42107C34.7118 5.42107 32.6966 6.26379 31.1577 7.94927C29.6921 9.41488 28.8494 11.3568 28.6295 13.7751C29.5822 12.6026 31.1211 12.0164 33.2462 12.0164C35.4447 12.0164 37.3133 12.7858 38.8522 14.3247C40.3911 15.7903 41.1606 17.7323 41.1606 20.1506C41.1606 22.6421 40.3545 24.6939 38.7423 26.3062C37.1301 27.8451 35.0783 28.6145 32.5867 28.6145Z" fill="black"/>
</svg>
