<svg width="27" height="19" viewBox="0 0 27 19" fill="none" xmlns="http://www.w3.org/2000/svg">
<path d="M13.1014 17.5313C10.3156 17.4188 7.74158 17.3428 5.1713 17.1976C4.03662 17.1348 2.90949 16.9225 1.77859 16.778C1.13021 16.695 0.760778 16.3143 0.58486 15.6979C0.0194088 13.7057 0.00684401 11.7134 0.597426 9.72929C0.766045 9.12981 1.10972 8.59429 1.58445 8.19126C1.80184 8.00906 1.76854 7.85199 1.49838 7.76152C1.30812 7.70623 1.11348 7.66735 0.916591 7.64529C0.360564 7.56298 -0.00446494 7.1722 0.0300904 6.68779C0.0665306 6.1814 0.447895 5.84213 1.01083 5.83396C1.58696 5.82517 2.1631 5.82077 2.7386 5.8371C2.95159 5.84276 3.04897 5.76234 3.13944 5.57888C3.79327 4.25698 4.45422 2.93885 5.12229 1.62449C5.19768 1.47559 5.30261 1.3424 5.38679 1.19789C5.84481 0.411915 6.47183 0.0412308 7.43624 0.0493984C11.2059 0.0820689 14.9756 0.041859 18.7415 0.0336914C19.1593 0.0336914 19.5777 0.0782993 19.998 0.0789276C20.4642 0.0789276 20.8557 0.246049 21.0994 0.633069C21.6511 1.507 22.1983 2.38471 22.6952 3.29006C23.1017 4.03206 23.4404 4.81175 23.7929 5.58202C23.8745 5.76108 23.9688 5.83333 24.1661 5.83333C24.7416 5.82391 25.3177 5.82956 25.8932 5.83333C26.4687 5.8371 26.8645 6.19774 26.8852 6.70915C26.9047 7.20172 26.5384 7.57681 25.9811 7.65157C25.7643 7.67663 25.5506 7.724 25.3434 7.79294C25.1738 7.85576 25.1166 8.01346 25.2731 8.13535C26.174 8.83462 26.4385 9.84489 26.6101 10.8872C26.8597 12.3681 26.8007 13.8847 26.4367 15.3417C26.409 15.4535 26.3638 15.5603 26.3361 15.6716C26.1778 16.3067 25.7914 16.6894 25.1292 16.7729C23.9882 16.9168 22.8517 17.1342 21.707 17.1932C18.7723 17.3465 15.8319 17.4288 13.1014 17.5313ZM13.4991 0.944696C11.5917 0.983649 9.73888 1.0603 7.88672 1.03957C7.06556 1.03014 6.57299 1.34805 6.23309 2.04858C5.5979 3.35603 4.93946 4.65154 4.30301 5.95836C4.07306 6.43083 4.24019 6.70224 4.76668 6.73743C6.81362 6.87376 8.85866 7.04654 10.9069 7.12822C14.6991 7.27963 18.4839 7.11502 22.2592 6.73052C22.6632 6.68905 22.8423 6.40632 22.6613 6.03941C21.947 4.59751 21.2163 3.16503 20.4887 1.72816C20.245 1.24501 19.8605 1.06407 19.3176 1.05841C17.3599 1.03705 15.4028 0.984277 13.4991 0.944696ZM13.452 10.9343C11.8417 10.9343 10.2308 10.9343 8.62055 10.9343C8.09091 10.9343 7.88798 11.2874 8.14997 11.7467C8.38809 12.1645 8.63437 12.5773 8.8838 12.9882C8.95503 13.1171 9.06063 13.2238 9.18884 13.2963C9.31706 13.3689 9.46287 13.4044 9.61009 13.3991C12.1722 13.3961 14.7345 13.3961 17.2971 13.3991C17.6458 13.3991 17.8927 13.2508 18.0648 12.9517C18.2841 12.571 18.5109 12.1978 18.739 11.8208C18.8646 11.6166 18.9614 11.4099 18.8251 11.1768C18.6887 10.9438 18.4607 10.9312 18.2213 10.9318C16.6317 10.9368 15.042 10.9377 13.452 10.9343ZM5.92272 11.9245C5.91363 11.474 5.72817 11.0451 5.40622 10.7299C5.08426 10.4148 4.6515 10.2385 4.20096 10.239C3.75041 10.2395 3.31803 10.4167 2.99677 10.7326C2.6755 11.0485 2.49099 11.4778 2.48289 11.9283C2.47347 12.8581 3.26258 13.6435 4.20626 13.6441C4.66132 13.6418 5.09704 13.4598 5.41853 13.1377C5.74001 12.8156 5.92123 12.3796 5.92272 11.9245ZM22.7254 10.2137C22.3861 10.2126 22.0541 10.3121 21.7712 10.4996C21.4884 10.6871 21.2676 10.9542 21.1365 11.2672C21.0055 11.5802 20.9701 11.925 21.0349 12.2581C21.0998 12.5912 21.2619 12.8975 21.5007 13.1385C21.7396 13.3795 22.0446 13.5443 22.3771 13.612C22.7096 13.6798 23.0547 13.6475 23.3688 13.5192C23.6829 13.3909 23.952 13.1723 24.142 12.8912C24.332 12.61 24.4343 12.2789 24.4362 11.9396C24.438 11.4839 24.2589 11.0461 23.9381 10.7225C23.6173 10.3989 23.1811 10.2159 22.7254 10.2137Z" stroke="white" stroke-miterlimit="10"/>
</svg>
