<svg width="8" height="13" viewBox="0 0 8 13" fill="none" xmlns="http://www.w3.org/2000/svg">
<path d="M7.17749 6.91006L2.0218 12.0701C1.86194 12.2301 1.66877 12.3101 1.44229 12.3101C1.21581 12.3101 1.01598 12.2301 0.842791 12.0701C0.669602 11.9101 0.583008 11.7101 0.583008 11.4701C0.583008 11.2301 0.676263 11.0301 0.862774 10.8701L5.41896 6.31006L0.862774 1.75006C0.676263 1.59006 0.583008 1.39006 0.583008 1.15006C0.583008 0.910059 0.669602 0.710059 0.842791 0.550059C1.01598 0.390059 1.21581 0.310059 1.44229 0.310059C1.66877 0.310059 1.86194 0.390059 2.0218 0.550059L7.17749 5.71006C7.364 5.87006 7.45726 6.07006 7.45726 6.31006C7.45726 6.55006 7.364 6.75006 7.17749 6.91006Z" fill="black"/>
</svg>
