<svg width="67" height="60" viewBox="0 0 67 60" fill="none" xmlns="http://www.w3.org/2000/svg">
<path d="M55.4403 6.05244C58.6109 6.05244 61.4872 7.34353 63.5682 9.42451C65.6492 11.5055 66.9348 14.3818 66.9348 17.5524C66.9348 20.7283 65.6492 23.5992 63.5682 25.6802C61.4872 27.7612 58.6109 29.0468 55.4403 29.0468C52.2644 29.0468 49.3935 27.7612 47.3125 25.6802C45.2315 23.5992 43.9459 20.7229 43.9459 17.5524C43.9459 14.3818 45.2315 11.5055 47.3125 9.42451C49.3935 7.34353 52.2698 6.05244 55.4403 6.05244ZM17.6448 16.599C17.8409 16.6099 18.037 16.599 18.2386 16.5554L18.1623 15.9671C18.1732 15.9181 18.1732 15.8636 18.1732 15.8091C18.1678 15.7002 18.146 15.5912 18.1024 15.4986L17.6285 11.7289C17.939 10.5358 18.4184 9.60429 19.0503 8.92333C19.7095 8.2097 20.5429 7.76844 21.5344 7.57777C22.8473 7.48516 23.2395 8.44394 24.5524 9.27743C28.54 11.8269 31.9121 12.6876 36.8368 12.7476L36.2756 15.5803C36.0741 15.7492 35.9542 16.0052 35.9815 16.2885C35.9924 16.4029 36.0251 16.5064 36.0741 16.599L36.036 16.7897C36.1013 16.7951 36.1612 16.7951 36.2266 16.8006C36.39 16.9586 36.6243 17.0512 36.8694 17.0294C37.6702 16.9586 38.1496 17.013 38.264 17.2473C38.4383 17.6014 38.2749 18.3532 37.7302 19.5898L35.0445 24.0187C34.0476 25.6638 33.0343 27.309 31.7596 28.5021C30.5448 29.6406 29.0467 30.3978 27.0038 30.3924C25.1189 30.3869 23.6917 29.6569 22.515 28.5838C21.2784 27.4561 20.2815 25.909 19.3227 24.3891L16.9312 20.5867L16.9203 20.5649C16.1957 19.4917 15.8253 18.5656 15.8035 17.8629C15.7981 17.6395 15.8308 17.4434 15.9016 17.2854C15.967 17.1492 16.065 17.0348 16.1957 16.9477C16.4572 16.7733 16.8495 16.6698 17.3724 16.6535C17.4759 16.648 17.5631 16.6317 17.6448 16.599ZM19.2682 34.5271L23.55 47.1165L25.7018 39.6479L24.645 38.493C24.1711 37.8011 24.0675 37.191 24.329 36.668C24.901 35.5349 26.0832 35.7474 27.189 35.7474C28.3494 35.7474 29.7766 35.5295 30.1362 36.9785C30.256 37.4634 30.1035 37.97 29.7658 38.493L28.7089 39.6479L30.8607 47.1165L34.7394 34.5271C37.534 37.0439 45.8144 37.5505 48.8923 39.2665C49.8674 39.8113 50.7445 40.5031 51.4527 41.4347C52.5259 42.8511 53.185 44.7032 53.3648 47.0566L54.0076 57.2382C53.8496 58.8997 52.9072 59.8585 51.0496 60.0001H27.2108H2.95805C1.10042 59.8585 0.157981 58.8997 0 57.2382L0.642818 47.0566C0.822589 44.7087 1.48175 42.8565 2.55493 41.4347C3.26312 40.4977 4.14019 39.8113 5.11531 39.2665C8.19866 37.5505 16.4736 37.0439 19.2682 34.5271ZM38.4983 15.504L38.6454 9.44086C38.4656 6.91861 37.6321 5.01195 36.3029 3.57923C33.0398 0.0491736 26.9493 -0.85513 22.357 0.806392C21.5834 1.08422 20.848 1.43831 20.1834 1.86868C18.2876 3.07805 16.7514 4.83762 16.1413 7.02212C15.9942 7.53964 15.8961 8.05716 15.8471 8.56924C15.749 10.6938 15.8035 13.2215 15.9506 15.2589C15.7109 15.3461 15.493 15.455 15.3023 15.5858C14.9101 15.8472 14.6214 16.1904 14.4307 16.599C14.251 16.9858 14.1692 17.4271 14.1856 17.9064C14.2128 18.9088 14.6759 20.1291 15.5638 21.4583L17.9553 25.2607C18.9686 26.8678 20.0309 28.5129 21.4309 29.7877C22.8854 31.1224 24.6668 32.0212 27.0256 32.0267C29.5533 32.0321 31.4 31.1006 32.8981 29.6951C34.3363 28.3495 35.4095 26.6063 36.4663 24.8685L39.1956 20.3797C39.2119 20.347 39.2283 20.3197 39.2446 20.2871C40.0073 18.5547 40.1652 17.3399 39.7567 16.5228C39.4897 16.0052 39.0703 15.6729 38.4983 15.504ZM56.7532 19.6224V18.9742C56.7532 18.9034 56.8131 18.838 56.884 18.8434L61.7868 19.1757L56.884 19.7586C56.8131 19.7641 56.7532 19.6933 56.7532 19.6224ZM54.8139 17.9173C55.5765 17.9173 56.1921 18.5384 56.1921 19.301C56.1921 20.0637 55.5765 20.6793 54.8139 20.6793C54.0512 20.6793 53.4356 20.0583 53.4356 19.301C53.4356 18.5329 54.0512 17.9173 54.8139 17.9173ZM54.231 17.0566H55.3968C55.4676 17.0566 55.5275 16.9967 55.5275 16.9259L54.852 12.023L54.1002 16.9259C54.1002 16.9967 54.1602 17.0566 54.231 17.0566ZM61.9829 11.0043C60.3105 9.33191 58.0007 8.29686 55.4403 8.29686C52.8854 8.29686 50.5702 9.33191 48.8978 11.0043C47.2253 12.6767 46.1849 14.992 46.1849 17.5524C46.1849 20.1073 47.2199 22.4171 48.8978 24.0949C50.5702 25.7674 52.8854 26.8078 55.4403 26.8078C57.9953 26.8078 60.3105 25.7728 61.9829 24.1004C63.6553 22.428 64.6958 20.1127 64.6958 17.5578C64.6958 14.9974 63.6608 12.6822 61.9829 11.0043Z" fill="#A18552"/>
</svg>
