<svg width="59" height="60" viewBox="0 0 59 60" fill="none" xmlns="http://www.w3.org/2000/svg">
<path d="M54.111 14.6485C53.7825 14.1787 53.2849 13.8544 52.7224 13.7437C52.16 13.633 51.5766 13.7444 51.0946 14.0546C50.6126 14.3648 50.2694 14.8496 50.1372 15.4074C50.005 15.9651 50.0939 16.5524 50.3854 17.0459C51.1215 18.1856 51.7617 19.3844 52.2994 20.6299C52.5332 21.1687 52.9714 21.5925 53.5176 21.8081C54.0638 22.0238 54.6733 22.0136 55.212 21.7798C55.7508 21.5461 56.1746 21.1079 56.3902 20.5617C56.6059 20.0155 56.5957 19.406 56.3619 18.8672C55.7295 17.4012 54.9766 15.9901 54.111 14.6485ZM15.1705 39.8682V36.045L20.8981 30.1856C21.2265 29.868 21.5331 29.5287 21.816 29.17C22.0456 28.8873 22.2422 28.5793 22.402 28.252C22.539 27.9688 22.6107 27.6584 22.6119 27.3438C22.6228 27.0462 22.5537 26.7511 22.4117 26.4893C22.2762 26.2582 22.0609 26.0845 21.8063 26.001C21.4658 25.8915 21.1092 25.8403 20.7516 25.8497H15.4684V22.0313C16.2789 21.8523 17.1839 21.6895 18.1832 21.543C19.3377 21.3761 20.5032 21.2977 21.6696 21.3086C22.8385 21.2579 24.0046 21.4611 25.0875 21.9043C25.8751 22.2548 26.5085 22.8795 26.8697 23.6622C27.2498 24.5652 27.4313 25.5393 27.402 26.5186C27.411 27.2666 27.3023 28.0114 27.0797 28.7256C26.864 29.3882 26.5514 30.0151 26.152 30.586C25.7141 31.2046 25.224 31.7845 24.6871 32.3194L21.5133 35.5713H27.9098V39.8877L15.1705 39.8682ZM37.9537 39.8682V36.4502H30.2731L29.443 34.3116L34.7799 21.4356H39.6627L35.1559 32.4024H37.9342V29.6729L38.8522 27.2901H42.7584V32.4024H44.2233V35.7227L42.7584 36.4698V39.8877L37.9537 39.8682ZM50.2584 8.01275C50.3492 8.25905 50.4035 8.51732 50.4196 8.77935C50.5124 9.36716 50.3896 9.96872 50.0737 10.4731C49.7578 10.9774 49.2702 11.3505 48.7008 11.5235L42.1237 13.5352C41.4988 13.7243 40.8245 13.6574 40.2489 13.3493C39.6734 13.0411 39.2439 12.517 39.0548 11.8921C38.8657 11.2673 38.9326 10.5929 39.2408 10.0174C39.5489 9.44191 40.073 9.01236 40.6979 8.82329L41.3229 8.63286C39.7438 7.77165 38.0754 7.08561 36.3473 6.58697C32.9105 5.59156 29.3 5.34592 25.76 5.86667C22.2201 6.38742 18.8333 7.66241 15.8287 9.60538C12.8242 11.5483 10.272 14.114 8.34485 17.1287C6.41769 20.1434 5.1605 23.5368 4.65835 27.0795C4.15619 30.6221 4.42078 34.2313 5.43422 37.6628C6.44765 41.0943 8.18629 44.2681 10.5325 46.9695C12.8787 49.671 15.7778 51.8369 19.0336 53.321C22.2893 54.805 25.8259 55.5724 29.4039 55.5713C30.0556 55.5869 30.7077 55.5657 31.3571 55.5079C32.2962 55.4421 33.2305 55.3198 34.1549 55.1417C34.4463 55.0723 34.7487 55.0627 35.044 55.1134C35.3392 55.1642 35.621 55.2743 35.8725 55.437C36.124 55.5997 36.3399 55.8117 36.5072 56.0602C36.6745 56.3087 36.7897 56.5885 36.8458 56.8827C36.902 57.177 36.8979 57.4795 36.8339 57.7721C36.7698 58.0648 36.6471 58.3414 36.4732 58.5852C36.2993 58.8291 36.0778 59.0352 35.822 59.1911C35.5662 59.347 35.2815 59.4494 34.985 59.4922C33.8906 59.699 32.7853 59.8425 31.6744 59.9219C31.3375 59.9219 29.7653 60 29.4137 60C24.915 60.0051 20.4751 58.978 16.4357 56.9978C12.3963 55.0176 8.865 52.1371 6.11355 48.5779C3.3621 45.0187 1.46385 40.8758 0.564867 36.4678C-0.33412 32.0599 -0.20988 27.5045 0.928028 23.1521C2.06594 18.7997 4.18718 14.7663 7.12853 11.3624C10.0699 7.95852 13.7529 5.27477 17.8943 3.51769C22.0356 1.7606 26.5249 0.977018 31.0166 1.22724C35.5083 1.47745 39.8828 2.7548 43.8033 4.96099L43.1881 3.34966C43.0579 3.04376 42.9907 2.71473 42.9907 2.38226C42.9906 2.04979 43.0576 1.72073 43.1878 1.41479C43.3179 1.10885 43.5084 0.832314 43.748 0.601755C43.9875 0.371195 44.2711 0.191351 44.5818 0.0729943C44.8925 -0.0453626 45.2239 -0.0997976 45.5561 -0.0870504C45.8883 -0.0743032 46.2145 0.0053639 46.5153 0.147179C46.816 0.288995 47.0849 0.490042 47.3061 0.738278C47.5273 0.986514 47.6961 1.27683 47.8024 1.59185L50.2438 8.01275H50.2584ZM41.7623 52.3731C41.2508 52.6612 40.8747 53.1408 40.7167 53.7062C40.5588 54.2717 40.6319 54.8767 40.92 55.3882C41.2082 55.8998 41.6877 56.2759 42.2532 56.4338C42.8186 56.5918 43.4237 56.5187 43.9352 56.2305C45.3332 55.4537 46.66 54.555 47.9 53.545C48.1387 53.3665 48.3389 53.1417 48.4887 52.884C48.6384 52.6264 48.7347 52.3412 48.7718 52.0455C48.8089 51.7498 48.7859 51.4497 48.7043 51.163C48.6228 50.8764 48.4842 50.6092 48.297 50.3773C48.1098 50.1454 47.8778 49.9537 47.6148 49.8135C47.3518 49.6733 47.0632 49.5877 46.7663 49.5616C46.4695 49.5355 46.1704 49.5695 45.887 49.6616C45.6035 49.7537 45.3416 49.9021 45.1168 50.0977C44.0681 50.9539 42.9456 51.7153 41.7623 52.3731ZM50.4879 44.0723C50.1771 44.5702 50.0768 45.1712 50.2092 45.7431C50.3415 46.315 50.6955 46.8108 51.1935 47.1216C51.6914 47.4324 52.2924 47.5327 52.8643 47.4004C53.4361 47.2681 53.932 46.914 54.2428 46.4161C55.0891 45.0628 55.8255 43.6439 56.4449 42.1729C56.5715 41.9022 56.6419 41.6087 56.6522 41.3101C56.6624 41.0115 56.6121 40.7139 56.5044 40.4352C56.3967 40.1565 56.2338 39.9025 56.0254 39.6883C55.8171 39.4742 55.5675 39.3044 55.2919 39.1891C55.0162 39.0738 54.7201 39.0155 54.4213 39.0175C54.1225 39.0196 53.8273 39.0821 53.5532 39.2011C53.2792 39.3202 53.032 39.4935 52.8266 39.7105C52.6213 39.9275 52.4619 40.1838 52.358 40.4639C51.8326 41.715 51.2072 42.9217 50.4879 44.0723ZM54.2819 32.5782C54.286 33.1322 54.498 33.6646 54.8758 34.0698C55.2536 34.4751 55.7698 34.7238 56.3222 34.7668C56.8746 34.8098 57.423 34.6438 57.8589 34.3019C58.2949 33.9599 58.5866 33.4667 58.6764 32.92C58.8033 31.3291 58.8033 29.7306 58.6764 28.1397C58.6822 27.8294 58.6227 27.5214 58.5019 27.2356C58.3811 26.9498 58.2017 26.6925 57.9752 26.4804C57.7487 26.2683 57.4802 26.1061 57.187 26.0043C56.8939 25.9025 56.5826 25.8634 56.2734 25.8896C55.9642 25.9157 55.664 26.0064 55.392 26.1559C55.1201 26.3054 54.8826 26.5103 54.6949 26.7574C54.5071 27.0045 54.3734 27.2882 54.3022 27.5902C54.2311 27.8923 54.2241 28.2059 54.2819 28.5108C54.3893 29.8645 54.3893 31.2245 54.2819 32.5782Z" fill="#A18552"/>
</svg>
