<svg width="67" height="60" viewBox="0 0 67 60" fill="none" xmlns="http://www.w3.org/2000/svg">
<g clip-path="url(#clip0_0_496)">
<path d="M13.454 32.0535C16.2642 32.0535 19.0411 32.0952 21.8152 32.0535C23.8173 32.0147 25.7028 32.384 27.3106 33.5753C30.6957 36.0745 34.4361 37.1352 38.6236 36.6298C39.1235 36.5687 39.6455 36.6743 40.1481 36.6132C43.7803 36.1772 47.518 39.0318 46.3961 44.1857L54.6434 40.9395C56.0152 40.3981 57.3842 39.8455 58.756 39.3095C59.4809 39.001 60.2605 38.842 61.0483 38.842C61.8361 38.842 62.6158 39.001 63.3406 39.3095C65.2622 40.1426 66.5007 41.5727 66.6173 43.722C66.7423 46.0185 65.5566 47.6235 63.5628 48.5537C58.8365 50.7456 54.0899 52.8912 49.3229 54.9905C46.0407 56.4401 42.7806 57.9951 39.3873 59.1392C34.2417 60.8748 29.2822 59.889 24.5837 57.3481C22.801 56.3818 21.0765 55.2932 19.2632 54.388C17.4499 53.4827 15.595 52.7607 13.6401 51.8888C13.4262 52.4858 13.3318 52.769 13.2263 53.0467C12.5876 54.6934 11.5158 55.4737 9.74689 55.4959C7.66701 55.5209 5.58158 55.5265 3.50169 55.4959C1.42181 55.4654 0.0333691 54.0797 0.0250385 51.9999C0.00467468 45.4316 0.00467468 38.8597 0.0250385 32.284C0.0250385 30.3097 1.45513 28.8935 3.43504 28.8574C5.23724 28.8213 7.04499 28.8574 8.84718 28.8574C11.6379 28.8574 12.3627 29.3433 13.454 32.0535ZM13.379 49.4007C16.0726 50.5892 18.5607 51.6222 20.9905 52.7802C22.4844 53.491 23.8951 54.3824 25.3363 55.2071C30.2402 58.0062 35.3886 58.6227 40.6091 56.4151C46.846 53.7826 52.9773 50.8947 59.1475 48.1011C60.4888 47.493 61.8717 46.9348 63.1074 46.1573C64.9623 44.9743 64.7735 42.6334 62.8519 41.5505C61.6023 40.8451 60.3777 41.0117 59.1225 41.5171C56.0874 42.7306 53.0606 43.9775 49.995 45.1271C47.6707 45.9879 45.3326 47.1625 42.9278 47.3847C38.3848 47.8012 33.7919 47.6374 29.2184 47.7096C29.0351 47.7096 28.7824 47.7457 28.6824 47.6457C28.3547 47.3097 27.8494 46.9126 27.8494 46.5544C27.8494 46.1962 28.3714 45.7658 28.7657 45.5658C29.1017 45.3964 29.5821 45.4992 29.9987 45.4992C33.5586 45.4992 37.1186 45.5131 40.6785 45.4992C42.8695 45.4853 44.3995 44.1274 44.4134 42.2475C44.4329 40.2231 42.9639 38.8736 40.7007 38.8624C38.7125 38.8624 36.7215 38.8624 34.7332 38.8624C32.924 38.9026 31.1409 38.4257 29.5932 37.4879C28.1798 36.6187 26.7997 35.6413 25.278 35.0109C21.4237 33.4086 17.3722 34.5833 13.3679 34.1778L13.379 49.4007ZM2.21322 42.0336C2.21322 45.2215 2.23266 48.4205 2.21322 51.5972C2.21322 52.7441 2.62697 53.3161 3.83491 53.2911C5.72875 53.2494 7.62257 53.2606 9.5164 53.2911C10.6105 53.305 11.127 52.8468 11.1242 51.7222C11.1113 45.3465 11.1113 38.9707 11.1242 32.595C11.1242 31.4537 10.5911 31.0372 9.5053 31.0566C7.65868 31.09 5.8065 31.1149 3.95155 31.0566C2.59365 31.0094 2.17434 31.6287 2.19378 32.8977C2.24932 35.9328 2.21322 38.9846 2.21322 42.0336Z" fill="#A18552"/>
<path d="M46.2154 29.0268C44.2522 28.7657 42.2889 28.5158 40.3284 28.2409C39.2621 28.091 38.6318 27.555 38.4096 26.4026C36.9795 18.9467 37.5155 11.9018 42.947 6.03976C47.6844 0.924755 53.813 -0.441469 60.5136 0.113907C61.8474 0.223258 63.1688 0.450935 64.4623 0.794245C64.9816 0.933089 65.6674 1.46902 65.7841 1.94387C67.3197 8.26404 67.0948 14.4398 63.5626 20.1046C60.0304 25.7695 54.5849 28.3853 48.0315 28.8352C47.4345 28.8796 46.8291 28.8352 46.2293 28.8352L46.2154 29.0268ZM40.384 24.606C40.8311 24.2006 41.1393 23.9451 41.4225 23.6618C45.2213 19.8705 49.0164 16.0754 52.8077 12.2766C53.166 11.9212 53.5186 11.488 53.9629 11.3131C54.1641 11.2481 54.3778 11.2314 54.5866 11.2642C54.7955 11.297 54.9937 11.3784 55.1653 11.5019C55.4041 11.749 55.443 12.3349 55.3347 12.7209C55.2264 13.1069 54.8237 13.3568 54.5322 13.6484C50.7093 17.4805 46.8828 21.3089 43.0526 25.1336C42.7388 25.4474 42.45 25.7889 42.1112 26.1582C47.3262 27.4439 53.7741 26.1888 57.77 23.2342C64.1707 18.4968 65.3009 10.0274 63.8569 3.44894C63.79 3.27696 63.6823 3.12387 63.5429 3.00291C63.4036 2.88195 63.2369 2.79676 63.0572 2.75472C60.8579 2.54368 58.6364 2.16324 56.4482 2.30209C50.1586 2.70751 45.063 5.29556 42.064 11.1159C39.9091 15.2979 39.6148 19.777 40.3729 24.606H40.384Z" fill="#A18552"/>
<path d="M39.1818 7.07537C38.8319 7.67518 38.4931 8.25832 38.0932 8.93865C35.2691 7.24198 32.234 6.63107 29.0517 6.6755C28.494 6.68902 27.9376 6.73631 27.3856 6.81712C24.8725 7.13923 24.7837 7.13368 24.5337 9.59399C24.0839 14.0537 24.7809 18.2606 27.7632 21.8289C29.4988 23.9088 31.7147 25.3917 34.3278 25.9498C35.9106 26.2886 36.4993 27.0217 36.6243 28.6073C34.2917 28.5795 32.2007 27.802 30.2374 26.6912C25.1086 23.7755 22.6344 19.1465 22.2623 13.4178C22.1151 11.1435 22.5011 8.82202 22.8176 6.54221C22.8898 6.00349 23.5313 5.22597 24.0395 5.10934C29.085 3.9375 34.0196 4.11244 38.6792 6.68105C38.8554 6.80104 39.0233 6.93278 39.1818 7.07537Z" fill="#A18552"/>
<path d="M35.297 19.1771L31.6482 15.4367C31.0928 14.8813 30.7901 14.1537 31.5343 13.6817C31.9009 13.4456 32.6812 13.6956 33.2005 13.9094C33.5976 14.0732 33.8336 14.5786 34.2057 14.8452C35.6886 15.9171 36.169 17.2777 35.297 19.1771Z" fill="#A18552"/>
</g>
<defs>
<clipPath id="clip0_0_496">
<rect width="66.6867" height="60" fill="white"/>
</clipPath>
</defs>
</svg>
