<svg width="75" height="60" viewBox="0 0 75 60" fill="none" xmlns="http://www.w3.org/2000/svg">
<path d="M42.4289 4.75223C42.5447 4.75223 42.6543 4.77051 42.7579 4.80097C43.2514 4.92892 43.617 5.37977 43.617 5.91592V20.3676L56.0642 7.92039C56.4846 7.5 57.0268 7.29894 57.5751 7.29894C58.1174 7.29894 58.6657 7.5 59.0861 7.92039L63.3814 12.2157C63.5825 12.4167 63.6312 12.7579 63.4728 13.026C62.9732 13.818 62.7904 14.7563 62.894 15.658C63.0037 16.5292 63.3936 17.3883 64.076 18.0707C64.7461 18.753 65.5991 19.143 66.4886 19.2526C67.3781 19.3623 68.292 19.1734 69.0902 18.7104C69.3521 18.5398 69.7116 18.552 69.9431 18.7896L74.2384 23.0849C74.6588 23.5053 74.8599 24.0475 74.8599 24.5959C74.8599 25.1381 74.6588 25.6864 74.2384 26.1068L43.617 56.7283V58.8546C43.617 59.4882 43.0991 60.0061 42.4655 60.0061H3.30219C2.39439 60.0061 1.57189 59.6344 0.974817 59.0374C0.371649 58.4342 0 57.6056 0 56.6978V3.12551C0 2.93664 0.0426482 2.75995 0.127945 2.60154C0.292445 1.99838 0.609261 1.46223 1.03574 1.03574C1.67547 0.39602 2.5589 0 3.52762 0H42.4289C43.0625 0 43.5804 0.517872 43.5804 1.1515C43.5804 1.78513 43.0625 2.30301 42.4289 2.30301H3.52762C3.19253 2.30301 2.8879 2.44314 2.66247 2.66247C2.44314 2.8879 2.30301 3.19253 2.30301 3.52762C2.30301 3.86271 2.44314 4.16734 2.66247 4.39277C2.8879 4.6182 3.19253 4.75223 3.52762 4.75223H42.4289ZM43.617 22.2685V29.0069C43.7815 29.0374 43.9703 29.08 44.1897 29.1348L45.2498 28.0747L46.2246 29.0496L45.7738 29.5004L46.9374 29.7746L48.1255 28.5865L49.1064 29.5674L48.5276 30.1462L50.0081 30.4874L52.5 27.9955C52.8473 27.6483 53.5175 27.7396 53.9805 28.2027C54.4435 28.6657 54.541 29.3359 54.1877 29.6832L51.6958 32.1751L52.037 33.6434L52.6097 33.0707L53.5906 34.0516L52.4086 35.2336L52.6767 36.3972L53.1214 35.9525L54.1024 36.9334L53.0483 37.9874L53.0544 38.0118C53.5601 40.2295 53.1093 39.5349 51.4277 41.2165L48.9907 34.8924L46.578 37.305C46.7425 38.4748 46.8156 39.4131 45.8956 40.3331L44.866 39.3278C44.7868 38.8343 44.7502 38.4809 44.7076 38.225C44.5552 38.1519 44.4029 38.0483 44.2689 37.9204C44.1531 37.8046 44.0556 37.6706 43.9886 37.5366C43.885 37.5244 43.7571 37.5122 43.617 37.4939V47.8574L47.1202 51.3607L67.0187 31.4561L50.7271 15.1584L43.617 22.2685ZM43.617 31.7608V35.4407C44.013 35.4285 44.4273 35.5016 44.8964 35.593L47.303 33.1864L43.617 31.7608ZM43.617 49.6974V54.8578L46.2002 52.2746L43.617 49.6974ZM67.9448 30.5361L51.647 14.2384L57.0146 8.87084C57.173 8.71243 57.3741 8.63932 57.5934 8.63932C57.7945 8.63932 58.0138 8.71852 58.1722 8.87084L62.108 12.8067C61.6572 13.7571 61.4866 14.7989 61.6084 15.8286C62.0593 19.5816 66.0439 21.6836 69.3887 20.0934L73.3245 24.0292C73.4829 24.1877 73.5561 24.3887 73.5561 24.608C73.5561 24.8091 73.4768 25.0284 73.3245 25.1868L73.3063 25.1686L67.9448 30.5361ZM31.645 31.5475C31.6816 31.5475 31.7181 31.5475 31.7486 31.5536C31.9801 31.1515 32.1872 30.725 32.3822 30.2803C32.3883 30.2742 32.3883 30.2681 32.3944 30.2559C32.6807 29.5796 32.9001 28.8729 33.0402 28.1418C33.1499 27.5751 33.2291 27.0024 33.2474 26.4054H29.8294C29.7685 28.1418 29.2506 29.8538 28.288 31.5353H31.6389V31.5475H31.645ZM31.0479 32.6381H27.6117C26.5699 34.1552 25.1564 35.6418 23.3956 37.1223C23.6698 37.0857 23.95 37.0431 24.2181 36.9882C24.9553 36.842 25.6682 36.6227 26.3505 36.3241C27.0451 36.0256 27.6909 35.6783 28.3002 35.2701C28.9033 34.868 29.4578 34.411 29.9695 33.8993C30.3656 33.5032 30.7311 33.089 31.0601 32.6381H31.0479ZM20.4651 37.1162C18.7043 35.6418 17.2969 34.1491 16.249 32.632H12.8128C13.1418 33.0768 13.5073 33.4972 13.9033 33.8932C14.4212 34.405 14.9695 34.8619 15.5727 35.264C16.1698 35.6661 16.8156 36.0195 17.5223 36.318C17.5284 36.3241 17.5345 36.3241 17.5467 36.3302C18.223 36.6166 18.9297 36.8359 19.6608 36.9821C19.9289 37.037 20.2031 37.0796 20.4833 37.1162H20.4651ZM12.0938 31.5475H15.5544C14.5918 29.8599 14.0678 28.1478 14.013 26.4175H10.595C10.6255 27.0146 10.6925 27.5873 10.8022 28.1539C10.9484 28.8911 11.1677 29.604 11.4663 30.2864C11.6552 30.725 11.8623 31.1454 12.0938 31.5475ZM10.595 25.327H14.0313C14.1592 23.6271 14.7258 21.9151 15.7311 20.197H12.0877C11.8562 20.5991 11.6491 21.0195 11.4602 21.4582C11.4541 21.4643 11.4541 21.4703 11.448 21.4825C11.1617 22.1588 10.9423 22.8656 10.8022 23.5967C10.6925 24.1511 10.6194 24.7299 10.595 25.327ZM12.8067 19.1003H16.4379C17.4736 17.6076 18.8383 16.1089 20.5382 14.604C20.2335 14.6405 19.935 14.6832 19.6426 14.7441C18.9054 14.8903 18.1925 15.1097 17.5102 15.4082C16.8156 15.7067 16.1698 16.0601 15.5605 16.4622C14.9574 16.8643 14.4029 17.3213 13.8911 17.8331C13.4951 18.2291 13.1296 18.6434 12.8006 19.0942L12.8067 19.1003ZM23.3164 14.604C25.0223 16.1089 26.3871 17.6076 27.4167 19.1003H31.0479C30.7189 18.6556 30.3534 18.2352 29.9573 17.8392C29.4395 17.3274 28.8911 16.8704 28.288 16.4683C27.6909 16.0662 27.0451 15.7128 26.3383 15.4143C26.3322 15.4082 26.3262 15.4082 26.314 15.4021C25.6377 15.1158 24.931 14.8964 24.1998 14.7502C23.9013 14.6893 23.6028 14.6466 23.3042 14.6101V14.604H23.3164ZM31.7608 20.1909H28.1174C29.1227 21.9151 29.6893 23.621 29.8172 25.3209H33.2535C33.223 24.7238 33.156 24.1511 33.0463 23.5845C32.9001 22.8473 32.6807 22.1344 32.3822 21.4521C32.1994 21.0134 31.9923 20.593 31.7608 20.1909ZM19.4293 13.6779C20.2335 13.5134 21.0682 13.4342 21.9273 13.4342C22.7864 13.4342 23.6149 13.5134 24.4253 13.6779C25.2234 13.8363 25.9911 14.0739 26.7465 14.3968C26.7526 14.3968 26.7709 14.4029 26.777 14.409C27.5203 14.7319 28.2331 15.1158 28.8972 15.5605C29.5613 15.9992 30.1706 16.511 30.7311 17.0654C31.2977 17.6259 31.7973 18.2352 32.236 18.8993C32.6807 19.5634 33.0646 20.2701 33.3875 21.0195C33.7165 21.7811 33.9541 22.5609 34.1186 23.3712C34.2831 24.1755 34.3623 25.0102 34.3623 25.8692C34.3623 26.7283 34.2831 27.5569 34.1186 28.3672C33.9602 29.1653 33.7226 29.933 33.3997 30.6885C33.3997 30.6946 33.3936 30.7128 33.3875 30.7189C33.0646 31.4744 32.6807 32.1751 32.236 32.8392C31.7973 33.5033 31.2855 34.1125 30.7311 34.673C30.1706 35.2396 29.5613 35.7392 28.8972 36.1779C28.2331 36.6227 27.5264 37.0065 26.777 37.3294C26.0154 37.6584 25.2356 37.896 24.4253 38.0605C23.621 38.225 22.7864 38.3042 21.9273 38.3042C21.0682 38.3042 20.2396 38.225 19.4293 38.0605C18.6312 37.9021 17.8635 37.6645 17.108 37.3416C17.1019 37.3416 17.0837 37.3355 17.0776 37.3294C16.3343 37.0065 15.6214 36.6227 14.9574 36.1779C14.2933 35.7392 13.684 35.2275 13.1235 34.673C12.5569 34.1125 12.0573 33.5033 11.6186 32.8392C11.1738 32.1751 10.79 31.4683 10.4671 30.7189C10.1381 29.9573 9.90049 29.1775 9.73599 28.3672C9.57149 27.563 9.49228 26.7283 9.49228 25.8692C9.49228 25.0102 9.57149 24.1816 9.73599 23.3712C9.89439 22.5731 10.132 21.8054 10.4549 21.05C10.4549 21.0439 10.461 21.0256 10.4671 21.0195C10.79 20.264 11.1738 19.5634 11.6186 18.8993C12.0573 18.2352 12.563 17.6259 13.1235 17.0654C13.684 16.4988 14.2933 15.9992 14.9574 15.5605C15.6214 15.1158 16.3282 14.7319 17.0776 14.409C17.8392 14.08 18.6251 13.8424 19.4293 13.6779ZM22.4695 15.3107V19.1003H26.0825C25.132 17.8513 23.9318 16.5902 22.4695 15.3107ZM22.4695 20.1909V25.3209H28.7266C28.5865 23.6332 27.959 21.9273 26.8379 20.1909H22.4695ZM22.4695 26.4115V31.5414H27.0268C28.1113 29.8416 28.684 28.1296 28.751 26.4115H22.4695ZM22.4695 32.6381V36.4703C24.011 35.2031 25.2843 33.9175 26.2652 32.6381H22.4695ZM21.3851 36.4703V32.6381H17.5894C18.5642 33.9175 19.8314 35.2031 21.3851 36.4703ZM21.3851 31.5475V26.4175H15.1036C15.1706 28.1418 15.7494 29.8477 16.8278 31.5475H21.3851ZM21.3851 25.327V20.197H17.0106C15.8895 21.9334 15.262 23.6454 15.1219 25.327H21.3851ZM21.3851 19.1003V15.3107C19.9228 16.5841 18.7226 17.8452 17.7721 19.1003H21.3851ZM13.7632 52.1649C13.1296 52.1649 12.6117 51.647 12.6117 51.0134C12.6117 50.3798 13.1296 49.8619 13.7632 49.8619H29.8172C30.4509 49.8619 30.9687 50.3798 30.9687 51.0134C30.9687 51.647 30.4509 52.1649 29.8172 52.1649H13.7632ZM9.07798 46.1332C8.44435 46.1332 7.92648 45.6154 7.92648 44.9817C7.92648 44.3481 8.44435 43.8302 9.07798 43.8302H34.5085C35.1422 43.8302 35.66 44.3481 35.66 44.9817C35.66 45.6154 35.1422 46.1332 34.5085 46.1332H9.07798ZM41.314 7.05524H3.52762C3.09504 7.05524 2.68075 6.97604 2.30301 6.83591V56.6978C2.30301 56.972 2.41877 57.2218 2.59545 57.4045C2.77823 57.5873 3.02803 57.697 3.30219 57.697H41.314V7.05524Z" fill="#A18552"/>
</svg>
