<svg width="54" height="49" viewBox="0 0 54 49" fill="none" xmlns="http://www.w3.org/2000/svg">
<path d="M13.5825 22.625C15.5975 22.625 17.415 21.51 18.66 19.925C20.6006 17.449 23.0368 15.4055 25.8125 13.925C27.62 12.965 29.1875 11.535 29.945 9.6375C30.477 8.30813 30.7503 6.88938 30.75 5.4575V3.875C30.75 3.37772 30.9476 2.90081 31.2992 2.54917C31.6508 2.19754 32.1277 2 32.625 2C34.1169 2 35.5476 2.59263 36.6025 3.64752C37.6574 4.70242 38.25 6.13316 38.25 7.625C38.25 10.505 37.6 13.2325 36.4425 15.67C35.7775 17.065 36.71 18.875 38.255 18.875M38.255 18.875H46.07C48.635 18.875 50.9325 20.61 51.205 23.1625C51.3175 24.2175 51.375 25.2875 51.375 26.375C51.3853 33.2159 49.0476 39.8531 44.7525 45.1775C43.7825 46.3825 42.285 47 40.74 47H30.7C29.4925 47 28.29 46.805 27.1425 46.425L19.3575 43.825C18.2103 43.4435 17.009 43.2493 15.8 43.25H11.76M38.255 18.875H32.625M11.76 43.25C11.9675 43.7625 12.1925 44.2625 12.435 44.755C12.9275 45.755 12.24 47 11.1275 47H8.85751C6.63501 47 4.57501 45.705 3.92751 43.58C3.06162 40.7381 2.62266 37.7834 2.62501 34.8125C2.62501 30.93 3.36251 27.2225 4.70251 23.8175C5.46751 21.8825 7.41751 20.75 9.50001 20.75H12.1325C13.3125 20.75 13.995 22.14 13.3825 23.15C11.2472 26.6649 10.1211 30.6999 10.1275 34.8125C10.1275 37.7975 10.7075 40.645 11.7625 43.25H11.76Z" stroke="#A18552" stroke-width="4" stroke-linecap="round" stroke-linejoin="round"/>
</svg>
