<svg width="21" height="21" viewBox="0 0 21 21" fill="none" xmlns="http://www.w3.org/2000/svg">
<path d="M16.482 17.2252C15.7833 16.3001 14.8793 15.5498 13.8412 15.0336C12.8031 14.5173 11.6594 14.2491 10.5 14.2502C9.34066 14.2491 8.1969 14.5173 7.15883 15.0336C6.12077 15.5498 5.21675 16.3001 4.51801 17.2252M16.482 17.2252C17.8455 16.0124 18.8071 14.4137 19.2412 12.6413C19.6753 10.8688 19.5603 9.00628 18.9115 7.30067C18.2627 5.59506 17.1107 4.12697 15.6084 3.09109C14.1061 2.05521 12.3244 1.50049 10.4995 1.50049C8.67467 1.50049 6.89295 2.05521 5.39062 3.09109C3.88829 4.12697 2.73634 5.59506 2.08755 7.30067C1.43875 9.00628 1.32376 10.8688 1.75783 12.6413C2.1919 14.4137 3.15451 16.0124 4.51801 17.2252M16.482 17.2252C14.836 18.6934 12.7056 19.5033 10.5 19.5002C8.29404 19.5036 6.16425 18.6936 4.51801 17.2252M13.5 8.25019C13.5 9.04584 13.1839 9.80891 12.6213 10.3715C12.0587 10.9341 11.2957 11.2502 10.5 11.2502C9.70436 11.2502 8.9413 10.9341 8.37869 10.3715C7.81608 9.80891 7.50001 9.04584 7.50001 8.25019C7.50001 7.45454 7.81608 6.69148 8.37869 6.12887C8.9413 5.56626 9.70436 5.25019 10.5 5.25019C11.2957 5.25019 12.0587 5.56626 12.6213 6.12887C13.1839 6.69148 13.5 7.45454 13.5 8.25019Z" stroke="white" stroke-width="1.5" stroke-linecap="round" stroke-linejoin="round"/>
</svg>
