<svg width="80" height="60" viewBox="0 0 80 60" fill="none" xmlns="http://www.w3.org/2000/svg">
<path fill-rule="evenodd" clip-rule="evenodd" d="M10.2855 0H24.5599C30.055 0 34.548 4.49305 34.548 9.98815C34.548 30.5398 39.8039 53.115 14.6105 59.5604C3.19362 62.476 0.219804 49.9084 12.3607 49.0421C19.763 48.512 21.2111 43.728 21.4373 36.5004H9.98815C4.49305 36.4939 0 32.0009 0 26.5122V10.2855C0 4.62881 4.62881 0 10.2855 0ZM54.7247 0H68.999C74.4941 0 78.9872 4.49305 78.9872 9.98815C78.9872 30.5398 84.2431 53.115 59.0497 59.5604C47.6393 62.476 44.6654 49.9084 56.7999 49.0421C64.2021 48.512 65.6503 43.728 65.8765 36.5004H54.4209C48.9258 36.5004 44.4327 32.0073 44.4327 26.5122V10.2855C44.4392 4.62881 49.068 0 54.7247 0Z" fill="white"/>
</svg>
