<svg width="18" height="18" viewBox="0 0 18 18" fill="currentColor" xmlns="http://www.w3.org/2000/svg">
<g clip-path="url(#clip0_3480_160)">
<path d="M6.97505 1.26562C7.34067 0.516797 8.1106 0 9.00005 0C9.8895 0 10.6594 0.516797 11.025 1.26562C11.2711 1.17422 11.5348 1.125 11.8125 1.125C13.0536 1.125 14.0625 2.13398 14.0625 3.375V3.44531C14.2418 3.39961 14.4317 3.375 14.625 3.375C15.8661 3.375 16.875 4.38398 16.875 5.625V11.8125C16.875 11.8652 16.8715 11.918 16.861 11.9707C16.643 15.1945 14.0696 17.7715 10.8458 17.9859C10.793 17.9965 10.7403 18 10.6875 18H10.4063H10.1075C7.72036 18 5.43169 17.0508 3.74419 15.3633L0.657471 12.2801C-0.221436 11.4012 -0.221436 9.97734 0.657471 9.09844C1.53638 8.21953 2.96021 8.21953 3.83911 9.09844L3.93403 9.19336V3.375C3.93403 2.13398 4.94302 1.125 6.18403 1.125C6.46177 1.125 6.72544 1.17422 6.97153 1.26562H6.97505ZM8.43755 8.15625C8.43755 8.62383 8.06138 9 7.5938 9C7.12622 9 6.75005 8.62383 6.75005 8.15625V3.37148C6.75005 3.06211 6.49692 2.8125 6.18755 2.8125C5.87817 2.8125 5.62505 3.06562 5.62505 3.375V11.2289C5.62505 11.5699 5.42114 11.8793 5.10474 12.0094C4.78833 12.1395 4.42622 12.0691 4.18364 11.8266L2.64731 10.2902C2.42935 10.0723 2.07075 10.0723 1.85278 10.2902C1.63481 10.5082 1.63481 10.8668 1.85278 11.0848L4.9395 14.1715C6.3106 15.5426 8.17036 16.3125 10.111 16.3125H10.4063H10.5786C10.5997 16.309 10.6243 16.309 10.6454 16.3055C13.0958 16.1859 15.061 14.2207 15.1805 11.7703C15.1805 11.7492 15.184 11.7246 15.1875 11.7035V5.625C15.1875 5.31562 14.9344 5.0625 14.625 5.0625C14.3157 5.0625 14.0625 5.31562 14.0625 5.625V5.62852V8.15625C14.0625 8.62383 13.6864 9 13.2188 9C12.7512 9 12.375 8.62383 12.375 8.15625V5.34375V5.34023V3.375C12.375 3.06562 12.1219 2.8125 11.8125 2.8125C11.5032 2.8125 11.25 3.06211 11.25 3.375V3.37852V8.15625C11.25 8.62383 10.8739 9 10.4063 9C9.93872 9 9.56255 8.62383 9.56255 8.15625V3.375V3.37148V2.25C9.56255 1.94062 9.30942 1.6875 9.00005 1.6875C8.69067 1.6875 8.43755 1.94062 8.43755 2.25V3.375V3.37852V8.15625ZM8.43755 11.25C8.43755 11.1008 8.49681 10.9577 8.6023 10.8523C8.70779 10.7468 8.85086 10.6875 9.00005 10.6875C9.14923 10.6875 9.29231 10.7468 9.3978 10.8523C9.50329 10.9577 9.56255 11.1008 9.56255 11.25C9.56255 11.3992 9.50329 11.5423 9.3978 11.6477C9.29231 11.7532 9.14923 11.8125 9.00005 11.8125C8.85086 11.8125 8.70779 11.7532 8.6023 11.6477C8.49681 11.5423 8.43755 11.3992 8.43755 11.25ZM10.125 12.9375C10.125 12.7883 10.1843 12.6452 10.2898 12.5398C10.3953 12.4343 10.5384 12.375 10.6875 12.375C10.8367 12.375 10.9798 12.4343 11.0853 12.5398C11.1908 12.6452 11.25 12.7883 11.25 12.9375C11.25 13.0867 11.1908 13.2298 11.0853 13.3352C10.9798 13.4407 10.8367 13.5 10.6875 13.5C10.5384 13.5 10.3953 13.4407 10.2898 13.3352C10.1843 13.2298 10.125 13.0867 10.125 12.9375ZM12.9375 10.6875C13.0867 10.6875 13.2298 10.7468 13.3353 10.8523C13.4408 10.9577 13.5 11.1008 13.5 11.25C13.5 11.3992 13.4408 11.5423 13.3353 11.6477C13.2298 11.7532 13.0867 11.8125 12.9375 11.8125C12.7884 11.8125 12.6453 11.7532 12.5398 11.6477C12.4343 11.5423 12.375 11.3992 12.375 11.25C12.375 11.1008 12.4343 10.9577 12.5398 10.8523C12.6453 10.7468 12.7884 10.6875 12.9375 10.6875ZM11.25 14.625C11.25 14.4758 11.3093 14.3327 11.4148 14.2273C11.5203 14.1218 11.6634 14.0625 11.8125 14.0625C11.9617 14.0625 12.1048 14.1218 12.2103 14.2273C12.3158 14.3327 12.375 14.4758 12.375 14.625C12.375 14.7742 12.3158 14.9173 12.2103 15.0227C12.1048 15.1282 11.9617 15.1875 11.8125 15.1875C11.6634 15.1875 11.5203 15.1282 11.4148 15.0227C11.3093 14.9173 11.25 14.7742 11.25 14.625ZM9.00005 14.0625C9.14923 14.0625 9.29231 14.1218 9.3978 14.2273C9.50329 14.3327 9.56255 14.4758 9.56255 14.625C9.56255 14.7742 9.50329 14.9173 9.3978 15.0227C9.29231 15.1282 9.14923 15.1875 9.00005 15.1875C8.85086 15.1875 8.70779 15.1282 8.6023 15.0227C8.49681 14.9173 8.43755 14.7742 8.43755 14.625C8.43755 14.4758 8.49681 14.3327 8.6023 14.2273C8.70779 14.1218 8.85086 14.0625 9.00005 14.0625ZM6.18755 12.9375C6.18755 12.7883 6.24681 12.6452 6.3523 12.5398C6.45779 12.4343 6.60086 12.375 6.75005 12.375C6.89923 12.375 7.04231 12.4343 7.1478 12.5398C7.25329 12.6452 7.31255 12.7883 7.31255 12.9375C7.31255 13.0867 7.25329 13.2298 7.1478 13.3352C7.04231 13.4407 6.89923 13.5 6.75005 13.5C6.60086 13.5 6.45779 13.4407 6.3523 13.3352C6.24681 13.2298 6.18755 13.0867 6.18755 12.9375Z" fill="currentColor"/>
</g>
<defs>
<clipPath id="clip0_3480_160">
<rect width="18" height="18" fill="white"/>
</clipPath>
</defs>
</svg>
