<svg width="15" height="18" viewBox="0 0 15 18" fill="currentColor" xmlns="http://www.w3.org/2000/svg">
<g clip-path="url(#clip0_2100_227)">
<path d="M7.23549 14.3473C6.95089 14.7059 6.44196 14.7059 6.12723 14.3473L3.98437 12.0973C3.67299 11.7984 3.67299 11.2641 3.98437 10.9336C4.29911 10.6066 4.80804 10.6066 5.09263 10.9336L6.69643 12.5895L9.87723 9.24609C10.192 8.91914 10.7009 8.91914 10.9855 9.24609C11.327 9.57656 11.327 10.1109 10.9855 10.4098L7.23549 14.3473ZM4.28571 0C4.73103 0 5.08929 0.37793 5.08929 0.84375V2.25H9.91071V0.84375C9.91071 0.37793 10.269 0 10.7143 0C11.1596 0 11.5179 0.37793 11.5179 0.84375V2.25H12.8571C14.0391 2.25 15 3.25723 15 4.5V15.75C15 16.991 14.0391 18 12.8571 18H2.14286C0.959263 18 0 16.991 0 15.75V4.5C0 3.25723 0.959263 2.25 2.14286 2.25H3.48214V0.84375C3.48214 0.37793 3.8404 0 4.28571 0ZM13.3929 6.75H1.60714V15.75C1.60714 16.0594 1.84687 16.3125 2.14286 16.3125H12.8571C13.1518 16.3125 13.3929 16.0594 13.3929 15.75V6.75Z" fill="currentColor"/>
</g>
<defs>
<clipPath id="clip0_2100_227">
<rect width="15" height="18" fill="white"/>
</clipPath>
</defs>
</svg>
