<svg width="19" height="19" viewBox="0 0 19 19" fill="none" xmlns="http://www.w3.org/2000/svg">
<g clip-path="url(#clip0_3946_167)">
<path d="M3.95833 7.125V4.75C3.95833 3.91015 4.29196 3.10469 4.88583 2.51083C5.47969 1.91696 6.28515 1.58333 7.125 1.58333C7.96485 1.58333 8.77031 1.91696 9.36417 2.51083C9.95804 3.10469 10.2917 3.91015 10.2917 4.75V7.125H11.875V4.75C11.875 2.1276 9.7474 0 7.125 0C4.5026 0 2.375 2.1276 2.375 4.75V7.125H3.95833ZM9.5 14.25H7.91667V12.6667L16.625 3.95833C17.0622 3.52111 17.7711 3.52111 18.2083 3.95833V3.95833C18.6456 4.39556 18.6456 5.10444 18.2083 5.54167L9.5 14.25Z" fill="#BDBDBD"/>
<path d="M10.2917 15.0417H7.125V11.875L11.0833 7.91669H1.58333C1.16379 7.91793 0.761782 8.08514 0.465117 8.3818C0.168453 8.67847 0.00124001 9.08048 0 9.50002V17.4167C0.00124001 17.8362 0.168453 18.2382 0.465117 18.5349C0.761782 18.8316 1.16379 18.9988 1.58333 19H12.6667C13.0862 18.9988 13.4882 18.8316 13.7849 18.5349C14.0815 18.2382 14.2488 17.8362 14.25 17.4167V11.0834L10.2917 15.0417Z" fill="#BDBDBD"/>
</g>
<defs>
<clipPath id="clip0_3946_167">
<rect width="19" height="19" fill="white"/>
</clipPath>
</defs>
</svg>
