<svg width="16" height="19" viewBox="0 0 16 19" fill="currentColor" xmlns="http://www.w3.org/2000/svg">
<g clip-path="url(#clip0_2100_313)">
<path d="M6.97167 4.16758L6.97181 5.88109L7.92792 6.92734C7.71298 5.70145 8.03708 4.4534 8.81823 3.57449C9.45105 2.86258 10.2907 2.48008 11.1617 2.48008L11.1968 2.48007L9.37792 4.4875L9.85073 7.67301L12.6826 8.20422L14.4714 6.19152C14.4793 7.18469 14.1395 8.14234 13.4951 8.86305C13.2061 9.19264 12.8664 9.44312 12.5029 9.62348C12.5576 9.6806 12.624 9.72539 12.6787 9.78688L13.6359 10.8669C13.964 10.6428 14.2765 10.3747 14.5578 10.0583C15.745 8.75399 16.2331 6.74516 15.8268 4.9079C15.733 4.47723 15.44 4.13903 15.065 4.02055C14.6821 3.90197 14.2759 4.02503 14.0306 4.33703L12.195 6.39789L11.1834 6.20907L11.0153 5.06649L12.8472 3.00985C13.1245 2.72508 13.23 2.26805 13.1244 1.84618C13.0228 1.42008 12.7182 1.09032 12.3354 0.985199C10.6754 0.51973 8.96348 1.05586 7.75723 2.40938C7.43692 2.76973 7.17911 3.17403 6.96442 3.57305L6.99958 3.59941L6.97167 4.16758ZM3.31229 16.7465C2.91386 17.1947 2.21073 17.1947 1.80854 16.7466C1.60933 16.5226 1.49604 16.2509 1.49604 15.9345C1.49602 15.6138 1.60536 15.3151 1.80845 15.1224L6.00917 10.3375L4.94979 9.1457L0.749795 13.8637C0.26542 14.4086 0.0279196 15.1335 0.000107133 15.8711C-0.0277054 16.6087 0.265826 17.3649 0.750107 17.9098C1.23448 18.4547 1.87886 18.7532 2.53448 18.7532C3.21792 18.7531 3.86261 18.4543 4.34667 17.9095L7.49979 14.3622C7.19898 13.8043 7.02698 13.1714 7.01136 12.5298L3.31229 16.7465ZM15.6592 14.6969L11.9998 10.5836C11.277 9.77078 10.1982 9.61152 9.33136 10.0949L5.97167 6.34375V4.16371L1.99979 0.789062L-0.000205367 3.00742L2.99979 7.47578L4.93854 7.47605L8.27292 11.2237C7.84729 12.1993 7.98486 13.4129 8.70761 14.2257L12.3639 18.3425C12.817 18.8565 13.5579 18.8565 14.011 18.3424L15.6595 16.4879C16.1123 16.0363 16.1123 15.2066 15.6592 14.6969Z" fill="currentColor"/>
</g>
<defs>
<clipPath id="clip0_2100_313">
<rect width="16" height="18" fill="white" transform="translate(0 0.789062)"/>
</clipPath>
</defs>
</svg>
