<svg width="13" height="18" viewBox="0 0 13 18" fill="none" xmlns="http://www.w3.org/2000/svg">
<g clip-path="url(#clip0_4210_135)">
<path d="M1.625 15.75V2.25C1.625 1.94062 1.86875 1.6875 2.16667 1.6875H7.58333V4.5C7.58333 5.12227 8.06745 5.625 8.66667 5.625H11.375V15.75C11.375 16.0594 11.1313 16.3125 10.8333 16.3125H2.16667C1.86875 16.3125 1.625 16.0594 1.625 15.75ZM2.16667 0C0.971615 0 0 1.00898 0 2.25V15.75C0 16.991 0.971615 18 2.16667 18H10.8333C12.0284 18 13 16.991 13 15.75V5.43164C13 4.83398 12.7732 4.26094 12.3669 3.83906L9.29974 0.657422C8.89349 0.235547 8.34505 0 7.76953 0H2.16667ZM3.25 3.375C2.95208 3.375 2.70833 3.62812 2.70833 3.9375C2.70833 4.24688 2.95208 4.5 3.25 4.5H5.95833C6.25625 4.5 6.5 4.24688 6.5 3.9375C6.5 3.62812 6.25625 3.375 5.95833 3.375H3.25ZM3.25 5.625C2.95208 5.625 2.70833 5.87812 2.70833 6.1875C2.70833 6.49688 2.95208 6.75 3.25 6.75H5.95833C6.25625 6.75 6.5 6.49688 6.5 6.1875C6.5 5.87812 6.25625 5.625 5.95833 5.625H3.25ZM5.0849 13.4227L5.41667 12.2695L5.98203 14.2242C6.04635 14.4457 6.23255 14.6039 6.4526 14.6215C6.67266 14.6391 6.88594 14.5195 6.98411 14.3121L7.34297 13.5633C7.36328 13.5211 7.40391 13.4965 7.44792 13.4965C7.49193 13.4965 7.53255 13.5211 7.55287 13.5633L7.91172 14.3121C8.00313 14.502 8.19271 14.6215 8.39583 14.6215H9.75C10.0479 14.6215 10.2917 14.3684 10.2917 14.059C10.2917 13.7496 10.0479 13.4965 9.75 13.4965H8.73099L8.52109 13.0605C8.31797 12.6387 7.90156 12.3715 7.44792 12.3715C7.15677 12.3715 6.87917 12.4805 6.66589 12.6738L6.28333 11.3555C6.16823 10.9582 5.81615 10.6875 5.41667 10.6875C5.01719 10.6875 4.6651 10.9582 4.55 11.359L4.04557 13.0992C3.97786 13.3383 3.76458 13.5 3.5276 13.5H3.25C2.95208 13.5 2.70833 13.7531 2.70833 14.0625C2.70833 14.3719 2.95208 14.625 3.25 14.625H3.5276C4.24531 14.625 4.87839 14.1363 5.0849 13.4227Z" fill="currentColor"/>
</g>
<defs>
<clipPath id="clip0_4210_135">
<rect width="13" height="18" fill="white"/>
</clipPath>
</defs>
</svg>
