<svg width="18" height="18" viewBox="0 0 18 18" fill="currentColor" xmlns="http://www.w3.org/2000/svg">
<path d="M13.5 1.6875C13.8094 1.6875 14.0625 1.94062 14.0625 2.25V15.75C14.0625 16.0594 13.8094 16.3125 13.5 16.3125H3.375C3.06562 16.3125 2.8125 16.0594 2.8125 15.75V2.25C2.8125 1.94062 3.06562 1.6875 3.375 1.6875H13.5ZM3.375 0C2.13398 0 1.125 1.00898 1.125 2.25V15.75C1.125 16.991 2.13398 18 3.375 18H13.5C14.741 18 15.75 16.991 15.75 15.75V2.25C15.75 1.00898 14.741 0 13.5 0H3.375ZM8.4375 9C9.03424 9 9.60653 8.76295 10.0285 8.34099C10.4504 7.91903 10.6875 7.34674 10.6875 6.75C10.6875 6.15326 10.4504 5.58097 10.0285 5.15901C9.60653 4.73705 9.03424 4.5 8.4375 4.5C7.84076 4.5 7.26847 4.73705 6.84651 5.15901C6.42455 5.58097 6.1875 6.15326 6.1875 6.75C6.1875 7.34674 6.42455 7.91903 6.84651 8.34099C7.26847 8.76295 7.84076 9 8.4375 9ZM7.3125 10.125C5.75859 10.125 4.5 11.3836 4.5 12.9375C4.5 13.2469 4.75312 13.5 5.0625 13.5H11.8125C12.1219 13.5 12.375 13.2469 12.375 12.9375C12.375 11.3836 11.1164 10.125 9.5625 10.125H7.3125ZM18 2.8125C18 2.50312 17.7469 2.25 17.4375 2.25C17.1281 2.25 16.875 2.50312 16.875 2.8125V5.0625C16.875 5.37188 17.1281 5.625 17.4375 5.625C17.7469 5.625 18 5.37188 18 5.0625V2.8125ZM17.4375 6.75C17.1281 6.75 16.875 7.00312 16.875 7.3125V9.5625C16.875 9.87188 17.1281 10.125 17.4375 10.125C17.7469 10.125 18 9.87188 18 9.5625V7.3125C18 7.00312 17.7469 6.75 17.4375 6.75ZM18 11.8125C18 11.5031 17.7469 11.25 17.4375 11.25C17.1281 11.25 16.875 11.5031 16.875 11.8125V14.0625C16.875 14.3719 17.1281 14.625 17.4375 14.625C17.7469 14.625 18 14.3719 18 14.0625V11.8125Z" fill="currentColor"/>
</svg>
