<svg width="18" height="18" viewBox="0 0 18 18" fill="currentColor" xmlns="http://www.w3.org/2000/svg">
<path fill-rule="evenodd" clip-rule="evenodd" d="M6.9375 1H1.3125C1.14103 1 1 1.14103 1 1.3125V4.6875C1 4.85896 1.14103 5 1.3125 5H6.9375C7.10897 5 7.25 4.85896 7.25 4.6875V1.3125C7.25 1.14103 7.10897 1 6.9375 1ZM1.3125 0H6.9375C7.66125 0 8.25 0.58875 8.25 1.3125V4.6875C8.25 5.41125 7.66125 6 6.9375 6H1.3125C0.58875 6 0 5.41125 0 4.6875V1.3125C0 0.58875 0.58875 0 1.3125 0Z" fill="currentColor"/>
<path fill-rule="evenodd" clip-rule="evenodd" d="M6.9375 8.5H1.3125C1.14104 8.5 1 8.64103 1 8.8125V16.6875C1 16.859 1.14104 17 1.3125 17H6.9375C7.10897 17 7.25 16.859 7.25 16.6875V8.8125C7.25 8.64103 7.10897 8.5 6.9375 8.5ZM1.3125 7.5H6.9375C7.66125 7.5 8.25 8.08875 8.25 8.8125V16.6875C8.25 17.4113 7.66125 18 6.9375 18H1.3125C0.58875 18 0 17.4113 0 16.6875V8.8125C0 8.08875 0.58875 7.5 1.3125 7.5Z" fill="currentColor"/>
<path fill-rule="evenodd" clip-rule="evenodd" d="M16.6875 13H11.0625C10.891 13 10.75 13.141 10.75 13.3125V16.6875C10.75 16.859 10.891 17 11.0625 17H16.6875C16.859 17 17 16.859 17 16.6875V13.3125C17 13.141 16.859 13 16.6875 13ZM11.0625 12H16.6875C17.4112 12 18 12.5888 18 13.3125V16.6875C18 17.4113 17.4112 18 16.6875 18H11.0625C10.3387 18 9.75 17.4113 9.75 16.6875V13.3125C9.75 12.5888 10.3387 12 11.0625 12Z" fill="currentColor"/>
<path fill-rule="evenodd" clip-rule="evenodd" d="M16.6875 1H11.0625C10.891 1 10.75 1.14103 10.75 1.3125V9.1875C10.75 9.35897 10.891 9.5 11.0625 9.5H16.6875C16.859 9.5 17 9.35897 17 9.1875V1.3125C17 1.14103 16.859 1 16.6875 1ZM11.0625 0H16.6875C17.4112 0 18 0.58875 18 1.3125V9.1875C18 9.91125 17.4112 10.5 16.6875 10.5H11.0625C10.3387 10.5 9.75 9.91125 9.75 9.1875V1.3125C9.75 0.58875 10.3387 0 11.0625 0Z" fill="currentColor"/>
</svg>
