<svg width="14" height="18" viewBox="0 0 14 18" fill="currentColor" xmlns="http://www.w3.org/2000/svg">
<g clip-path="url(#clip0_3480_162)">
<path d="M11.6667 2.25H10.2083H9.85833C9.58854 0.966797 8.41094 0 7 0C5.58906 0 4.41146 0.966797 4.14167 2.25H3.79167H2.33333C1.04635 2.25 0 3.25898 0 4.5V15.75C0 16.991 1.04635 18 2.33333 18H11.6667C12.9536 18 14 16.991 14 15.75V4.5C14 3.25898 12.9536 2.25 11.6667 2.25ZM2.91667 3.9375V4.78125C2.91667 5.24883 3.30677 5.625 3.79167 5.625H7H10.2083C10.6932 5.625 11.0833 5.24883 11.0833 4.78125V3.9375H11.6667C11.9875 3.9375 12.25 4.19062 12.25 4.5V15.75C12.25 16.0594 11.9875 16.3125 11.6667 16.3125H2.33333C2.0125 16.3125 1.75 16.0594 1.75 15.75V4.5C1.75 4.19062 2.0125 3.9375 2.33333 3.9375H2.91667ZM6.125 2.8125C6.125 2.58872 6.21719 2.37411 6.38128 2.21588C6.54538 2.05764 6.76794 1.96875 7 1.96875C7.23206 1.96875 7.45462 2.05764 7.61872 2.21588C7.78281 2.37411 7.875 2.58872 7.875 2.8125C7.875 3.03628 7.78281 3.25089 7.61872 3.40912C7.45462 3.56736 7.23206 3.65625 7 3.65625C6.76794 3.65625 6.54538 3.56736 6.38128 3.40912C6.21719 3.25089 6.125 3.03628 6.125 2.8125ZM6.24531 8.27227C6.47135 8.0543 6.47135 7.6957 6.24531 7.47773C6.01927 7.25977 5.6474 7.25977 5.42135 7.47773L4.08333 8.76797L3.62031 8.32148C3.39427 8.10352 3.0224 8.10352 2.79635 8.32148C2.57031 8.53945 2.57031 8.89805 2.79635 9.11602L3.67135 9.95977C3.8974 10.1777 4.26927 10.1777 4.49531 9.95977L6.24531 8.27227ZM7 9.5625C7 9.87188 7.2625 10.125 7.58333 10.125H9.91667C10.2375 10.125 10.5 9.87188 10.5 9.5625C10.5 9.25312 10.2375 9 9.91667 9H7.58333C7.2625 9 7 9.25312 7 9.5625ZM5.83333 12.9375C5.83333 13.2469 6.09583 13.5 6.41667 13.5H9.91667C10.2375 13.5 10.5 13.2469 10.5 12.9375C10.5 12.6281 10.2375 12.375 9.91667 12.375H6.41667C6.09583 12.375 5.83333 12.6281 5.83333 12.9375ZM4.08333 13.7812C4.3154 13.7812 4.53796 13.6924 4.70205 13.5341C4.86615 13.3759 4.95833 13.1613 4.95833 12.9375C4.95833 12.7137 4.86615 12.4991 4.70205 12.3409C4.53796 12.1826 4.3154 12.0938 4.08333 12.0938C3.85127 12.0938 3.62871 12.1826 3.46461 12.3409C3.30052 12.4991 3.20833 12.7137 3.20833 12.9375C3.20833 13.1613 3.30052 13.3759 3.46461 13.5341C3.62871 13.6924 3.85127 13.7812 4.08333 13.7812Z" fill="currentColor"/>
</g>
<defs>
<clipPath id="clip0_3480_162">
<rect width="14" height="18" fill="white"/>
</clipPath>
</defs>
</svg>
