<svg width="15" height="18" viewBox="0 0 15 18" fill="currentColor" xmlns="http://www.w3.org/2000/svg">
<g clip-path="url(#clip0_2100_223)">
<path d="M3.21429 4.5C3.21429 2.0148 5.13281 0 7.5 0C9.86719 0 11.7857 2.0148 11.7857 4.5C11.7857 6.98555 9.86719 9 7.5 9C5.13281 9 3.21429 6.98555 3.21429 4.5ZM10.1786 4.5C10.1786 2.9468 8.97991 1.6875 7.5 1.6875C6.02009 1.6875 4.82143 2.9468 4.82143 4.5C4.82143 6.05391 6.02009 7.3125 7.5 7.3125C8.97991 7.3125 10.1786 6.05391 10.1786 4.5ZM5.35714 14.1434C6.13058 14.3859 6.69643 15.1383 6.69643 16.0312C6.69643 17.1176 5.85603 18 4.82143 18C3.78683 18 2.94643 17.1176 2.94643 16.0312C2.94643 15.1383 3.51228 14.3859 4.28571 14.1434V12.702C2.71507 13.3699 1.60714 14.9871 1.60714 16.875V17.1562C1.60714 17.6238 1.24721 18 0.803571 18C0.359933 18 0 17.6238 0 17.1562V16.875C0 13.4578 2.63839 10.6875 5.89286 10.6875H9.10714C12.3616 10.6875 15 13.4578 15 16.875V17.1562C15 17.6238 14.6417 18 14.1964 18C13.7511 18 13.3929 17.6238 13.3929 17.1562V16.875C13.3929 14.9871 12.2846 13.3699 10.7143 12.702V14.1434C11.4877 14.3859 12.0536 15.1383 12.0536 16.0312V17.1562C12.0536 17.4656 11.8125 17.7188 11.5179 17.7188C11.2232 17.7188 10.9821 17.4656 10.9821 17.1562V16.0312C10.9821 15.5637 10.6239 15.1875 10.1786 15.1875C9.73326 15.1875 9.375 15.5637 9.375 16.0312V17.1562C9.375 17.4656 9.13393 17.7188 8.83929 17.7188C8.54464 17.7188 8.30357 17.4656 8.30357 17.1562V16.0312C8.30357 15.1383 8.86942 14.3859 9.64286 14.1434V12.3785C9.46875 12.3855 9.28795 12.375 9.10714 12.375H5.89286C5.71205 12.375 5.53125 12.3855 5.35714 12.3785V14.1434ZM4.82143 16.875C5.26674 16.875 5.625 16.4988 5.625 16.0312C5.625 15.5637 5.26674 15.1875 4.82143 15.1875C4.37612 15.1875 4.01786 15.5637 4.01786 16.0312C4.01786 16.4988 4.37612 16.875 4.82143 16.875Z" fill="currentColor"/>
</g>
<defs>
<clipPath id="clip0_2100_223">
<rect width="15" height="18" fill="white"/>
</clipPath>
</defs>
</svg>
