<svg width="13" height="13" viewBox="0 0 13 13" fill="none" xmlns="http://www.w3.org/2000/svg">
<path d="M4.28848 8.02598C4.10863 8.20552 4.01883 8.44137 4.01883 8.677C4.01883 8.93522 4.21063 9.58877 4.94152 9.58877C5.18086 9.58877 5.42014 9.50189 5.59457 9.32801L11.0459 3.89188C11.3877 3.55114 11.5763 3.09766 11.5763 2.61549C11.5763 1.61688 10.7651 0.81098 9.76549 0.81098C9.30211 0.81098 8.83848 0.986937 8.4858 1.33911L2.21229 7.59434C1.68645 8.11891 1.42365 8.80776 1.42365 9.49661C1.42365 10.251 1.98555 12.1601 4.12014 12.1601C4.81914 12.1601 5.51789 11.9059 6.02723 11.3976L10.7321 6.70541C10.8117 6.62607 10.9159 6.58638 11.02 6.58638C11.2545 6.58638 11.4276 6.77801 11.4276 6.99263C11.4276 7.09658 11.3878 7.20053 11.3082 7.2798L6.60329 11.972C5.93887 12.6369 5.05781 13 4.1209 13C2.1676 13 0.609375 11.4222 0.609375 9.49864C0.609375 8.60184 0.951641 7.70479 1.63617 7.02204L7.9102 0.768324C8.42182 0.257719 9.09416 0.00228882 9.7665 0.00228882C11.21 0.00228882 12.3919 1.16493 12.3919 2.62006C12.3919 3.31957 12.1184 3.97668 11.6228 4.47104L6.17145 9.90717C5.83248 10.2451 5.38738 10.4142 4.94254 10.4142C4.00359 10.4142 3.20531 9.66139 3.20531 8.68182C3.20531 8.23799 3.37472 7.79416 3.71363 7.45596L7.59586 3.58389C7.67546 3.50454 7.77971 3.46486 7.88404 3.46486C8.10502 3.46486 8.29156 3.643 8.29156 3.87111C8.29156 3.97506 8.25178 4.07901 8.1722 4.15828L4.28848 8.02598Z" fill="#828282"/>
</svg>
