<svg width="14" height="14" viewBox="0 0 14 14" fill="none" xmlns="http://www.w3.org/2000/svg">
<path d="M2.92727 0.597845C3.07576 1.05725 2.83447 1.55221 2.39167 1.70535L1.69697 1.94326V5.24936C1.69697 6.69868 2.83712 7.87455 4.24242 7.87455C5.64773 7.87455 6.78788 6.69868 6.78788 5.24936V1.94326L6.09583 1.70535C5.65038 1.55221 5.41174 1.05725 5.56023 0.597845C5.70871 0.138437 6.18864 -0.107675 6.63409 0.0454612L7.32614 0.283369C8.01818 0.521277 8.48485 1.18851 8.48485 1.94326V5.24936C8.48485 7.36045 7.03712 9.12152 5.10947 9.53444C5.27652 11.0631 6.53333 12.2499 8.06061 12.2499C9.70189 12.2499 11.0303 10.8798 11.0303 9.18715V7.2538C10.2799 6.91745 9.75758 6.1463 9.75758 5.24936C9.75758 4.04068 10.7068 3.0617 11.8788 3.0617C13.0508 3.0617 14 4.04068 14 5.24936C14 6.1463 13.4777 6.91745 12.7273 7.2538V9.18715C12.7273 11.8452 10.6379 14 8.06061 14C5.59735 14 3.5822 12.0338 3.4072 9.53991C1.46364 9.13792 0 7.37139 0 5.24936V1.94326C0 1.19125 0.466667 0.521277 1.16136 0.283369L1.85341 0.0454612C2.29886 -0.107675 2.77879 0.141171 2.92727 0.597845V0.597845ZM11.8788 6.12442C12.3481 6.12442 12.7273 5.73338 12.7273 5.24936C12.7273 4.76534 12.3481 4.37429 11.8788 4.37429C11.4095 4.37429 11.0303 4.76534 11.0303 5.24936C11.0303 5.73338 11.4095 6.12442 11.8788 6.12442Z" fill="#002FA7"/>
</svg>
