<svg width="23" height="17" viewBox="0 0 23 17" fill="none" xmlns="http://www.w3.org/2000/svg">
<path d="M0 1.84277C0 1.37173 0.369643 0.986328 0.821429 0.986328H22.1786C22.6304 0.986328 23 1.37173 23 1.84277C23 2.31381 22.6304 2.69921 22.1786 2.69921H0.821429C0.369643 2.69921 0 2.31381 0 1.84277ZM3.28571 8.50716C3.28571 8.03612 3.65536 7.65072 4.10714 7.65072H18.8929C19.3446 7.65072 19.7143 8.03612 19.7143 8.50716C19.7143 8.9782 19.3446 9.3636 18.8929 9.3636H4.10714C3.65536 9.3636 3.28571 8.9782 3.28571 8.50716ZM14.7857 15.1716C14.7857 15.6426 14.4161 16.028 13.9643 16.028H9.03572C8.58393 16.028 8.21429 15.6426 8.21429 15.1716C8.21429 14.7005 8.58393 14.3151 9.03572 14.3151H13.9643C14.4161 14.3151 14.7857 14.7005 14.7857 15.1716Z" fill="#828282"/>
</svg>
