<svg width="14" height="19" viewBox="0 0 14 19" fill="currentColor" xmlns="http://www.w3.org/2000/svg">
<g clip-path="url(#clip0_2100_315)">
<path d="M8.16667 8.96875C8.16667 8.65938 7.90417 8.40625 7.58333 8.40625H6.41667C6.09583 8.40625 5.83333 8.65938 5.83333 8.96875V10.6562H4.08333C3.7625 10.6562 3.5 10.9094 3.5 11.1871V12.3438C3.5 12.653 3.76246 12.8746 4.08333 12.8746L5.83333 12.8746V14.5305C5.83333 14.9031 6.09583 15.1562 6.41667 15.1562H7.58333C7.9042 15.1562 8.16667 14.9031 8.16667 14.5938V12.9379L9.91667 12.9379C10.2375 12.9379 10.5 12.6847 10.5 12.407V11.1871C10.5 10.9094 10.2375 10.6562 9.91667 10.6562H8.16667V8.96875ZM13.3182 3.81414L10.5973 1.19008C10.1573 0.768273 9.56302 0.53125 8.94687 0.53125H2.33333C1.04453 0.53125 0 1.53848 0 2.78125L0.000236979 16.2812C0.000236979 17.5237 1.04477 18.5312 2.33357 18.5312H11.6667C12.95 18.5312 14 17.5187 14 16.2812V5.40391C14 4.80977 13.7557 4.23672 13.3182 3.81414ZM12.25 16.2812C12.25 16.5919 11.9888 16.8438 11.6667 16.8438H2.33406C2.01184 16.8438 1.75073 16.5919 1.75073 16.2812L1.75 2.78582C1.75 2.47518 2.01119 2.22332 2.33333 2.22332H8.16667V5.03125C8.16667 5.65246 8.68911 6.15625 9.33333 6.15625H12.2172V16.2812H12.25Z" fill="currentColor"/>
</g>
<defs>
<clipPath id="clip0_2100_315">
<rect width="14" height="18" fill="white" transform="translate(0 0.53125)"/>
</clipPath>
</defs>
</svg>
