<svg width="23" height="18" viewBox="0 0 23 18" fill="none" xmlns="http://www.w3.org/2000/svg">
<g clip-path="url(#clip0_4223_424)">
<path d="M3.17048 10.8668C3.52267 10.2234 3.41485 9.43242 2.90095 8.90508C2.13548 8.11758 1.72579 7.17188 1.72579 6.1875C1.72579 3.95508 4.0186 1.6875 7.47579 1.6875C10.933 1.6875 13.2258 3.95508 13.2258 6.1875C13.2258 8.41992 10.933 10.6875 7.47579 10.6875C7.00501 10.6875 6.5486 10.6418 6.11735 10.5609C5.7436 10.4906 5.35548 10.5398 5.01407 10.7086C4.86673 10.7824 4.71579 10.8527 4.56126 10.9195C3.98626 11.1727 3.37892 11.3941 2.76798 11.5523C2.8686 11.3906 2.96204 11.2324 3.05188 11.0742C3.09142 11.0074 3.13095 10.9371 3.16688 10.8668H3.17048ZM0.000790193 6.1875C0.000790193 7.65703 0.618915 9.00352 1.65032 10.0652C1.61798 10.125 1.58204 10.1883 1.5497 10.2445C1.17954 10.8914 0.74829 11.5277 0.234384 12.0762C-0.00280356 12.3223 -0.0638973 12.6809 0.0690714 12.9867C0.209228 13.2996 0.51829 13.5 0.86329 13.5C2.4086 13.5 3.97188 13.0324 5.27282 12.4559C5.44532 12.3785 5.61782 12.2977 5.78313 12.2168C6.32579 12.3223 6.8936 12.375 7.47579 12.375C11.605 12.375 14.9508 9.60469 14.9508 6.1875C14.9508 2.77031 11.605 0 7.47579 0C3.34657 0 0.000790193 2.77031 0.000790193 6.1875ZM15.5258 16.875C16.108 16.875 16.6722 16.8188 17.2184 16.7168C17.3838 16.7977 17.5563 16.8785 17.7288 16.9559C19.0297 17.5324 20.593 18 22.1383 18C22.4833 18 22.7924 17.7996 22.9289 17.4902C23.0655 17.1809 23.0008 16.8223 22.7636 16.5797C22.2533 16.0312 21.822 15.3949 21.4483 14.748C21.4159 14.6883 21.38 14.6285 21.3477 14.5687C22.3827 13.5035 23.0008 12.157 23.0008 10.6875C23.0008 7.36875 19.8419 4.6582 15.878 4.50703C16.0253 5.04141 16.1008 5.60391 16.1008 6.1875V6.20859C19.2345 6.44414 21.2758 8.58164 21.2758 10.6875C21.2758 11.6719 20.8661 12.6176 20.1006 13.4016C19.5867 13.9289 19.4789 14.7234 19.8311 15.3633C19.8706 15.4336 19.9102 15.5039 19.9461 15.5707C20.0359 15.7289 20.133 15.8871 20.23 16.0488C19.6191 15.8906 19.0117 15.6727 18.4367 15.416C18.2822 15.3492 18.1313 15.2789 17.9839 15.2051C17.6425 15.0363 17.2544 14.9871 16.8806 15.0574C16.4458 15.1418 15.993 15.184 15.5222 15.184C13.3049 15.184 11.5691 14.2523 10.6059 12.9938C10.0309 13.1836 9.4272 13.3242 8.80907 13.4086C10.0274 15.4617 12.5789 16.875 15.5258 16.875Z" fill="currentColor"/>
</g>
<defs>
<clipPath id="clip0_4223_424">
<rect width="23" height="18" fill="white"/>
</clipPath>
</defs>
</svg>
