<svg width="20" height="19" viewBox="0 0 20 19" fill="currentColor" xmlns="http://www.w3.org/2000/svg">
<g clip-path="url(#clip0_2100_204)">
<path d="M1.66667 2.75V10.0625H4.72222C5.18403 10.0625 5.55556 10.4387 5.55556 10.9062C5.55556 11.3738 5.18403 11.75 4.72222 11.75H1.66667V13.4375H4.72222C5.18403 13.4375 5.55556 13.8137 5.55556 14.2812C5.55556 14.7488 5.18403 15.125 4.72222 15.125H1.66667V16.25C1.66667 16.5594 1.91528 16.8125 2.22222 16.8125H8.88889C8.89583 16.8125 8.90278 16.7809 8.9132 16.7809C8.89583 16.9602 8.88889 17.1148 8.88889 17.266C8.88889 17.709 9.01042 18.1238 9.21875 18.4754C9.11111 18.493 9 18.5 8.88889 18.5H2.22222C0.994792 18.5 0 17.491 0 16.25V2.75C0 1.50723 0.994792 0.5 2.22222 0.5H8.88889C10.1146 0.5 11.1111 1.50723 11.1111 2.75V13.4305C10.4132 13.8242 9.83681 14.4078 9.44444 15.1145V2.75C9.44444 2.43922 9.19444 2.1875 8.88889 2.1875H2.22222C1.91528 2.1875 1.66667 2.43922 1.66667 2.75ZM4.72222 4.4375C4.72222 4.12812 4.97222 3.875 5.27778 3.875H5.83333C6.13889 3.875 6.38889 4.12812 6.38889 4.4375V5.28125H7.22222C7.52778 5.28125 7.77778 5.53438 7.77778 5.84375V6.40625C7.77778 6.71562 7.52778 6.96875 7.22222 6.96875H6.38889V7.8125C6.38889 8.12187 6.13889 8.375 5.83333 8.375H5.27778C4.97222 8.375 4.72222 8.12187 4.72222 7.8125V6.96875H3.88889C3.58333 6.96875 3.33333 6.71562 3.33333 6.40625V5.84375C3.33333 5.53438 3.58333 5.28125 3.88889 5.28125H4.72222V4.4375ZM17.7778 10.0625C17.7778 11.6164 16.5347 12.875 15 12.875C13.4653 12.875 12.2222 11.6164 12.2222 10.0625C12.2222 8.50859 13.4653 7.25 15 7.25C16.5347 7.25 17.7778 8.50859 17.7778 10.0625ZM10 17.273C10 15.466 11.4479 14 13.2326 14H16.7674C18.5521 14 20 15.466 20 17.273C20 17.9516 19.4583 18.5 18.7882 18.5H11.2118C10.5417 18.5 10 17.9516 10 17.273Z" fill="currentColor"/>
</g>
<defs>
<clipPath id="clip0_2100_204">
<rect width="20" height="18" fill="white" transform="translate(0 0.5)"/>
</clipPath>
</defs>
</svg>
