<svg width="21" height="18" viewBox="0 0 21 18" fill="currentColor" xmlns="http://www.w3.org/2000/svg">
<path d="M6.125 11.8125C6.6099 11.8125 7 12.1887 7 12.6562C7 13.1238 6.6099 13.5 6.125 13.5H4.375C3.8901 13.5 3.5 13.1238 3.5 12.6562C3.5 12.1887 3.8901 11.8125 4.375 11.8125H6.125ZM13.125 11.8125C13.6099 11.8125 14 12.1887 14 12.6562C14 13.1238 13.6099 13.5 13.125 13.5H9.04167C8.55677 13.5 8.16667 13.1238 8.16667 12.6562C8.16667 12.1887 8.55677 11.8125 9.04167 11.8125H13.125ZM18.6667 1.125C19.9536 1.125 21 2.13223 21 3.375V14.625C21 15.866 19.9536 16.875 18.6667 16.875H2.33333C1.04453 16.875 0 15.866 0 14.625V3.375C0 2.13223 1.04453 1.125 2.33333 1.125H18.6667ZM18.6667 2.8125H2.33333C2.01104 2.8125 1.75 3.06422 1.75 3.375V4.5H19.25V3.375C19.25 3.06422 18.9875 2.8125 18.6667 2.8125ZM19.25 7.875H1.75V14.625C1.75 14.9344 2.01104 15.1875 2.33333 15.1875H18.6667C18.9875 15.1875 19.25 14.9344 19.25 14.625V7.875Z" fill="currentColor"/>
</svg>
