<svg width="40" height="50" viewBox="0 0 40 50" fill="none" xmlns="http://www.w3.org/2000/svg">
<path d="M6.58935 0.156249C5.40643 0.449217 4.18505 1.30859 3.49261 2.34374C3.32911 2.58788 3.06945 3.08593 2.91557 3.46678L2.63667 4.15038L2.60782 14.5703L2.57897 24.9999H2.12696C1.47299 24.9999 0.703614 25.4101 0.328542 25.9569L0.0400258 26.3866L0.0111742 33.4764C-0.0176775 41.4549 -0.0465291 41.1034 0.693997 41.7479C1.12677 42.1287 1.55955 42.285 2.16543 42.285H2.56935L2.60782 44.0721C2.64629 45.703 2.67514 45.908 2.90596 46.5135C3.38682 47.7635 4.24275 48.7498 5.36796 49.3553C6.64705 50.0291 5.73342 49.9998 21.3037 49.9998C35.0082 49.9998 35.3737 49.9998 36.095 49.8045C36.5085 49.6971 37.0855 49.4725 37.3933 49.2967C38.105 48.8865 39.009 47.9393 39.3937 47.2069C40.038 45.9764 39.9996 47.158 39.9996 29.0038V12.5488L33.8253 6.27927L27.6414 6.91671e-10L17.3991 0.00976559C8.9071 0.0195312 7.06059 0.0390624 6.58935 0.156249ZM26.3623 7.05076C26.4008 10.7714 26.4104 10.9082 26.622 11.455C27.0356 12.5097 27.7857 13.2812 28.7955 13.6621C29.3052 13.8574 29.5168 13.8671 33.0175 13.8671H36.7105L36.7778 23.7499C36.8066 29.1893 36.8259 36.2596 36.8066 39.4627L36.7778 45.283L36.4893 45.7518C36.2873 46.0936 36.0565 46.2987 35.7199 46.4744L35.2487 46.7283L21.5826 46.7576C11.8211 46.7772 7.78189 46.7479 7.40681 46.6697C7.02213 46.5916 6.78169 46.4647 6.47394 46.1717C5.89691 45.6346 5.76227 45.1365 5.76227 43.535V42.285H18.5532C32.7674 42.285 31.7095 42.3338 32.4308 41.6209C33.0848 40.9764 33.0752 41.0936 33.0752 33.6717C33.0752 28.955 33.0463 26.914 32.9598 26.5917C32.8155 26.0058 32.1231 25.2538 31.5845 25.1073C31.3152 25.0292 27.3914 24.9999 18.4858 24.9999H5.76227V15.1074C5.76227 6.68943 5.7815 5.1367 5.90653 4.72654C6.08925 4.09178 6.64705 3.53514 7.27217 3.35936C7.63763 3.26171 9.7438 3.23241 17.0336 3.23241L26.3239 3.22264L26.3623 7.05076ZM9.37834 29.4042C11.0902 29.7264 11.8981 30.7323 11.8019 32.412C11.7538 33.2714 11.523 33.7987 11.0037 34.2577C10.3016 34.8827 9.49375 35.1561 8.2916 35.1561H7.49337V36.7674V38.3788H6.48356H5.47375V33.9452V29.5018L5.88729 29.453C7.08945 29.287 8.64743 29.2675 9.37834 29.4042ZM17.0914 29.3944C19.6495 29.7264 20.9575 31.1718 20.9575 33.6815C20.9575 36.162 19.8226 37.6756 17.5722 38.2323C16.7932 38.4276 15.0814 38.5252 14.0042 38.4276L13.1675 38.3592V33.9354V29.5018L13.5811 29.453C14.7736 29.287 16.0912 29.2675 17.0914 29.3944ZM27.7857 30.2245V31.0546H26.0546H24.3235V32.08V33.1053H25.9103H27.4972V33.9354V34.7655H25.9103H24.3235V36.5721V38.3788H23.3137H22.3039V33.8866V29.3944H25.0448H27.7857V30.2245Z" fill="black"/>
<path d="M7.56146 30.9276C7.52299 30.9569 7.49414 31.5722 7.49414 32.2948V33.5936H8.14811C9.16754 33.5936 9.7638 33.1639 9.86959 32.3534C9.94653 31.7772 9.67725 31.2694 9.18677 31.0448C8.80208 30.869 7.6961 30.7811 7.56146 30.9276Z" fill="black"/>
<path d="M15.3606 30.9179C15.1971 30.9667 15.1875 31.1913 15.1875 33.8964V36.8163L15.4472 36.8749C15.8415 36.9823 17.1013 36.7382 17.5341 36.4843C18.0534 36.1718 18.3035 35.8886 18.5728 35.3026C18.7651 34.8827 18.794 34.6581 18.794 33.7401C18.794 32.8222 18.7651 32.6073 18.5824 32.2753C18.2939 31.7284 17.813 31.289 17.3033 31.1034C16.8609 30.9374 15.6587 30.83 15.3606 30.9179Z" fill="black"/>
</svg>
