<svg width="14" height="18" viewBox="0 0 14 18" fill="currentColor" xmlns="http://www.w3.org/2000/svg">
<g clip-path="url(#clip0_2100_225)">
<path d="M1.75 1.6875H12.25V2.8125H1.75V1.6875ZM1.16667 0C0.521354 0 0 0.502734 0 1.125V3.375C0 3.99727 0.521354 4.5 1.16667 4.5H12.8333C13.4786 4.5 14 3.99727 14 3.375V1.125C14 0.502734 13.4786 0 12.8333 0H1.16667ZM1.16667 5.625V15.75C1.16667 16.991 2.21302 18 3.5 18H10.5C11.787 18 12.8333 16.991 12.8333 15.75V5.625H11.0833V15.75C11.0833 16.0594 10.8208 16.3125 10.5 16.3125H3.5C3.17917 16.3125 2.91667 16.0594 2.91667 15.75V5.625H1.16667ZM6.02656 8.4375V9.74883H4.66667C4.34583 9.74883 4.08333 10.002 4.08333 10.3113V11.0602C4.08333 11.3695 4.34583 11.6227 4.66667 11.6227H6.02656V12.9375C6.02656 13.2469 6.28906 13.5 6.6099 13.5H7.38646C7.70729 13.5 7.96979 13.2469 7.96979 12.9375V11.6262H9.33333C9.65417 11.6262 9.91667 11.373 9.91667 11.0637V10.3113C9.91667 10.002 9.65417 9.74883 9.33333 9.74883H7.97344V8.4375C7.97344 8.12813 7.71094 7.875 7.3901 7.875H6.6099C6.28906 7.875 6.02656 8.12813 6.02656 8.4375Z" fill="currentColor"/>
</g>
<defs>
<clipPath id="clip0_2100_225">
<rect width="14" height="18" fill="white"/>
</clipPath>
</defs>
</svg>
