<svg width="15" height="18" viewBox="0 0 15 18" fill="currentColor" xmlns="http://www.w3.org/2000/svg">
<path d="M12.8572 5.625C13.4499 5.625 13.9287 6.12773 13.9287 6.75C13.9287 7.37227 13.4499 7.875 12.8572 7.875C12.2646 7.875 11.7858 7.37227 11.7858 6.75C11.7858 6.12773 12.2646 5.625 12.8572 5.625ZM7.5001 5.625C8.09274 5.625 8.57153 6.12773 8.57153 6.75C8.57153 7.37227 8.09274 7.875 7.5001 7.875C6.90747 7.875 6.42868 7.37227 6.42868 6.75C6.42868 6.12773 6.90747 5.625 7.5001 5.625ZM2.14296 7.875C1.55133 7.875 1.07153 7.37227 1.07153 6.75C1.07153 6.12773 1.55133 5.625 2.14296 5.625C2.73459 5.625 3.21439 6.12773 3.21439 6.75C3.21439 7.37227 2.73459 7.875 2.14296 7.875ZM12.8572 10.125C13.4499 10.125 13.9287 10.6277 13.9287 11.25C13.9287 11.8723 13.4499 12.375 12.8572 12.375C12.2646 12.375 11.7858 11.8723 11.7858 11.25C11.7858 10.6277 12.2646 10.125 12.8572 10.125ZM7.5001 12.375C6.90747 12.375 6.42868 11.8723 6.42868 11.25C6.42868 10.6277 6.90747 10.125 7.5001 10.125C8.09274 10.125 8.57153 10.6277 8.57153 11.25C8.57153 11.8723 8.09274 12.375 7.5001 12.375ZM2.14296 10.125C2.73459 10.125 3.21439 10.6277 3.21439 11.25C3.21439 11.8723 2.73459 12.375 2.14296 12.375C1.55133 12.375 1.07153 11.8723 1.07153 11.25C1.07153 10.6277 1.55133 10.125 2.14296 10.125Z" fill="currentColor"/>
</svg>
