 <svg xmlns="http://www.w3.org/2000/svg" width='25px' height='30px' viewBox="0 0 100 125" fill="currentColor">
    <g>
      <path d="M50,11.4c-26.2,0-47.5,15.3-47.5,34.1c0,8.6,4.4,16.7,12.3,23c-1.3,3-3.4,7.4-6,10.9c-1.4,2-1.5,4.6-0.1,6.6 c1.1,1.6,2.8,2.5,4.7,2.5c0.5,0,1-0.1,1.5-0.2c8.8-2.3,16.8-6.6,22.3-9.9c4.1,0.8,8.4,1.2,12.7,1.2c26.2,0,47.5-15.3,47.5-34.1 S76.2,11.4,50,11.4z M50,74.6c-4.3,0-8.6-0.4-12.7-1.3c-0.6-0.1-1.3,0-1.9,0.3c-5.2,3.2-13.1,7.5-21.8,9.8 c-0.3,0.1-0.5,0-0.7-0.2c-0.2-0.2-0.2-0.5,0-0.7c3.5-4.8,6.1-10.7,7.3-13.9c0.4-1.1,0.1-2.3-0.9-3C11.8,60.2,7.6,53.1,7.6,45.6 c0-16,19-29.1,42.4-29.1s42.4,13,42.4,29.1S73.4,74.6,50,74.6z" />
      <path d="M80.2,41.3l-4.6-0.6l-2.1-4.3c-0.2-0.4-0.5-0.6-0.9-0.6c-0.4,0-0.8,0.2-0.9,0.6l-2,4.2l-4.7,0.7c-0.4,0.1-0.7,0.3-0.8,0.7 c-0.1,0.4,0,0.8,0.3,1.1l3.4,3.2L66.8,51c-0.1,0.4,0.1,0.8,0.4,1c0.3,0.2,0.7,0.3,1.1,0.1l4.1-2.2l4.2,2.2 c0.2,0.1,0.3,0.1,0.5,0.1c0.2,0,0.4-0.1,0.6-0.2c0.3-0.2,0.5-0.6,0.4-1l-0.8-4.6l3.4-3.3c0.3-0.3,0.4-0.7,0.3-1.1 C80.9,41.6,80.6,41.4,80.2,41.3z" />
      <path d="M57.7,41.3l-4.6-0.6L51,36.4c-0.2-0.4-0.5-0.6-0.9-0.6c-0.4,0-0.8,0.2-0.9,0.6l-2,4.2l-4.7,0.7c-0.4,0.1-0.7,0.3-0.8,0.7 c-0.1,0.4,0,0.8,0.3,1.1l3.4,3.2L44.3,51c-0.1,0.4,0.1,0.8,0.4,1c0.3,0.2,0.7,0.3,1.1,0.1l4.1-2.2l4.2,2.2 c0.2,0.1,0.3,0.1,0.5,0.1c0.2,0,0.4-0.1,0.6-0.2c0.3-0.2,0.5-0.6,0.4-1l-0.8-4.6l3.4-3.3c0.3-0.3,0.4-0.7,0.3-1.1 C58.4,41.6,58.1,41.4,57.7,41.3z" />
      <path d="M35.2,41.3l-4.6-0.6l-2.1-4.3c-0.2-0.4-0.5-0.6-0.9-0.6h0c-0.4,0-0.8,0.2-0.9,0.6l-2,4.2l-4.7,0.7c-0.4,0.1-0.7,0.3-0.8,0.7 c-0.1,0.4,0,0.8,0.3,1.1l3.4,3.2L21.8,51c-0.1,0.4,0.1,0.8,0.4,1c0.3,0.2,0.7,0.3,1.1,0.1l4.1-2.2l4.2,2.2 c0.2,0.1,0.3,0.1,0.5,0.1c0.2,0,0.4-0.1,0.6-0.2c0.3-0.2,0.5-0.6,0.4-1l-0.8-4.6l3.4-3.3c0.3-0.3,0.4-0.7,0.3-1.1 C35.9,41.6,35.6,41.4,35.2,41.3z" />
    </g>
</svg>