<svg width="16" height="11" viewBox="0 0 16 11" fill="none" xmlns="http://www.w3.org/2000/svg">
<path d="M14.6958 1.63312L14.697 1.63371C15.0357 1.80923 15.25 2.15306 15.25 2.53659V8.66132C15.25 9.03698 15.0426 9.40664 14.6975 9.5857L14.6966 9.58621C14.5475 9.66271 14.385 9.70084 14.2231 9.70084C14.0172 9.70084 13.8109 9.63951 13.6344 9.51765L13.6342 9.51753L11.1359 7.78957L14.6958 1.63312ZM14.6958 1.63312C14.3584 1.46053 13.9492 1.48214 13.6338 1.70058L11.1357 3.4299L14.6958 1.63312ZM11.8637 4.47232L11.8637 4.4723C11.5926 4.65569 11.1631 4.61927 10.9718 4.30643C10.7755 4.01951 10.8482 3.62846 11.1353 3.43014L11.8637 4.47232ZM11.8637 4.47232L11.8659 4.47084M11.8637 4.47232L11.8659 4.47084M11.8659 4.47084L13.9722 3.01355V8.20394L11.8657 6.74858L11.8651 6.74813M11.8659 4.47084L11.8651 6.74813M11.8651 6.74813C11.5777 6.55093 11.1811 6.6169 10.9779 6.90455M11.8651 6.74813L10.9779 6.90455M10.9779 6.90455C10.7743 7.19225 10.8455 7.58909 11.1356 7.78935L10.9779 6.90455ZM8.77778 0.75H2.55556C1.56118 0.75 0.75 1.54691 0.75 2.53659V8.68293C0.75 9.6726 1.56118 10.4695 2.55556 10.4695H8.77778C9.77215 10.4695 10.5833 9.6726 10.5833 8.68293V2.53659C10.5833 1.54678 9.77081 0.75 8.77778 0.75ZM9.30556 8.68293C9.30556 8.96549 9.07136 9.20122 8.77778 9.20122H2.55556C2.26198 9.20122 2.02778 8.96549 2.02778 8.68293V2.53659C2.02778 2.25402 2.26198 2.01829 2.55556 2.01829H8.77778C9.07136 2.01829 9.30556 2.25402 9.30556 2.53659V8.68293Z" fill="#002FA7" stroke="#0B32A3" stroke-width="0.5"/>
</svg>
